<svg width="330" height="82" viewBox="0 0 330 82" fill="none" xmlns="http://www.w3.org/2000/svg">
<rect x="2" y="2" width="326" height="78" rx="39" fill="#FC1A2E" stroke="#F7FFFE" stroke-width="4"/>
<path d="M49.8 29V12.512H58.872C59.992 12.512 60.944 12.744 61.728 13.208C62.528 13.656 63.136 14.288 63.552 15.104C63.984 15.904 64.2 16.848 64.2 17.936C64.2 19.056 63.976 20.024 63.528 20.84C63.096 21.656 62.472 22.296 61.656 22.76C60.856 23.208 59.896 23.432 58.776 23.432H54.096V29H49.8ZM54.096 20.12H57.768C58.44 20.12 58.952 19.936 59.304 19.568C59.656 19.184 59.832 18.656 59.832 17.984C59.832 17.504 59.752 17.112 59.592 16.808C59.448 16.504 59.224 16.272 58.92 16.112C58.616 15.936 58.232 15.848 57.768 15.848H54.096V20.12ZM74.4778 29.288C72.6698 29.288 71.1178 28.976 69.8218 28.352C68.5418 27.712 67.5578 26.76 66.8698 25.496C66.1818 24.232 65.8378 22.648 65.8378 20.744C65.8378 18.84 66.1818 17.264 66.8698 16.016C67.5578 14.752 68.5418 13.808 69.8218 13.184C71.1178 12.544 72.6698 12.224 74.4778 12.224C76.2858 12.224 77.8298 12.544 79.1098 13.184C80.4058 13.808 81.3978 14.752 82.0858 16.016C82.7738 17.264 83.1178 18.84 83.1178 20.744C83.1178 22.648 82.7738 24.232 82.0858 25.496C81.3978 26.76 80.4058 27.712 79.1098 28.352C77.8298 28.976 76.2858 29.288 74.4778 29.288ZM74.4778 25.928C75.1658 25.928 75.7738 25.824 76.3018 25.616C76.8298 25.408 77.2698 25.104 77.6218 24.704C77.9898 24.304 78.2618 23.816 78.4378 23.24C78.6138 22.664 78.7018 22.016 78.7018 21.296V20.24C78.7018 19.504 78.6138 18.848 78.4378 18.272C78.2618 17.696 77.9898 17.208 77.6218 16.808C77.2698 16.408 76.8298 16.104 76.3018 15.896C75.7738 15.688 75.1658 15.584 74.4778 15.584C73.7738 15.584 73.1578 15.688 72.6298 15.896C72.1018 16.104 71.6618 16.408 71.3098 16.808C70.9578 17.208 70.6938 17.696 70.5178 18.272C70.3418 18.848 70.2538 19.504 70.2538 20.24V21.296C70.2538 22.016 70.3418 22.664 70.5178 23.24C70.6938 23.816 70.9578 24.304 71.3098 24.704C71.6618 25.104 72.1018 25.408 72.6298 25.616C73.1578 25.824 73.7738 25.928 74.4778 25.928ZM85.9875 29V12.512H95.0595C96.1795 12.512 97.1315 12.744 97.9155 13.208C98.7155 13.656 99.3235 14.288 99.7395 15.104C100.172 15.904 100.388 16.848 100.388 17.936C100.388 19.056 100.164 20.024 99.7155 20.84C99.2835 21.656 98.6595 22.296 97.8435 22.76C97.0435 23.208 96.0835 23.432 94.9635 23.432H90.2835V29H85.9875ZM90.2835 20.12H93.9555C94.6275 20.12 95.1395 19.936 95.4915 19.568C95.8435 19.184 96.0195 18.656 96.0195 17.984C96.0195 17.504 95.9395 17.112 95.7795 16.808C95.6355 16.504 95.4115 16.272 95.1075 16.112C94.8035 15.936 94.4195 15.848 93.9555 15.848H90.2835V20.12ZM102.745 29V12.512H112.321C113.537 12.512 114.553 12.744 115.369 13.208C116.185 13.656 116.793 14.28 117.193 15.08C117.609 15.864 117.817 16.744 117.817 17.72C117.817 18.776 117.569 19.72 117.073 20.552C116.593 21.368 115.913 22.008 115.033 22.472L118.345 29H113.545L110.809 23.192H107.041V29H102.745ZM107.041 20H111.481C112.073 20 112.545 19.808 112.897 19.424C113.265 19.024 113.449 18.496 113.449 17.84C113.449 17.408 113.369 17.04 113.209 16.736C113.049 16.432 112.825 16.2 112.537 16.04C112.249 15.864 111.897 15.776 111.481 15.776H107.041V20ZM128.618 29.288C126.81 29.288 125.258 28.976 123.962 28.352C122.682 27.712 121.698 26.76 121.01 25.496C120.322 24.232 119.978 22.648 119.978 20.744C119.978 18.84 120.322 17.264 121.01 16.016C121.698 14.752 122.682 13.808 123.962 13.184C125.258 12.544 126.81 12.224 128.618 12.224C130.426 12.224 131.97 12.544 133.25 13.184C134.546 13.808 135.538 14.752 136.226 16.016C136.914 17.264 137.258 18.84 137.258 20.744C137.258 22.648 136.914 24.232 136.226 25.496C135.538 26.76 134.546 27.712 133.25 28.352C131.97 28.976 130.426 29.288 128.618 29.288ZM128.618 25.928C129.306 25.928 129.914 25.824 130.442 25.616C130.97 25.408 131.41 25.104 131.762 24.704C132.13 24.304 132.402 23.816 132.578 23.24C132.754 22.664 132.842 22.016 132.842 21.296V20.24C132.842 19.504 132.754 18.848 132.578 18.272C132.402 17.696 132.13 17.208 131.762 16.808C131.41 16.408 130.97 16.104 130.442 15.896C129.914 15.688 129.306 15.584 128.618 15.584C127.914 15.584 127.298 15.688 126.77 15.896C126.242 16.104 125.802 16.408 125.45 16.808C125.098 17.208 124.834 17.696 124.658 18.272C124.482 18.848 124.394 19.504 124.394 20.24V21.296C124.394 22.016 124.482 22.664 124.658 23.24C124.834 23.816 125.098 24.304 125.45 24.704C125.802 25.104 126.242 25.408 126.77 25.616C127.298 25.824 127.914 25.928 128.618 25.928ZM146.968 29.288C145.928 29.288 144.952 29.192 144.04 29C143.128 28.824 142.32 28.528 141.616 28.112C140.928 27.696 140.384 27.152 139.984 26.48C139.584 25.792 139.384 24.952 139.384 23.96C139.384 23.896 139.384 23.824 139.384 23.744C139.384 23.664 139.392 23.6 139.408 23.552H143.56C143.56 23.6 143.552 23.664 143.536 23.744C143.536 23.808 143.536 23.864 143.536 23.912C143.536 24.424 143.664 24.84 143.92 25.16C144.192 25.464 144.568 25.688 145.048 25.832C145.528 25.96 146.088 26.024 146.728 26.024C147.08 26.024 147.408 26.008 147.712 25.976C148.016 25.944 148.288 25.888 148.528 25.808C148.768 25.728 148.976 25.632 149.152 25.52C149.344 25.392 149.48 25.248 149.56 25.088C149.656 24.912 149.704 24.712 149.704 24.488C149.704 24.12 149.56 23.816 149.272 23.576C149 23.336 148.624 23.136 148.144 22.976C147.68 22.816 147.152 22.664 146.56 22.52C145.968 22.376 145.352 22.224 144.712 22.064C144.072 21.904 143.456 21.704 142.864 21.464C142.272 21.224 141.736 20.92 141.256 20.552C140.792 20.184 140.416 19.728 140.128 19.184C139.856 18.624 139.72 17.952 139.72 17.168C139.72 16.304 139.904 15.56 140.272 14.936C140.64 14.296 141.144 13.776 141.784 13.376C142.44 12.976 143.192 12.688 144.04 12.512C144.888 12.32 145.792 12.224 146.752 12.224C147.696 12.224 148.576 12.32 149.392 12.512C150.224 12.704 150.96 13.008 151.6 13.424C152.24 13.824 152.736 14.336 153.088 14.96C153.456 15.568 153.648 16.304 153.664 17.168V17.456H149.536V17.288C149.536 16.92 149.432 16.6 149.224 16.328C149.032 16.04 148.736 15.816 148.336 15.656C147.936 15.48 147.44 15.392 146.848 15.392C146.256 15.392 145.752 15.448 145.336 15.56C144.936 15.672 144.624 15.832 144.4 16.04C144.192 16.248 144.088 16.496 144.088 16.784C144.088 17.136 144.224 17.424 144.496 17.648C144.784 17.872 145.168 18.064 145.648 18.224C146.128 18.384 146.664 18.536 147.256 18.68C147.848 18.808 148.456 18.952 149.08 19.112C149.72 19.256 150.336 19.448 150.928 19.688C151.52 19.912 152.056 20.208 152.536 20.576C153.016 20.928 153.392 21.368 153.664 21.896C153.952 22.424 154.096 23.064 154.096 23.816C154.096 25.128 153.784 26.184 153.16 26.984C152.552 27.784 151.704 28.368 150.616 28.736C149.544 29.104 148.328 29.288 146.968 29.288ZM144.928 11.12L147.016 7.952H151.192L151.216 8.024L147.952 11.12H144.928ZM169.329 29.288C167.521 29.288 165.969 28.976 164.673 28.352C163.393 27.712 162.409 26.76 161.721 25.496C161.033 24.232 160.689 22.648 160.689 20.744C160.689 18.84 161.033 17.264 161.721 16.016C162.409 14.752 163.393 13.808 164.673 13.184C165.969 12.544 167.521 12.224 169.329 12.224C171.137 12.224 172.681 12.544 173.961 13.184C175.257 13.808 176.249 14.752 176.937 16.016C177.625 17.264 177.969 18.84 177.969 20.744C177.969 22.648 177.625 24.232 176.937 25.496C176.249 26.76 175.257 27.712 173.961 28.352C172.681 28.976 171.137 29.288 169.329 29.288ZM169.329 25.928C170.017 25.928 170.625 25.824 171.153 25.616C171.681 25.408 172.121 25.104 172.473 24.704C172.841 24.304 173.113 23.816 173.289 23.24C173.465 22.664 173.553 22.016 173.553 21.296V20.24C173.553 19.504 173.465 18.848 173.289 18.272C173.113 17.696 172.841 17.208 172.473 16.808C172.121 16.408 171.681 16.104 171.153 15.896C170.625 15.688 170.017 15.584 169.329 15.584C168.625 15.584 168.009 15.688 167.481 15.896C166.953 16.104 166.513 16.408 166.161 16.808C165.809 17.208 165.545 17.696 165.369 18.272C165.193 18.848 165.105 19.504 165.105 20.24V21.296C165.105 22.016 165.193 22.664 165.369 23.24C165.545 23.816 165.809 24.304 166.161 24.704C166.513 25.104 166.953 25.408 167.481 25.616C168.009 25.824 168.625 25.928 169.329 25.928ZM185.386 29V12.512H194.458C195.578 12.512 196.53 12.744 197.314 13.208C198.114 13.656 198.722 14.288 199.138 15.104C199.57 15.904 199.786 16.848 199.786 17.936C199.786 19.056 199.562 20.024 199.114 20.84C198.682 21.656 198.058 22.296 197.242 22.76C196.442 23.208 195.482 23.432 194.362 23.432H189.682V29H185.386ZM189.682 20.12H193.354C194.026 20.12 194.538 19.936 194.89 19.568C195.242 19.184 195.418 18.656 195.418 17.984C195.418 17.504 195.338 17.112 195.178 16.808C195.034 16.504 194.81 16.272 194.506 16.112C194.202 15.936 193.818 15.848 193.354 15.848H189.682V20.12ZM210.064 29.288C208.256 29.288 206.704 28.976 205.408 28.352C204.128 27.712 203.144 26.76 202.456 25.496C201.768 24.232 201.424 22.648 201.424 20.744C201.424 18.84 201.768 17.264 202.456 16.016C203.144 14.752 204.128 13.808 205.408 13.184C206.704 12.544 208.256 12.224 210.064 12.224C211.872 12.224 213.416 12.544 214.696 13.184C215.992 13.808 216.984 14.752 217.672 16.016C218.36 17.264 218.704 18.84 218.704 20.744C218.704 22.648 218.36 24.232 217.672 25.496C216.984 26.76 215.992 27.712 214.696 28.352C213.416 28.976 211.872 29.288 210.064 29.288ZM210.064 25.928C210.752 25.928 211.36 25.824 211.888 25.616C212.416 25.408 212.856 25.104 213.208 24.704C213.576 24.304 213.848 23.816 214.024 23.24C214.2 22.664 214.288 22.016 214.288 21.296V20.24C214.288 19.504 214.2 18.848 214.024 18.272C213.848 17.696 213.576 17.208 213.208 16.808C212.856 16.408 212.416 16.104 211.888 15.896C211.36 15.688 210.752 15.584 210.064 15.584C209.36 15.584 208.744 15.688 208.216 15.896C207.688 16.104 207.248 16.408 206.896 16.808C206.544 17.208 206.28 17.696 206.104 18.272C205.928 18.848 205.84 19.504 205.84 20.24V21.296C205.84 22.016 205.928 22.664 206.104 23.24C206.28 23.816 206.544 24.304 206.896 24.704C207.248 25.104 207.688 25.408 208.216 25.616C208.744 25.824 209.36 25.928 210.064 25.928ZM221.573 29V12.512H227.837L229.829 19.856C229.909 20.112 230.005 20.464 230.117 20.912C230.229 21.344 230.341 21.8 230.453 22.28C230.565 22.76 230.661 23.192 230.741 23.576H230.933C230.997 23.272 231.077 22.912 231.173 22.496C231.269 22.064 231.373 21.616 231.485 21.152C231.597 20.672 231.701 20.232 231.797 19.832L233.813 12.512H239.909V29H235.733V21.968C235.733 21.28 235.733 20.584 235.733 19.88C235.749 19.176 235.765 18.536 235.781 17.96C235.797 17.384 235.805 16.968 235.805 16.712H235.613C235.565 16.952 235.485 17.304 235.373 17.768C235.277 18.216 235.165 18.688 235.037 19.184C234.925 19.664 234.821 20.08 234.725 20.432L232.325 29H228.869L226.445 20.432C226.365 20.112 226.269 19.728 226.157 19.28C226.045 18.832 225.933 18.376 225.821 17.912C225.725 17.448 225.637 17.056 225.557 16.736H225.365C225.381 17.152 225.397 17.664 225.413 18.272C225.429 18.864 225.445 19.488 225.461 20.144C225.477 20.784 225.485 21.392 225.485 21.968V29H221.573ZM251.431 29.288C249.623 29.288 248.071 28.976 246.775 28.352C245.495 27.712 244.511 26.76 243.823 25.496C243.135 24.232 242.791 22.648 242.791 20.744C242.791 18.84 243.135 17.264 243.823 16.016C244.511 14.752 245.495 13.808 246.775 13.184C248.071 12.544 249.623 12.224 251.431 12.224C253.239 12.224 254.783 12.544 256.063 13.184C257.359 13.808 258.351 14.752 259.039 16.016C259.727 17.264 260.071 18.84 260.071 20.744C260.071 22.648 259.727 24.232 259.039 25.496C258.351 26.76 257.359 27.712 256.063 28.352C254.783 28.976 253.239 29.288 251.431 29.288ZM251.431 25.928C252.119 25.928 252.727 25.824 253.255 25.616C253.783 25.408 254.223 25.104 254.575 24.704C254.943 24.304 255.215 23.816 255.391 23.24C255.567 22.664 255.655 22.016 255.655 21.296V20.24C255.655 19.504 255.567 18.848 255.391 18.272C255.215 17.696 254.943 17.208 254.575 16.808C254.223 16.408 253.783 16.104 253.255 15.896C252.727 15.688 252.119 15.584 251.431 15.584C250.727 15.584 250.111 15.688 249.583 15.896C249.055 16.104 248.615 16.408 248.263 16.808C247.911 17.208 247.647 17.696 247.471 18.272C247.295 18.848 247.207 19.504 247.207 20.24V21.296C247.207 22.016 247.295 22.664 247.471 23.24C247.647 23.816 247.911 24.304 248.263 24.704C248.615 25.104 249.055 25.408 249.583 25.616C250.111 25.824 250.727 25.928 251.431 25.928ZM270.525 29.288C268.749 29.288 267.237 28.984 265.989 28.376C264.757 27.752 263.821 26.808 263.181 25.544C262.541 24.28 262.221 22.68 262.221 20.744C262.221 17.896 262.933 15.768 264.357 14.36C265.797 12.936 267.853 12.224 270.525 12.224C272.013 12.224 273.333 12.48 274.485 12.992C275.637 13.488 276.533 14.24 277.173 15.248C277.829 16.24 278.157 17.48 278.157 18.968H273.957C273.957 18.264 273.813 17.664 273.525 17.168C273.253 16.656 272.861 16.264 272.349 15.992C271.853 15.72 271.245 15.584 270.525 15.584C269.629 15.584 268.893 15.768 268.317 16.136C267.741 16.504 267.317 17.032 267.045 17.72C266.773 18.408 266.637 19.24 266.637 20.216V21.296C266.637 22.272 266.773 23.112 267.045 23.816C267.317 24.504 267.733 25.032 268.293 25.4C268.869 25.752 269.605 25.928 270.501 25.928C271.269 25.928 271.917 25.8 272.445 25.544C272.989 25.288 273.397 24.912 273.669 24.416C273.957 23.904 274.101 23.296 274.101 22.592H278.157C278.157 24.08 277.837 25.32 277.197 26.312C276.573 27.304 275.685 28.048 274.533 28.544C273.397 29.04 272.061 29.288 270.525 29.288Z" fill="white"/>
<path d="M76.432 62V57.104H71.896V54.56H76.432V49.64H78.952V54.56H83.512V57.104H78.952V62H76.432ZM93.487 62V58.4H86.071V55.736C86.695 54.744 87.279 53.696 87.823 52.592C88.367 51.488 88.871 50.32 89.335 49.088C89.815 47.856 90.215 46.576 90.535 45.248H93.967C93.791 46.016 93.543 46.824 93.223 47.672C92.919 48.52 92.567 49.36 92.167 50.192C91.767 51.024 91.359 51.808 90.943 52.544C90.543 53.264 90.159 53.904 89.791 54.464C89.423 55.024 89.111 55.448 88.855 55.736H93.487V51.752C93.647 51.448 93.807 51.12 93.967 50.768C94.143 50.4 94.311 50.032 94.471 49.664C94.631 49.28 94.775 48.904 94.903 48.536C95.047 48.168 95.159 47.824 95.239 47.504H96.775V55.736H98.887V58.4H96.775V62H93.487ZM106.847 62.288C105.455 62.288 104.303 62.08 103.391 61.664C102.495 61.248 101.823 60.68 101.375 59.96C100.943 59.224 100.727 58.4 100.727 57.488C100.727 56.56 100.943 55.776 101.375 55.136C101.823 54.48 102.495 53.96 103.391 53.576C102.623 53.112 102.063 52.576 101.711 51.968C101.375 51.344 101.207 50.648 101.207 49.88C101.207 48.984 101.423 48.192 101.855 47.504C102.287 46.8 102.927 46.248 103.775 45.848C104.623 45.448 105.647 45.248 106.847 45.248C108.031 45.248 109.039 45.448 109.871 45.848C110.719 46.248 111.367 46.8 111.815 47.504C112.263 48.192 112.487 48.984 112.487 49.88C112.487 50.648 112.303 51.344 111.935 51.968C111.583 52.592 111.031 53.128 110.279 53.576C111.191 53.96 111.863 54.48 112.295 55.136C112.727 55.776 112.943 56.56 112.943 57.488C112.943 58.4 112.719 59.224 112.271 59.96C111.839 60.68 111.167 61.248 110.255 61.664C109.359 62.08 108.223 62.288 106.847 62.288ZM106.847 59.72C107.695 59.72 108.351 59.504 108.815 59.072C109.295 58.64 109.535 58.048 109.535 57.296C109.535 56.512 109.295 55.912 108.815 55.496C108.335 55.064 107.679 54.848 106.847 54.848C105.999 54.848 105.335 55.064 104.855 55.496C104.375 55.912 104.135 56.512 104.135 57.296C104.135 58.048 104.367 58.64 104.831 59.072C105.311 59.504 105.983 59.72 106.847 59.72ZM106.847 52.328C107.567 52.328 108.151 52.136 108.599 51.752C109.047 51.368 109.271 50.808 109.271 50.072C109.271 49.336 109.047 48.776 108.599 48.392C108.167 47.992 107.583 47.792 106.847 47.792C106.095 47.792 105.503 47.992 105.071 48.392C104.639 48.776 104.423 49.336 104.423 50.072C104.423 50.808 104.639 51.368 105.071 51.752C105.503 52.136 106.095 52.328 106.847 52.328ZM126.167 62.288C125.159 62.288 124.263 62.144 123.479 61.856C122.711 61.568 122.055 61.112 121.511 60.488C120.967 59.864 120.559 59.04 120.287 58.016C120.015 56.976 119.879 55.712 119.879 54.224C119.879 52.544 120.015 51.128 120.287 49.976C120.559 48.824 120.951 47.904 121.463 47.216C121.991 46.512 122.639 46.008 123.407 45.704C124.175 45.4 125.063 45.248 126.071 45.248C127.287 45.248 128.295 45.472 129.095 45.92C129.911 46.368 130.511 46.984 130.895 47.768C131.295 48.536 131.495 49.432 131.495 50.456H128.255C128.255 49.896 128.175 49.424 128.015 49.04C127.855 48.64 127.607 48.336 127.271 48.128C126.935 47.92 126.511 47.816 125.999 47.816C125.247 47.816 124.671 48.016 124.271 48.416C123.887 48.8 123.623 49.368 123.479 50.12C123.351 50.872 123.279 51.784 123.263 52.856C123.423 52.696 123.663 52.504 123.983 52.28C124.319 52.056 124.735 51.864 125.231 51.704C125.727 51.528 126.263 51.44 126.839 51.44C127.975 51.44 128.927 51.672 129.695 52.136C130.479 52.584 131.063 53.208 131.447 54.008C131.831 54.808 132.023 55.736 132.023 56.792C132.023 57.928 131.767 58.912 131.255 59.744C130.759 60.56 130.071 61.192 129.191 61.64C128.327 62.072 127.319 62.288 126.167 62.288ZM126.047 59.696C126.639 59.696 127.127 59.576 127.511 59.336C127.895 59.08 128.183 58.736 128.375 58.304C128.567 57.856 128.663 57.36 128.663 56.816C128.663 56.24 128.567 55.736 128.375 55.304C128.183 54.872 127.895 54.536 127.511 54.296C127.127 54.04 126.639 53.912 126.047 53.912C125.471 53.912 124.983 54.04 124.583 54.296C124.199 54.536 123.911 54.872 123.719 55.304C123.527 55.736 123.431 56.24 123.431 56.816C123.431 57.376 123.527 57.88 123.719 58.328C123.911 58.76 124.199 59.096 124.583 59.336C124.983 59.576 125.471 59.696 126.047 59.696ZM140.152 62.288C139.16 62.288 138.288 62.144 137.536 61.856C136.784 61.552 136.152 61.072 135.64 60.416C135.144 59.744 134.768 58.864 134.512 57.776C134.272 56.688 134.152 55.352 134.152 53.768C134.152 52.168 134.272 50.832 134.512 49.76C134.768 48.672 135.144 47.792 135.64 47.12C136.152 46.448 136.784 45.968 137.536 45.68C138.288 45.392 139.16 45.248 140.152 45.248C141.16 45.248 142.032 45.392 142.768 45.68C143.504 45.968 144.12 46.448 144.616 47.12C145.128 47.792 145.504 48.672 145.744 49.76C146 50.832 146.128 52.168 146.128 53.768C146.128 55.352 146 56.688 145.744 57.776C145.504 58.864 145.128 59.744 144.616 60.416C144.12 61.072 143.504 61.552 142.768 61.856C142.032 62.144 141.16 62.288 140.152 62.288ZM140.152 59.696C140.856 59.696 141.392 59.512 141.76 59.144C142.128 58.76 142.384 58.184 142.528 57.416C142.672 56.648 142.744 55.688 142.744 54.536V53.048C142.744 51.88 142.672 50.912 142.528 50.144C142.384 49.36 142.128 48.776 141.76 48.392C141.392 48.008 140.856 47.816 140.152 47.816C139.448 47.816 138.904 48.008 138.52 48.392C138.152 48.776 137.896 49.352 137.752 50.12C137.608 50.872 137.536 51.832 137.536 53V54.488C137.536 55.656 137.608 56.632 137.752 57.416C137.896 58.184 138.152 58.76 138.52 59.144C138.904 59.512 139.448 59.696 140.152 59.696ZM150.849 62C150.849 60.704 151.001 59.432 151.305 58.184C151.625 56.936 152.057 55.736 152.601 54.584C153.145 53.432 153.753 52.344 154.425 51.32C155.113 50.28 155.817 49.344 156.537 48.512H148.377V45.536H160.593V47.504C160.033 48.176 159.465 48.904 158.889 49.688C158.313 50.472 157.761 51.304 157.233 52.184C156.721 53.048 156.257 53.952 155.841 54.896C155.425 55.824 155.097 56.784 154.857 57.776C154.617 58.752 154.497 59.736 154.497 60.728V62H150.849ZM173.433 62.288C172.041 62.288 170.889 62.08 169.977 61.664C169.081 61.248 168.409 60.68 167.961 59.96C167.529 59.224 167.313 58.4 167.313 57.488C167.313 56.56 167.529 55.776 167.961 55.136C168.409 54.48 169.081 53.96 169.977 53.576C169.209 53.112 168.649 52.576 168.297 51.968C167.961 51.344 167.793 50.648 167.793 49.88C167.793 48.984 168.009 48.192 168.441 47.504C168.873 46.8 169.513 46.248 170.361 45.848C171.209 45.448 172.233 45.248 173.433 45.248C174.617 45.248 175.625 45.448 176.457 45.848C177.305 46.248 177.953 46.8 178.401 47.504C178.849 48.192 179.073 48.984 179.073 49.88C179.073 50.648 178.889 51.344 178.521 51.968C178.169 52.592 177.617 53.128 176.865 53.576C177.777 53.96 178.449 54.48 178.881 55.136C179.313 55.776 179.529 56.56 179.529 57.488C179.529 58.4 179.305 59.224 178.857 59.96C178.425 60.68 177.753 61.248 176.841 61.664C175.945 62.08 174.809 62.288 173.433 62.288ZM173.433 59.72C174.281 59.72 174.937 59.504 175.401 59.072C175.881 58.64 176.121 58.048 176.121 57.296C176.121 56.512 175.881 55.912 175.401 55.496C174.921 55.064 174.265 54.848 173.433 54.848C172.585 54.848 171.921 55.064 171.441 55.496C170.961 55.912 170.721 56.512 170.721 57.296C170.721 58.048 170.953 58.64 171.417 59.072C171.897 59.504 172.569 59.72 173.433 59.72ZM173.433 52.328C174.153 52.328 174.737 52.136 175.185 51.752C175.633 51.368 175.857 50.808 175.857 50.072C175.857 49.336 175.633 48.776 175.185 48.392C174.753 47.992 174.169 47.792 173.433 47.792C172.681 47.792 172.089 47.992 171.657 48.392C171.225 48.776 171.009 49.336 171.009 50.072C171.009 50.808 171.225 51.368 171.657 51.752C172.089 52.136 172.681 52.328 173.433 52.328ZM187.754 62.288C186.506 62.288 185.418 62.072 184.49 61.64C183.578 61.192 182.874 60.56 182.378 59.744C181.882 58.928 181.634 57.96 181.634 56.84H184.922C184.922 57.4 185.026 57.904 185.234 58.352C185.458 58.784 185.778 59.12 186.194 59.36C186.61 59.584 187.098 59.696 187.658 59.696C188.202 59.696 188.666 59.576 189.05 59.336C189.45 59.096 189.762 58.752 189.986 58.304C190.21 57.84 190.322 57.272 190.322 56.6C190.322 55.976 190.21 55.456 189.986 55.04C189.778 54.608 189.474 54.288 189.074 54.08C188.69 53.856 188.234 53.744 187.706 53.744C187.29 53.744 186.922 53.816 186.602 53.96C186.298 54.088 186.034 54.248 185.81 54.44C185.586 54.632 185.394 54.84 185.234 55.064L182.234 54.68L182.906 45.536H192.794V48.488H185.69L185.426 52.208C185.602 52.08 185.834 51.944 186.122 51.8C186.41 51.656 186.762 51.528 187.178 51.416C187.61 51.288 188.106 51.224 188.666 51.224C189.626 51.224 190.482 51.424 191.234 51.824C192.002 52.224 192.61 52.824 193.058 53.624C193.506 54.408 193.73 55.408 193.73 56.624C193.73 57.792 193.482 58.8 192.986 59.648C192.506 60.496 191.818 61.152 190.922 61.616C190.042 62.064 188.986 62.288 187.754 62.288ZM202.028 62.288C200.78 62.288 199.692 62.072 198.764 61.64C197.852 61.192 197.148 60.56 196.652 59.744C196.156 58.928 195.908 57.96 195.908 56.84H199.196C199.196 57.4 199.3 57.904 199.508 58.352C199.732 58.784 200.052 59.12 200.468 59.36C200.884 59.584 201.372 59.696 201.932 59.696C202.476 59.696 202.94 59.576 203.324 59.336C203.724 59.096 204.036 58.752 204.26 58.304C204.484 57.84 204.596 57.272 204.596 56.6C204.596 55.976 204.484 55.456 204.26 55.04C204.052 54.608 203.748 54.288 203.348 54.08C202.964 53.856 202.508 53.744 201.98 53.744C201.564 53.744 201.196 53.816 200.876 53.96C200.572 54.088 200.308 54.248 200.084 54.44C199.86 54.632 199.668 54.84 199.508 55.064L196.508 54.68L197.18 45.536H207.068V48.488H199.964L199.7 52.208C199.876 52.08 200.108 51.944 200.396 51.8C200.684 51.656 201.036 51.528 201.452 51.416C201.884 51.288 202.38 51.224 202.94 51.224C203.9 51.224 204.756 51.424 205.508 51.824C206.276 52.224 206.884 52.824 207.332 53.624C207.78 54.408 208.004 55.408 208.004 56.624C208.004 57.792 207.756 58.8 207.26 59.648C206.78 60.496 206.092 61.152 205.196 61.616C204.316 62.064 203.26 62.288 202.028 62.288ZM221.012 62.288C219.764 62.288 218.676 62.072 217.748 61.64C216.836 61.192 216.132 60.56 215.636 59.744C215.14 58.928 214.892 57.96 214.892 56.84H218.18C218.18 57.4 218.284 57.904 218.492 58.352C218.716 58.784 219.036 59.12 219.452 59.36C219.868 59.584 220.356 59.696 220.916 59.696C221.46 59.696 221.924 59.576 222.308 59.336C222.708 59.096 223.02 58.752 223.244 58.304C223.468 57.84 223.58 57.272 223.58 56.6C223.58 55.976 223.468 55.456 223.244 55.04C223.036 54.608 222.732 54.288 222.332 54.08C221.948 53.856 221.492 53.744 220.964 53.744C220.548 53.744 220.18 53.816 219.86 53.96C219.556 54.088 219.292 54.248 219.068 54.44C218.844 54.632 218.652 54.84 218.492 55.064L215.492 54.68L216.164 45.536H226.052V48.488H218.948L218.684 52.208C218.86 52.08 219.092 51.944 219.38 51.8C219.668 51.656 220.02 51.528 220.436 51.416C220.868 51.288 221.364 51.224 221.924 51.224C222.884 51.224 223.74 51.424 224.492 51.824C225.26 52.224 225.868 52.824 226.316 53.624C226.764 54.408 226.988 55.408 226.988 56.624C226.988 57.792 226.74 58.8 226.244 59.648C225.764 60.496 225.076 61.152 224.18 61.616C223.3 62.064 222.244 62.288 221.012 62.288ZM235.573 62.288C234.565 62.288 233.669 62.144 232.885 61.856C232.117 61.568 231.461 61.112 230.917 60.488C230.373 59.864 229.965 59.04 229.693 58.016C229.421 56.976 229.285 55.712 229.285 54.224C229.285 52.544 229.421 51.128 229.693 49.976C229.965 48.824 230.357 47.904 230.869 47.216C231.397 46.512 232.045 46.008 232.813 45.704C233.581 45.4 234.469 45.248 235.477 45.248C236.693 45.248 237.701 45.472 238.501 45.92C239.317 46.368 239.917 46.984 240.301 47.768C240.701 48.536 240.901 49.432 240.901 50.456H237.661C237.661 49.896 237.581 49.424 237.421 49.04C237.261 48.64 237.013 48.336 236.677 48.128C236.341 47.92 235.917 47.816 235.405 47.816C234.653 47.816 234.077 48.016 233.677 48.416C233.293 48.8 233.029 49.368 232.885 50.12C232.757 50.872 232.685 51.784 232.669 52.856C232.829 52.696 233.069 52.504 233.389 52.28C233.725 52.056 234.141 51.864 234.637 51.704C235.133 51.528 235.669 51.44 236.245 51.44C237.381 51.44 238.333 51.672 239.101 52.136C239.885 52.584 240.469 53.208 240.853 54.008C241.237 54.808 241.429 55.736 241.429 56.792C241.429 57.928 241.173 58.912 240.661 59.744C240.165 60.56 239.477 61.192 238.597 61.64C237.733 62.072 236.725 62.288 235.573 62.288ZM235.453 59.696C236.045 59.696 236.533 59.576 236.917 59.336C237.301 59.08 237.589 58.736 237.781 58.304C237.973 57.856 238.069 57.36 238.069 56.816C238.069 56.24 237.973 55.736 237.781 55.304C237.589 54.872 237.301 54.536 236.917 54.296C236.533 54.04 236.045 53.912 235.453 53.912C234.877 53.912 234.389 54.04 233.989 54.296C233.605 54.536 233.317 54.872 233.125 55.304C232.933 55.736 232.837 56.24 232.837 56.816C232.837 57.376 232.933 57.88 233.125 58.328C233.317 58.76 233.605 59.096 233.989 59.336C234.389 59.576 234.877 59.696 235.453 59.696ZM249.582 62.288C248.334 62.288 247.246 62.072 246.318 61.64C245.406 61.192 244.702 60.56 244.206 59.744C243.71 58.928 243.462 57.96 243.462 56.84H246.75C246.75 57.4 246.854 57.904 247.062 58.352C247.286 58.784 247.606 59.12 248.022 59.36C248.438 59.584 248.926 59.696 249.486 59.696C250.03 59.696 250.494 59.576 250.878 59.336C251.278 59.096 251.59 58.752 251.814 58.304C252.038 57.84 252.15 57.272 252.15 56.6C252.15 55.976 252.038 55.456 251.814 55.04C251.606 54.608 251.302 54.288 250.902 54.08C250.518 53.856 250.062 53.744 249.534 53.744C249.118 53.744 248.75 53.816 248.43 53.96C248.126 54.088 247.862 54.248 247.638 54.44C247.414 54.632 247.222 54.84 247.062 55.064L244.062 54.68L244.734 45.536H254.622V48.488H247.518L247.254 52.208C247.43 52.08 247.662 51.944 247.95 51.8C248.238 51.656 248.59 51.528 249.006 51.416C249.438 51.288 249.934 51.224 250.494 51.224C251.454 51.224 252.31 51.424 253.062 51.824C253.83 52.224 254.438 52.824 254.886 53.624C255.334 54.408 255.558 55.408 255.558 56.624C255.558 57.792 255.31 58.8 254.814 59.648C254.334 60.496 253.646 61.152 252.75 61.616C251.87 62.064 250.814 62.288 249.582 62.288Z" fill="white"/>
</svg>
