<?xml version="1.0" encoding="UTF-8" standalone="no"?>
<!DOCTYPE svg PUBLIC "-//W3C//DTD SVG 1.1//EN" "http://www.w3.org/Graphics/SVG/1.1/DTD/svg11.dtd">
<svg width="100%" height="100%" viewBox="0 0 1280 800" version="1.1" xmlns="http://www.w3.org/2000/svg" xmlns:xlink="http://www.w3.org/1999/xlink" xml:space="preserve" xmlns:serif="http://www.serif.com/" style="fill-rule:evenodd;clip-rule:evenodd;stroke-linecap:round;stroke-linejoin:round;stroke-miterlimit:1.5;">
    <path d="M294.045,324.497C294.045,324.497 245.879,383.541 223.759,392.676C204.715,400.54 178.114,369.591 182.586,354.012C189.711,329.193 256.91,270.804 296.874,250.788C358.644,219.851 439.515,276.689 436.046,353.457C434.756,381.995 421.709,414.805 400.355,433.517L294.045,324.497ZM242.829,287.487C212.435,244.217 150.514,239.156 116.814,252.577C78.374,267.886 53.031,300.785 52.326,345.432C51.826,377.117 75.961,427.415 109.344,451.846C104.466,481.298 134.89,494.197 146.204,493.197C141.888,516.136 175.767,533.393 182.968,530.31C175.644,546.322 210.117,571.517 220.716,569.107C218.542,580.753 239.698,604.998 252.683,603.411C265,601.905 293.211,575.63 298.833,555.731C316.927,554.598 338.575,525.968 337.459,516.862C356.786,518.874 372.917,495.176 373.901,479.611C395.719,474.404 408.628,461.892 410.39,443.808L294.045,324.497C294.045,324.497 242.004,387.964 223.428,392.883C205.26,397.694 179.353,371.578 182.586,354.012C185.82,336.446 242.829,287.487 242.829,287.487ZM146.204,493.197L187.411,453.408M182.968,530.31L223.428,490.174L182.968,530.31ZM220.716,569.107L259.907,526.669M298.833,555.731C291.281,541.347 274.272,524.723 259.907,526.669C253.238,505.215 239.659,494.521 223.428,490.174C215.939,471.381 204.442,458.419 187.411,453.408C177.256,432.263 161.88,416.49 151.005,418.764C144.688,420.085 117.168,439.564 109.344,451.846M337.459,516.862L275.902,453.408M373.901,479.611L312.528,418.764" style="fill:none;stroke:#fc1a2e;stroke-width:19.21px;"/>
    <path d="M517.036,484.871C503.731,484.871 493.519,481.842 486.4,475.785C479.281,469.727 475.721,460.816 475.721,449.05L475.721,441.537L500.93,441.537L500.93,448.701C500.93,453.477 502.301,457.146 505.044,459.709C507.787,462.272 511.784,463.553 517.036,463.553C522.171,463.553 526.022,462.272 528.59,459.709C531.158,457.146 532.441,453.477 532.441,448.701L532.441,362.906L558.001,362.906L558.001,449.05C558.001,460.816 554.499,469.727 547.497,475.785C540.494,481.842 530.341,484.871 517.036,484.871Z" style="fill:#fc1a2e;fill-rule:nonzero;"/>
    <path d="M627.249,484.871C607.992,484.871 593.053,479.716 582.433,469.407C571.812,459.098 566.502,443.575 566.502,422.84C566.502,402.105 571.812,386.582 582.433,376.273C593.053,365.964 607.992,360.809 627.249,360.809C646.623,360.809 661.62,365.964 672.24,376.273C682.861,386.582 688.171,402.105 688.171,422.84C688.171,443.575 682.861,459.098 672.24,469.407C661.62,479.716 646.623,484.871 627.249,484.871ZM627.249,463.379C638.686,463.379 647.352,460.088 653.246,453.506C659.14,446.924 662.087,437.576 662.087,425.461L662.087,420.219C662.087,408.104 659.14,398.756 653.246,392.174C647.352,385.592 638.686,382.301 627.249,382.301C615.812,382.301 607.175,385.592 601.34,392.174C595.504,398.756 592.586,408.104 592.586,420.219L592.586,425.461C592.586,437.576 595.504,446.924 601.34,453.506C607.175,460.088 615.812,463.379 627.249,463.379Z" style="fill:#fc1a2e;fill-rule:nonzero;"/>
    <path d="M686.169,362.906L713.303,362.906L730.635,436.644C731.102,438.857 731.656,441.886 732.298,445.73C732.94,449.575 733.319,452.137 733.436,453.419L734.311,453.419C734.428,452.137 734.807,449.545 735.449,445.643C736.091,441.741 736.645,438.741 737.112,436.644L754.793,362.906L785.429,362.906L802.936,436.644C803.403,438.624 803.928,441.595 804.511,445.556C805.095,449.516 805.503,452.137 805.737,453.419L806.612,453.419C806.729,452.254 807.079,449.778 807.663,445.992C808.246,442.207 808.83,439.09 809.413,436.644L827.27,362.906L850.728,362.906L818.867,482.774L791.382,482.774L771.6,406.415C770.899,403.852 770.257,400.678 769.674,396.892C769.09,393.106 768.74,390.63 768.623,389.466L767.923,389.466C767.69,390.747 767.252,393.368 766.61,397.329C765.968,401.289 765.414,404.318 764.947,406.415L745.515,482.774L718.03,482.774L686.169,362.906Z" style="fill:#fc1a2e;fill-rule:nonzero;"/>
    <rect x="853.277" y="362.906" width="25.384" height="119.868" style="fill:#fc1a2e;fill-rule:nonzero;"/>
    <path d="M921.475,384.748L884.362,384.748L884.362,362.906L983.973,362.906L983.973,384.748L946.86,384.748L946.86,482.774L921.475,482.774L921.475,384.748Z" style="fill:#fc1a2e;fill-rule:nonzero;"/>
    <path d="M1025.39,362.906L1057.25,362.906L1104.16,482.774L1076.51,482.774L1067.93,459.884L1013.31,459.884L1004.73,482.774L978.469,482.774L1025.39,362.906ZM1059.87,438.741L1048.5,408.337C1047.56,405.891 1046.22,401.814 1044.47,396.106C1042.72,390.398 1041.55,386.612 1040.97,384.748L1040.09,384.748C1039.51,386.612 1038.34,390.398 1036.59,396.106C1034.84,401.814 1033.5,405.891 1032.56,408.337L1021.19,438.741L1059.87,438.741Z" style="fill:#fc1a2e;fill-rule:nonzero;"/>
</svg>
