<svg width="151" height="52" viewBox="0 0 151 52" fill="none" xmlns="http://www.w3.org/2000/svg">
<path d="M68.268 33.8681C67.004 33.8681 65.924 33.6841 65.028 33.3161C64.148 32.9321 63.468 32.3641 62.988 31.6121C62.524 30.8601 62.292 29.9081 62.292 28.7561V28.0121H65.796V28.7561C65.796 29.4921 65.996 30.0441 66.396 30.4121C66.812 30.7641 67.428 30.9401 68.244 30.9401C69.028 30.9401 69.62 30.6841 70.02 30.1721C70.42 29.6441 70.62 28.8921 70.62 27.9161V17.1161H74.22V27.9161C74.22 29.2441 73.988 30.3561 73.524 31.2521C73.06 32.1321 72.38 32.7881 71.484 33.2201C70.604 33.6521 69.532 33.8681 68.268 33.8681ZM84.3849 33.8681C82.6409 33.8681 81.1369 33.5561 79.8729 32.9321C78.6089 32.3081 77.6409 31.3641 76.9689 30.1001C76.2969 28.8361 75.9609 27.2521 75.9609 25.3481C75.9609 23.4121 76.2969 21.8201 76.9689 20.5721C77.6409 19.3081 78.6089 18.3721 79.8729 17.7641C81.1369 17.1401 82.6409 16.8281 84.3849 16.8281C86.1609 16.8281 87.6729 17.1401 88.9209 17.7641C90.1849 18.3721 91.1529 19.3081 91.8249 20.5721C92.4969 21.8201 92.8329 23.4121 92.8329 25.3481C92.8329 27.2521 92.4969 28.8361 91.8249 30.1001C91.1529 31.3641 90.1849 32.3081 88.9209 32.9321C87.6729 33.5561 86.1609 33.8681 84.3849 33.8681ZM84.3849 30.9401C85.1689 30.9401 85.8569 30.8281 86.4489 30.6041C87.0409 30.3801 87.5369 30.0441 87.9369 29.5961C88.3369 29.1481 88.6409 28.6041 88.8489 27.9641C89.0569 27.3081 89.1609 26.5641 89.1609 25.7321V24.9881C89.1609 24.1401 89.0569 23.3881 88.8489 22.7321C88.6409 22.0761 88.3369 21.5321 87.9369 21.1001C87.5369 20.6521 87.0409 20.3161 86.4489 20.0921C85.8569 19.8681 85.1689 19.7561 84.3849 19.7561C83.6169 19.7561 82.9369 19.8681 82.3449 20.0921C81.7529 20.3161 81.2569 20.6521 80.8569 21.1001C80.4569 21.5321 80.1529 22.0761 79.9449 22.7321C79.7529 23.3881 79.6569 24.1401 79.6569 24.9881V25.7321C79.6569 26.5641 79.7529 27.3081 79.9449 27.9641C80.1529 28.6041 80.4569 29.1481 80.8569 29.5961C81.2569 30.0441 81.7529 30.3801 82.3449 30.6041C82.9369 30.8281 83.6169 30.9401 84.3849 30.9401ZM96.9932 33.5801L92.6732 17.1161H96.4652L98.8652 26.9321C98.9132 27.0761 98.9612 27.2921 99.0092 27.5801C99.0572 27.8521 99.1052 28.1401 99.1532 28.4441C99.2012 28.7481 99.2412 29.0201 99.2732 29.2601H99.3932C99.4252 29.0841 99.4492 28.8841 99.4652 28.6601C99.4972 28.4361 99.5292 28.2201 99.5612 28.0121C99.6092 27.7881 99.6492 27.5801 99.6812 27.3881C99.7292 27.1961 99.7612 27.0441 99.7772 26.9321L102.009 17.1161H106.281L108.561 26.9321C108.609 27.0921 108.657 27.3081 108.705 27.5801C108.753 27.8521 108.801 28.1401 108.849 28.4441C108.897 28.7481 108.937 29.0201 108.969 29.2601H109.089C109.121 29.0841 109.153 28.8921 109.185 28.6841C109.233 28.4761 109.273 28.2681 109.305 28.0601C109.353 27.8361 109.401 27.6281 109.449 27.4361C109.497 27.2441 109.537 27.0761 109.569 26.9321L111.945 17.1161H115.377L111.033 33.5801H106.953L104.529 23.4521C104.481 23.2281 104.425 22.9721 104.361 22.6841C104.313 22.3801 104.265 22.0841 104.217 21.7961C104.169 21.5081 104.129 21.2521 104.097 21.0281H104.001C103.969 21.2521 103.929 21.5161 103.881 21.8201C103.849 22.1241 103.801 22.4201 103.737 22.7081C103.689 22.9961 103.641 23.2441 103.593 23.4521L101.193 33.5801H96.9932ZM116.334 33.5801V17.1161H119.91V33.5801H116.334ZM126.529 33.5801V20.1161H121.249V17.1161H135.433V20.1161H130.129V33.5801H126.529ZM133.072 33.5801L139.408 17.1161H143.824L150.16 33.5801H146.296L145.12 30.3401H137.944L136.768 33.5801H133.072ZM138.976 27.4601H144.088L142.624 23.4041C142.56 23.2281 142.48 23.0201 142.384 22.7801C142.304 22.5241 142.216 22.2441 142.12 21.9401C142.024 21.6361 141.928 21.3401 141.832 21.0521C141.752 20.7481 141.672 20.4761 141.592 20.2361H141.448C141.368 20.5401 141.264 20.9001 141.136 21.3161C141.008 21.7161 140.88 22.1081 140.752 22.4921C140.624 22.8601 140.52 23.1641 140.44 23.4041L138.976 27.4601Z" fill="white"/>
<path d="M33.632 12.5073C33.632 12.5073 27.237 20.3468 24.3 21.5598C21.7715 22.604 18.2397 18.4946 18.8333 16.4263M33.632 12.5073L47.7469 26.9824C50.5821 24.498 52.3144 20.1415 52.4857 16.3525C52.9463 6.1599 42.2089 -1.3864 34.0075 2.72097C28.7015 5.37862 19.7793 13.131 18.8333 16.4263M33.632 12.5073L49.0792 28.3487C48.8455 30.7497 47.1316 32.411 44.2346 33.1024M33.632 12.5073C33.632 12.5073 26.7224 20.9342 24.2559 21.5872C21.8438 22.226 18.4041 18.7586 18.8333 16.4263M18.8333 16.4263C19.2627 14.0941 26.832 7.59376 26.832 7.59376C22.7964 1.84852 14.5751 1.17655 10.1007 2.95847C4.99701 4.991 2.07086 10.3569 1.53842 15.2871C1.08683 19.4703 4.67664 26.1721 9.10891 29.4159M9.10891 29.4159C8.46138 33.3263 12.5007 35.0389 14.0028 34.906M9.10891 29.4159C10.1476 27.7851 13.8016 25.1989 14.6403 25.0234C16.0842 24.7217 18.1256 26.8159 19.4741 29.6232M14.0028 34.906C13.4299 37.9517 17.9281 40.2429 18.8839 39.8337M14.0028 34.906L19.4741 29.6232M18.8839 39.8337C17.9118 41.9596 22.4889 45.3049 23.896 44.9848M18.8839 39.8337L24.2559 34.5047M23.896 44.9848C23.6074 46.5309 26.4164 49.7502 28.1401 49.5394C29.7757 49.3394 33.5212 45.8509 34.2677 43.2089M23.896 44.9848L29.0995 39.3503M34.2677 43.2089C36.67 43.0582 39.5442 39.2571 39.3961 38.0482M34.2677 43.2089C33.265 41.299 31.0068 39.0919 29.0995 39.3503M39.3961 38.0482C41.9623 38.3152 44.1039 35.1689 44.2346 33.1024M39.3961 38.0482L31.2229 29.6232M44.2346 33.1024L36.0859 25.0234M19.4741 29.6232C21.7353 30.2886 23.2618 32.0095 24.2559 34.5047M24.2559 34.5047C26.4111 35.082 28.2139 36.5018 29.0995 39.3503" stroke="white" stroke-width="3" stroke-miterlimit="1.5" stroke-linecap="round" stroke-linejoin="round"/>
</svg>
