<svg width="633" height="533" viewBox="0 0 633 533" fill="none" xmlns="http://www.w3.org/2000/svg">
<path d="M79.2909 113.236C182.154 -0.139959 358.754 -19.0099 437.483 17.4075C468.074 31.449 496.37 49.7653 521.467 71.7706C524.755 74.6146 527.951 77.5392 531.053 80.5443C540.74 89.7868 549.825 99.6033 558.255 109.937C568.359 122.299 577.473 135.391 585.516 149.099C597.041 168.606 606.17 189.351 612.718 210.913C617.05 225.061 619.893 239.596 621.203 254.298C623.449 281.9 621.497 309.757 617.665 337.13C617.313 339.747 616.931 342.363 616.52 344.979C616.417 345.705 616.315 346.401 616.197 347.155C611.984 374.415 606.024 401.916 592.709 425.692C578.176 451.672 527.471 523.753 472.48 525.616C443.957 526.597 418.766 508.552 392.914 495.754C351.81 475.448 305.289 471.466 259.928 470.286C214.567 469.106 168.648 470.371 124.447 459.479C80.2451 448.586 36.9097 423.573 14.3172 381.994C6.63958 367.859 0.811616 347.496 0.796936 331.2C0.796936 283.122 8.90029 241.074 23.0518 204.543C27.5456 192.894 32.7868 181.529 38.7447 170.514C47.4715 154.363 57.754 139.046 69.4553 124.769L79.2909 113.236Z" fill="#F7FFFE"/>
<g opacity="0.7">
<path opacity="0.7" d="M79.2909 113.236C182.154 -0.139959 358.754 -19.0099 437.483 17.4075C468.074 31.449 496.37 49.7653 521.467 71.7706C524.755 74.6146 527.951 77.5392 531.053 80.5443C540.74 89.7868 549.825 99.6033 558.255 109.937C568.359 122.299 577.473 135.391 585.516 149.099C597.041 168.606 606.17 189.351 612.718 210.913C617.05 225.061 619.893 239.596 621.203 254.298C623.449 281.9 621.497 309.757 617.665 337.13C617.313 339.747 616.931 342.363 616.52 344.979C616.417 345.705 616.315 346.401 616.197 347.155C611.984 374.415 606.024 401.916 592.709 425.692C578.176 451.672 527.471 523.753 472.48 525.616C443.957 526.597 418.766 508.552 392.914 495.754C351.81 475.448 305.289 471.466 259.928 470.286C214.567 469.106 168.648 470.371 124.447 459.479C80.2451 448.586 36.9097 423.573 14.3172 381.994C6.63958 367.859 0.811616 347.496 0.796936 331.2C0.796936 283.122 8.90029 241.074 23.0518 204.543C27.5456 192.894 32.7868 181.529 38.7447 170.514C47.4715 154.363 57.754 139.046 69.4553 124.769L79.2909 113.236Z" fill="white"/>
</g>
<path d="M0.796936 523.967H632.11" stroke="#263238" stroke-linecap="round" stroke-linejoin="round"/>
<path d="M486.646 317.677V317.834C486.646 318.09 486.705 318.36 486.822 318.644C487.479 321.76 487.969 324.907 488.29 328.072C488.569 330.788 488.789 333.888 488.848 337.344C488.988 345.329 488.423 353.312 487.16 361.205C486.837 363.281 486.455 365.471 486 367.661C485.281 371.272 484.4 375.055 483.314 378.965C482.829 380.786 482.272 382.648 481.684 384.525L480.994 386.815C480.73 387.739 480.466 388.664 480.216 389.659C478.529 395.976 477.181 402.375 476.179 408.827C474.932 416.862 474.154 424.839 473.728 432.39C473.155 442.458 473.185 451.758 473.434 459.408C473.427 459.536 473.427 459.664 473.434 459.792C473.698 467.57 474.198 473.671 474.535 477.14C474.726 479.174 474.858 480.326 474.873 480.397" stroke="#263238" stroke-linecap="round" stroke-linejoin="round"/>
<path d="M486.69 317.876C484.493 315.984 481.844 314.65 478.983 313.994Z" fill="white"/>
<path d="M486.69 317.876C484.493 315.984 481.844 314.65 478.983 313.994" stroke="#263238" stroke-linecap="round" stroke-linejoin="round"/>
<path d="M488.334 328.114L492.239 324.688" stroke="#263238" stroke-linecap="round" stroke-linejoin="round"/>
<path d="M483.358 378.98C483.153 377.982 482.848 377.005 482.448 376.065C481.869 374.685 481.083 373.396 480.114 372.239C479.39 371.37 478.568 370.583 477.662 369.893" stroke="#263238" stroke-linecap="round" stroke-linejoin="round"/>
<path d="M480.231 389.644C480.784 388.316 481.613 387.113 482.666 386.107C483.719 385.102 484.974 384.317 486.353 383.8" stroke="#263238" stroke-linecap="round" stroke-linejoin="round"/>
<path d="M473.449 442.543C474.755 441.007 475.739 435.191 476.267 432.063C476.4 431.323 476.502 430.641 476.605 430.229" fill="white"/>
<path d="M473.449 442.543C474.755 441.007 475.739 435.191 476.267 432.063C476.4 431.323 476.502 430.641 476.605 430.229" stroke="#263238" stroke-linecap="round" stroke-linejoin="round"/>
<path d="M463.393 453.094C463.828 453.052 464.265 453.052 464.7 453.094C466.623 453.275 468.458 453.96 470.01 455.075C471.561 456.189 472.771 457.692 473.508 459.422" fill="white"/>
<path d="M463.393 453.094C463.828 453.052 464.265 453.052 464.7 453.094C466.623 453.275 468.458 453.96 470.01 455.075C471.561 456.189 472.771 457.692 473.508 459.422" stroke="#263238" stroke-linecap="round" stroke-linejoin="round"/>
<path d="M486.044 367.774C486.044 367.774 486.734 344.695 473.654 336.32" stroke="#263238" stroke-linecap="round" stroke-linejoin="round"/>
<path d="M487.16 417.246C488.878 422.635 476.884 432.887 476.884 432.887C476.884 432.887 461.044 430.968 459.268 425.593C457.492 420.217 461.558 411.373 469.25 409.097C476.943 406.822 485.501 411.856 487.16 417.246Z" fill="#C6D1CF"/>
<path d="M500.504 351.933C499.036 357.621 487.644 361.702 487.644 361.702C487.644 361.702 479.82 352.843 481.288 347.127C482.756 341.41 489.083 335.125 494.397 336.447C499.711 337.77 502.031 346.217 500.504 351.933Z" fill="#C6D1CF"/>
<path d="M455.011 437.353C462.131 440.026 466.491 452.227 466.491 452.227C466.491 452.227 454.747 458.356 447.641 455.668C440.536 452.981 432.961 445.415 435.017 440.367C437.072 435.319 447.891 434.608 455.011 437.353Z" fill="#C6D1CF"/>
<path d="M470.616 370.234C472.057 371.408 473.709 372.314 475.489 372.908C476.383 373.188 477.339 373.225 478.253 373.014C479.167 372.803 480.004 372.353 480.671 371.713C482.139 370.021 481.787 367.447 480.833 365.328C478.924 361.276 471.907 354.379 466.52 356.356C458.74 359.242 467.151 367.774 470.616 370.234Z" fill="#C6D1CF"/>
<path d="M486.543 380.572C485.516 381.795 484.43 383.345 485.002 384.838C485.321 385.465 485.846 385.973 486.494 386.281C487.141 386.59 487.876 386.683 488.584 386.545C489.992 386.221 491.307 385.594 492.43 384.71C495.175 382.862 500.812 379.022 497.216 375.368C493.619 371.713 488.628 377.998 486.543 380.572Z" fill="#C6D1CF"/>
<path d="M463.569 328.996C462.977 329.03 462.41 329.243 461.949 329.605C461.488 329.967 461.156 330.461 461 331.015C460.765 332.338 461.896 333.49 462.982 334.3C465.713 336.348 473.919 341.837 475.739 336.533C477.471 331.527 467.181 328.612 463.569 328.996Z" fill="#C6D1CF"/>
<path d="M478.675 311.562C476.987 311.719 475.299 311.122 473.596 311.221C471.893 311.321 470.028 312.643 470.395 314.264C470.762 315.885 472.656 316.241 474.212 316.326C476.891 316.493 479.582 316.316 482.213 315.8C482.836 315.743 483.413 315.458 483.828 315.004C484.518 314.023 483.431 312.714 482.257 312.373C481.051 312.218 479.866 311.941 478.719 311.548L478.675 311.562Z" fill="#C6D1CF"/>
<path d="M495.205 322.839C496.893 322.839 498.537 322.185 500.24 322.171C501.943 322.156 503.91 323.365 503.631 325.015C503.352 326.664 501.532 327.133 499.976 327.318C497.316 327.66 494.62 327.66 491.96 327.318C491.331 327.304 490.731 327.055 490.287 326.621C489.538 325.697 490.536 324.318 491.667 323.891C492.864 323.675 494.031 323.326 495.146 322.853L495.205 322.839Z" fill="#C6D1CF"/>
<path d="M493.531 444.022C493.92 443.629 494.44 443.382 494.999 443.325C495.376 443.36 495.729 443.521 495.997 443.78C496.265 444.04 496.431 444.382 496.467 444.747C496.548 445.45 496.458 446.161 496.203 446.823C495.043 450.563 482.125 477.567 479.145 472.718C477.398 469.874 481.714 460.361 482.991 457.673C485.428 452.429 489.027 447.768 493.531 444.022V444.022Z" fill="#C6D1CF"/>
<path d="M487.233 319.426C487.233 319.426 486.455 312.871 488.085 312.316" stroke="#263238" stroke-linecap="round" stroke-linejoin="round"/>
<path d="M485.795 312.586C486.627 310.271 488.063 308.204 489.964 306.586C492.004 305.164 495.278 305.05 496.761 307.026C498.42 309.231 496.761 312.572 494.221 313.752C491.681 314.933 488.687 314.577 485.898 314.193C485.898 313.795 485.898 313.397 485.898 312.999L485.795 312.586Z" fill="#C6D1CF"/>
<path d="M492.753 523.64C478.915 525.901 464.783 525.901 450.944 523.64V523.64L434.679 477.155H509.019L492.753 523.64Z" fill="white" stroke="#263238" stroke-linecap="round" stroke-linejoin="round"/>
<path d="M209.047 187.792V187.948C209.106 188.204 209.165 188.474 209.224 188.759C209.889 191.873 210.379 195.021 210.692 198.187C210.97 200.903 211.176 204.003 211.249 207.458C211.4 215.424 210.85 223.387 209.605 231.262C209.282 233.338 208.901 235.528 208.446 237.718C207.726 241.33 206.831 245.113 205.759 249.023C205.26 250.843 204.717 252.706 204.13 254.583C203.895 255.351 203.66 256.105 203.44 256.873C203.219 257.64 202.897 258.721 202.647 259.717" stroke="#263238" stroke-linecap="round" stroke-linejoin="round"/>
<path d="M209.077 187.991C208.024 187.098 206.872 186.32 205.642 185.673C204.286 184.981 202.846 184.455 201.355 184.109" fill="white"/>
<path d="M209.077 187.991C208.024 187.098 206.872 186.32 205.642 185.673C204.286 184.981 202.846 184.455 201.355 184.109" stroke="#263238" stroke-linecap="round" stroke-linejoin="round"/>
<path d="M210.721 198.229L214.641 194.802" stroke="#263238" stroke-linecap="round" stroke-linejoin="round"/>
<path d="M205.759 249.094C205.55 248.096 205.24 247.119 204.834 246.179C204.256 244.799 203.469 243.51 202.5 242.354C201.777 241.485 200.954 240.698 200.049 240.008" stroke="#263238" stroke-linecap="round" stroke-linejoin="round"/>
<path d="M202.632 259.702C203.18 258.373 204.005 257.168 205.056 256.163C206.107 255.157 207.361 254.372 208.739 253.858" stroke="#263238" stroke-linecap="round" stroke-linejoin="round"/>
<path d="M195.835 312.658C197.142 311.122 198.14 305.306 198.669 302.177C198.786 301.438 198.904 300.755 198.992 300.343" fill="white"/>
<path d="M195.835 312.658C197.142 311.122 198.14 305.306 198.669 302.177C198.786 301.438 198.904 300.755 198.992 300.343" stroke="#263238" stroke-linecap="round" stroke-linejoin="round"/>
<path d="M185.78 323.152C186.219 323.109 186.662 323.109 187.101 323.152C189.022 323.337 190.856 324.024 192.407 325.138C193.957 326.252 195.168 327.753 195.909 329.48" fill="white"/>
<path d="M185.78 323.152C186.219 323.109 186.662 323.109 187.101 323.152C189.022 323.337 190.856 324.024 192.407 325.138C193.957 326.252 195.168 327.753 195.909 329.48" stroke="#263238" stroke-linecap="round" stroke-linejoin="round"/>
<path d="M208.431 237.832C208.431 237.832 209.136 214.753 196.041 206.377" stroke="#263238" stroke-linecap="round" stroke-linejoin="round"/>
<path d="M209.62 287.36C211.323 292.75 199.344 303.002 199.344 303.002C199.344 303.002 183.49 301.083 181.728 295.707C179.966 290.332 184.033 281.487 191.71 279.212C199.388 276.937 207.902 281.985 209.62 287.36Z" fill="#C6D1CF"/>
<path d="M222.92 222.048C221.452 227.736 210.06 231.817 210.06 231.817C210.06 231.817 202.148 222.958 203.675 217.241C205.201 211.525 211.455 205.24 216.769 206.562C222.083 207.884 224.388 216.331 222.92 222.048Z" fill="#C6D1CF"/>
<path d="M177.412 307.467C184.532 310.155 188.906 322.341 188.906 322.341C188.906 322.341 177.162 328.47 170.043 325.783C162.923 323.095 155.363 315.53 157.433 310.482C159.502 305.434 170.278 304.78 177.412 307.467Z" fill="#C6D1CF"/>
<path d="M193.017 240.349C194.453 241.522 196.1 242.428 197.876 243.022C198.77 243.302 199.726 243.339 200.64 243.129C201.554 242.918 202.39 242.468 203.058 241.828C204.526 240.135 204.174 237.562 203.219 235.443C201.311 231.39 194.309 224.494 188.906 226.47C181.141 229.328 189.538 237.86 193.017 240.349Z" fill="#C6D1CF"/>
<path d="M208.93 250.701C207.917 251.924 206.831 253.545 207.389 254.967C207.708 255.594 208.232 256.101 208.88 256.41C209.528 256.719 210.263 256.811 210.971 256.673C212.38 256.352 213.695 255.725 214.817 254.839C217.562 253.005 223.199 249.151 219.602 245.496C216.006 241.842 211.088 248.113 208.93 250.701Z" fill="#C6D1CF"/>
<path d="M185.956 199.111C185.364 199.146 184.798 199.36 184.338 199.722C183.877 200.084 183.545 200.576 183.387 201.13C183.152 202.453 184.282 203.604 185.383 204.415C188.114 206.463 196.305 211.952 198.14 206.648C199.858 201.642 189.582 198.727 185.956 199.111Z" fill="#C6D1CF"/>
<path d="M201.062 181.677C199.373 181.833 197.685 181.236 195.997 181.336C194.309 181.435 192.415 182.758 192.797 184.379C193.178 186 195.043 186.355 196.613 186.441C199.288 186.607 201.973 186.43 204.599 185.915C205.227 185.858 205.809 185.573 206.229 185.118C206.904 184.137 205.818 182.829 204.658 182.488C203.448 182.333 202.257 182.056 201.106 181.663L201.062 181.677Z" fill="#C6D1CF"/>
<path d="M217.591 192.954C219.294 192.954 220.938 192.3 222.626 192.285C224.315 192.271 226.296 193.48 226.032 195.129C225.768 196.779 223.918 197.248 222.362 197.433C219.702 197.774 217.007 197.774 214.347 197.433C213.717 197.419 213.117 197.169 212.673 196.736C211.925 195.812 212.923 194.433 214.068 194.006C215.264 193.785 216.431 193.437 217.547 192.968L217.591 192.954Z" fill="#C6D1CF"/>
<path d="M215.918 314.136C216.308 313.745 216.827 313.499 217.386 313.439C217.76 313.482 218.108 313.645 218.375 313.903C218.641 314.161 218.81 314.499 218.854 314.861C218.93 315.565 218.834 316.276 218.575 316.938C217.43 320.677 204.497 347.681 201.531 342.832C199.77 339.988 204.086 330.475 205.363 327.787C207.804 322.542 211.408 317.881 215.918 314.136V314.136Z" fill="#C6D1CF"/>
<path d="M209.62 189.569C209.62 189.569 208.842 183.014 210.486 182.459" stroke="#263238" stroke-linecap="round" stroke-linejoin="round"/>
<path d="M208.24 182.701C209.062 180.381 210.499 178.311 212.409 176.7C214.45 175.278 217.709 175.164 219.191 177.141C220.85 179.345 219.191 182.687 216.652 183.867C214.112 185.047 211.132 184.692 208.343 184.308C208.343 183.91 208.343 183.511 208.343 183.113L208.24 182.701Z" fill="#C6D1CF"/>
<path d="M23.0518 344.979V204.472" stroke="#263238" stroke-linecap="round" stroke-linejoin="round"/>
<path d="M475.93 344.979H458.006" stroke="#263238" stroke-linecap="round" stroke-linejoin="round"/>
<path d="M616.491 344.979H579.982" stroke="#263238" stroke-linecap="round" stroke-linejoin="round"/>
<path d="M456.361 131.523H521.056V71.8276" stroke="#263238" stroke-linecap="round" stroke-linejoin="round"/>
<path d="M79.2909 113.293H148.023V161.854H223.36" stroke="#263238" stroke-linecap="round" stroke-linejoin="round"/>
<path d="M38.7448 277.747V170.443" stroke="#263238" stroke-linecap="round" stroke-linejoin="round"/>
<path d="M69.4553 123.873V207.97" stroke="#263238" stroke-linecap="round" stroke-linejoin="round"/>
<path d="M100.151 123.873V198.215" stroke="#263238" stroke-linecap="round" stroke-linejoin="round"/>
<path d="M130.847 123.873V253.915" stroke="#263238" stroke-linecap="round" stroke-linejoin="round"/>
<path d="M277.897 105.429V19.9246H402.867V105.429" stroke="#263238" stroke-linecap="round" stroke-linejoin="round"/>
<path d="M287.057 62.3997V30.0776H310.163" stroke="#263238" stroke-linecap="round" stroke-linejoin="round"/>
<path d="M315.243 62.3997V30.0776H338.349" stroke="#263238" stroke-linecap="round" stroke-linejoin="round"/>
<path d="M343.428 62.3997V30.0776H366.534" stroke="#263238" stroke-linecap="round" stroke-linejoin="round"/>
<path d="M371.614 62.3997V30.0776H394.72" stroke="#263238" stroke-linecap="round" stroke-linejoin="round"/>
<path d="M287.057 105.429V73.1074H310.163" stroke="#263238" stroke-linecap="round" stroke-linejoin="round"/>
<path d="M315.243 105.429V73.1074H338.349" stroke="#263238" stroke-linecap="round" stroke-linejoin="round"/>
<path d="M343.428 105.429V73.1074H366.534" stroke="#263238" stroke-linecap="round" stroke-linejoin="round"/>
<path d="M371.614 105.429V73.1074H394.72" stroke="#263238" stroke-linecap="round" stroke-linejoin="round"/>
<path d="M531.068 79.2219V186.37" stroke="#263238" stroke-linecap="round" stroke-linejoin="round"/>
<path d="M576.444 337.13H579.982" stroke="#263238" stroke-linecap="round" stroke-linejoin="round"/>
<path d="M558.27 109.994V229.954" stroke="#263238" stroke-linecap="round" stroke-linejoin="round"/>
<path d="M585.487 306.5V337.13H607.198" stroke="#263238" stroke-linecap="round" stroke-linejoin="round"/>
<path d="M585.487 149.099V230.565" stroke="#263238" stroke-linecap="round" stroke-linejoin="round"/>
<path d="M612.689 210.913V337.13H617.636" stroke="#263238" stroke-linecap="round" stroke-linejoin="round"/>
<path d="M281.185 347.553H0.796936V523.967H281.185V347.553Z" fill="white" stroke="#263238" stroke-linecap="round" stroke-linejoin="round"/>
<path d="M0.796936 347.553L140.991 435.76L281.185 347.553H0.796936Z" fill="white" stroke="#263238" stroke-linecap="round" stroke-linejoin="round"/>
<path d="M98.8447 409.24L0.796936 523.966" stroke="#263238" stroke-linecap="round" stroke-linejoin="round"/>
<path d="M183.901 409.24L281.948 523.966" stroke="#263238" stroke-linecap="round" stroke-linejoin="round"/>
<path d="M431.229 122.451H366.05C364.173 122.453 362.33 122.942 360.714 123.867C359.098 124.792 357.768 126.12 356.86 127.712V127.712C355.259 130.512 352.912 132.846 350.065 134.471C347.218 136.096 343.973 136.953 340.668 136.953C337.364 136.953 334.119 136.096 331.272 134.471C328.424 132.846 326.078 130.512 324.476 127.712V127.712C323.576 126.099 322.243 124.753 320.618 123.814C318.992 122.875 317.135 122.38 315.243 122.38H250.137C248.35 122.357 246.575 122.676 244.915 123.317C243.256 123.959 241.742 124.911 240.462 126.119C239.182 127.328 238.16 128.768 237.455 130.359C236.75 131.95 236.375 133.66 236.352 135.391V491.488C236.403 494.983 237.882 498.316 240.467 500.755C243.051 503.195 246.529 504.541 250.137 504.499H431.229C434.839 504.541 438.318 503.195 440.905 500.756C443.491 498.317 444.974 494.984 445.028 491.488V135.462C444.978 131.965 443.496 128.629 440.909 126.19C438.321 123.75 434.84 122.405 431.229 122.451Z" fill="#C7CCDB"/>
<path d="M451.385 131.523C451.393 129.124 450.912 126.748 449.969 124.529C449.027 122.311 447.642 120.294 445.894 118.596C444.145 116.897 442.068 115.549 439.781 114.629C437.494 113.709 435.042 113.236 432.565 113.236H248.816C246.345 113.234 243.898 113.704 241.615 114.619C239.331 115.533 237.257 116.875 235.509 118.566C233.761 120.258 232.375 122.267 231.429 124.478C230.483 126.689 229.996 129.059 229.996 131.452V131.452V505.708C229.996 510.539 231.977 515.173 235.504 518.589C239.03 522.005 243.813 523.924 248.801 523.924H432.565C437.554 523.924 442.339 522.005 445.868 518.59C449.396 515.174 451.381 510.541 451.385 505.708V505.708V131.523ZM445.028 491.488C444.974 494.984 443.491 498.317 440.905 500.756C438.318 503.195 434.839 504.541 431.229 504.499H250.137C246.529 504.541 243.051 503.195 240.466 500.755C237.882 498.316 236.403 494.983 236.352 491.488V135.462C236.375 133.731 236.75 132.021 237.455 130.43C238.16 128.839 239.182 127.399 240.462 126.191C241.742 124.982 243.256 124.03 244.915 123.388C246.575 122.747 248.35 122.428 250.137 122.451H315.272C317.162 122.45 319.018 122.946 320.641 123.885C322.264 124.823 323.595 126.171 324.491 127.783V127.783C326.093 130.583 328.439 132.917 331.286 134.542C334.134 136.167 337.378 137.024 340.683 137.024C343.988 137.024 347.232 136.167 350.08 134.542C352.927 132.917 355.273 130.583 356.875 127.783C357.78 126.189 359.11 124.86 360.727 123.934C362.343 123.009 364.187 122.521 366.065 122.522H431.244C433.031 122.499 434.805 122.818 436.465 123.46C438.125 124.101 439.638 125.053 440.918 126.262C442.198 127.47 443.22 128.911 443.925 130.501C444.631 132.092 445.005 133.802 445.028 135.533V491.488Z" fill="#263238"/>
<path opacity="0.2" d="M388.951 113.293L266.887 523.952L315.36 523.91L432.903 113.293H388.951Z" fill="white"/>
<path opacity="0.2" d="M370.748 113.293L241.696 523.967L248.757 523.924L375.387 113.293H370.748Z" fill="white"/>
<path d="M373.61 418.582C373.7 422.653 372.949 426.7 371.399 430.484C369.85 434.269 367.535 437.715 364.589 440.62C361.644 443.525 358.128 445.829 354.25 447.398C350.371 448.966 346.207 449.767 342.004 449.752C333.428 449.721 325.204 446.444 319.088 440.62C312.972 434.796 309.448 426.888 309.268 418.582C309.18 414.513 309.933 410.468 311.483 406.684C313.033 402.901 315.349 399.457 318.294 396.554C321.239 393.65 324.754 391.347 328.632 389.78C332.51 388.212 336.672 387.412 340.874 387.426C349.449 387.454 357.672 390.728 363.789 396.55C369.906 402.371 373.43 410.278 373.61 418.582V418.582Z" fill="white" stroke="#263238" stroke-linecap="round" stroke-linejoin="round"/>
<path d="M330.891 441.846C327.903 440.775 325.164 439.142 322.832 437.04C320.481 434.852 318.661 432.185 317.503 429.233C316.184 425.923 315.531 422.4 315.58 418.852C315.562 415.828 316.114 412.825 317.21 409.993C318.206 407.377 319.699 404.965 321.614 402.883C325.387 398.885 330.261 396.013 335.662 394.607C338.314 393.915 341.049 393.566 343.795 393.569C346.076 393.559 348.349 393.822 350.563 394.351C352.699 394.859 354.743 395.679 356.625 396.783C358.489 397.867 360.159 399.236 361.573 400.836C363.045 402.561 364.171 404.538 364.89 406.666C365.713 409.093 366.12 411.634 366.094 414.188C366.063 419.125 364.227 423.891 360.912 427.64C359.486 429.206 357.799 430.528 355.921 431.551C354.301 432.451 352.473 432.94 350.607 432.973C349.318 432.989 348.059 432.594 347.025 431.849C346.506 431.477 346.083 430.993 345.79 430.435C345.497 429.877 345.342 429.261 345.337 428.636C344.373 430.054 343.052 431.21 341.497 431.994C339.943 432.778 338.207 433.164 336.455 433.115C335.077 433.174 333.703 432.935 332.433 432.413C331.163 431.891 330.029 431.101 329.115 430.1C327.282 428.037 326.314 425.384 326.399 422.663C326.411 420.424 326.813 418.203 327.588 416.094C328.36 413.968 329.453 411.964 330.833 410.15C332.207 408.366 333.959 406.888 335.971 405.813C337.982 404.713 340.253 404.14 342.562 404.149C344.167 404.133 345.751 404.504 347.172 405.229C348.55 405.941 349.668 407.049 350.372 408.401L350.665 407.448C350.899 406.781 351.397 406.23 352.05 405.919C352.702 405.607 353.455 405.558 354.145 405.784C354.411 405.872 354.663 405.996 354.893 406.154C355.112 406.323 355.286 406.54 355.401 406.787C355.516 407.035 355.568 407.305 355.554 407.576C355.554 407.842 355.51 408.106 355.422 408.358L350.665 423.687C350.246 424.855 349.975 426.068 349.858 427.299C349.814 427.529 349.83 427.765 349.903 427.988C349.976 428.211 350.104 428.412 350.277 428.575C350.45 428.738 350.661 428.858 350.893 428.923C351.124 428.988 351.369 428.997 351.605 428.948C353.288 428.844 354.865 428.116 356.009 426.915C357.595 425.396 358.813 423.555 359.576 421.526C360.487 419.308 360.955 416.944 360.956 414.558C360.975 412.457 360.659 410.365 360.017 408.358C359.477 406.627 358.622 405.004 357.492 403.566C356.421 402.256 355.125 401.135 353.66 400.252C352.2 399.36 350.605 398.693 348.933 398.276C347.218 397.839 345.451 397.619 343.678 397.622C341.428 397.625 339.19 397.931 337.028 398.532C334.801 399.143 332.679 400.068 330.73 401.276C328.765 402.477 326.986 403.942 325.445 405.628C323.858 407.403 322.624 409.447 321.805 411.657C320.882 414.063 320.42 416.612 320.439 419.179C320.391 422.219 320.96 425.239 322.113 428.067C323.107 430.515 324.675 432.705 326.693 434.466C328.643 436.105 330.894 437.374 333.328 438.206C335.897 439.086 338.604 439.528 341.329 439.514C344.241 439.514 347.136 439.087 349.917 438.248C350.194 438.152 350.488 438.104 350.783 438.106C351.058 438.102 351.331 438.154 351.584 438.26C351.837 438.365 352.065 438.521 352.251 438.718C352.438 438.906 352.585 439.129 352.683 439.373C352.782 439.617 352.829 439.878 352.823 440.14C352.859 440.553 352.738 440.965 352.485 441.3C352.231 441.634 351.861 441.869 351.443 441.96C347.979 442.986 344.379 443.522 340.756 443.552C337.39 443.548 334.051 442.97 330.891 441.846V441.846ZM343.017 427.1C344.469 426.09 345.545 424.654 346.085 423.004L349.153 412.553L348.948 412.126C348.757 411.784 348.525 411.464 348.258 411.173C347.89 410.762 347.487 410.382 347.054 410.036C346.504 409.611 345.884 409.279 345.219 409.055C343.482 408.467 341.58 408.533 339.89 409.24C338.965 409.619 338.115 410.154 337.38 410.818C336.616 411.508 335.936 412.281 335.354 413.122C334.771 413.996 334.279 414.925 333.886 415.894C333.474 416.864 333.154 417.868 332.932 418.895C332.71 419.871 332.597 420.867 332.594 421.867C332.581 422.509 332.621 423.151 332.712 423.787C332.78 424.352 332.907 424.91 333.093 425.45C333.254 425.953 333.487 426.432 333.783 426.872C334.049 427.269 334.387 427.616 334.782 427.896C335.202 428.191 335.675 428.408 336.176 428.536C336.762 428.702 337.371 428.779 337.982 428.764C339.819 428.786 341.611 428.215 343.076 427.142L343.017 427.1Z" fill="#C7CCDB" stroke="#263238" stroke-linecap="round" stroke-linejoin="round"/>
<path d="M372.891 311.747C372.979 315.817 372.226 319.862 370.676 323.645C369.126 327.428 366.81 330.873 363.865 333.776C360.92 336.679 357.405 338.982 353.527 340.55C349.649 342.117 345.487 342.918 341.285 342.903C332.71 342.876 324.486 339.601 318.37 333.78C312.253 327.959 308.728 320.052 308.548 311.747C308.456 307.676 309.207 303.629 310.755 299.843C312.304 296.057 314.619 292.61 317.565 289.705C320.51 286.8 324.027 284.496 327.907 282.928C331.786 281.36 335.951 280.561 340.154 280.577C348.731 280.609 356.954 283.886 363.071 289.71C369.187 295.533 372.711 303.442 372.891 311.747V311.747Z" fill="white" stroke="#263238" stroke-linecap="round" stroke-linejoin="round"/>
<path d="M360.912 308.903C350.827 302.504 331.053 302.504 321.437 308.903C319.679 309.223 318.098 310.144 316.982 311.499C315.866 312.853 315.291 314.552 315.36 316.283C315.507 320.421 333.255 320.421 333.108 316.283C333.022 314.553 332.339 312.901 331.17 311.591C337.827 310.197 344.714 310.197 351.37 311.591C350.287 312.925 349.725 314.587 349.785 316.283C349.931 320.421 367.679 320.421 367.518 316.283C367.435 314.513 366.737 312.821 365.538 311.482C364.34 310.143 362.71 309.234 360.912 308.903V308.903Z" fill="#C7CCDB" stroke="#263238" stroke-linecap="round" stroke-linejoin="round"/>
<path d="M372.891 207.97C373.067 215.634 368.751 222.488 361.822 227.053V245.667L348.038 232.3C345.809 232.686 343.549 232.876 341.285 232.869C323.522 232.869 308.857 221.72 308.548 207.97C308.24 194.219 322.377 183.085 340.154 183.085C357.932 183.085 372.656 194.29 372.891 207.97Z" fill="white" stroke="#263238" stroke-linecap="round" stroke-linejoin="round"/>
<path d="M327.016 207.97C327.019 208.769 326.777 209.551 326.32 210.217C325.864 210.883 325.214 211.403 324.452 211.711C323.691 212.019 322.852 212.101 322.042 211.947C321.233 211.792 320.489 211.409 319.904 210.845C319.319 210.28 318.921 209.561 318.759 208.777C318.597 207.993 318.679 207.181 318.994 206.442C319.309 205.703 319.843 205.072 320.529 204.627C321.215 204.183 322.022 203.946 322.847 203.946C323.95 203.946 325.008 204.369 325.79 205.123C326.571 205.878 327.012 206.901 327.016 207.97V207.97Z" fill="#C7CCDB" stroke="#263238" stroke-linecap="round" stroke-linejoin="round"/>
<path d="M344.852 207.97C344.855 208.769 344.613 209.551 344.157 210.217C343.7 210.883 343.05 211.403 342.289 211.711C341.527 212.019 340.688 212.101 339.879 211.947C339.069 211.792 338.325 211.409 337.74 210.845C337.156 210.28 336.757 209.561 336.595 208.777C336.433 207.993 336.515 207.181 336.83 206.442C337.145 205.703 337.679 205.072 338.365 204.627C339.051 204.183 339.858 203.946 340.683 203.946C341.786 203.946 342.844 204.369 343.626 205.123C344.407 205.878 344.848 206.901 344.852 207.97V207.97Z" fill="#C7CCDB" stroke="#263238" stroke-linecap="round" stroke-linejoin="round"/>
<path d="M362.688 207.97C362.691 208.769 362.449 209.551 361.993 210.217C361.536 210.883 360.886 211.403 360.125 211.711C359.363 212.019 358.525 212.101 357.715 211.947C356.905 211.792 356.161 211.409 355.576 210.845C354.992 210.28 354.593 209.561 354.431 208.777C354.269 207.993 354.351 207.181 354.666 206.442C354.981 205.703 355.515 205.072 356.201 204.627C356.887 204.183 357.694 203.946 358.519 203.946C359.622 203.946 360.681 204.369 361.462 205.123C362.243 205.878 362.684 206.901 362.688 207.97V207.97Z" fill="#C7CCDB" stroke="#263238" stroke-linecap="round" stroke-linejoin="round"/>
<path d="M160.97 264.722C160.449 265.661 159.698 266.462 158.783 267.054C152.011 272.287 145.082 277.307 137.996 282.113C135.398 283.876 132.697 285.696 130.186 287.673C115.095 297.456 124.314 299.845 115.095 320.55C112.923 325.498 113.319 349.743 113.319 349.743H112.57C110.803 348.054 108.925 346.477 106.948 345.022V345.022C106.675 344.844 106.391 344.683 106.097 344.539V344.539C105.821 344.401 105.523 344.31 105.216 344.269C103.748 344.183 98.1547 344.837 92.5029 344.482L91.0349 344.368C90.2128 344.283 89.4054 344.183 88.598 344.041C87.7906 343.899 87.0126 343.742 86.2639 343.543C80.9004 341.877 75.641 339.912 70.5123 337.656V337.656L67.958 336.59L66.6955 336.064L65.5504 335.58L64.7283 335.239L63.9356 334.912C62.5997 334.371 61.352 333.874 60.2069 333.49C59.682 333.307 59.148 333.151 58.6068 333.021C58.6068 334.187 58.416 335.381 58.2545 336.547C57.5498 342.107 55.9791 347.241 53.1752 347.923C53.1174 347.938 53.0568 347.938 52.999 347.923C52.7521 347.968 52.5016 347.992 52.2503 347.994H52.0301C51.409 347.982 50.7941 347.872 50.2098 347.667V347.667C47.6651 346.615 45.5856 344.727 44.3378 342.335C43.7802 341.326 43.4689 340.207 43.4277 339.064C43.4277 334.926 42.2386 310.51 42.2386 303.4C42.2386 296.29 43.7066 283.848 47.3619 279.226C48.7904 277.267 50.5946 275.592 52.6761 274.292C55.3544 272.129 58.4263 270.47 61.7336 269.4C65.6385 268.163 74.3731 265.006 80.4653 262.774L71.261 266.215C73.5951 270.083 78.6009 276.169 87.6291 276.951C96.1142 277.648 101.37 270.211 104.056 264.779C104.291 264.864 119.059 262.148 122.479 262.305C133.622 262.774 142.709 256.929 146.819 254.612C148.059 253.894 149.45 253.457 150.889 253.333C152.327 253.21 153.776 253.403 155.127 253.898C156.478 254.393 157.696 255.177 158.69 256.192C159.684 257.207 160.428 258.426 160.868 259.759V259.887C161.51 261.433 161.546 263.152 160.97 264.722V264.722Z" fill="#C6D1CF" stroke="#263238" stroke-linecap="round" stroke-linejoin="round"/>
<path d="M103.895 264.864L103.219 264.636L103.895 264.864Z" fill="white" stroke="#263238" stroke-linecap="round" stroke-linejoin="round"/>
<path d="M116.417 356C116.424 356.057 116.424 356.114 116.417 356.171C116.357 356.308 116.266 356.431 116.151 356.53C116.036 356.629 115.9 356.701 115.752 356.742C115.604 356.783 115.448 356.791 115.296 356.766C115.145 356.741 115.001 356.683 114.875 356.597C114.2 356.228 113.158 353.853 113.158 353.853L111.998 352.687L111.235 351.905C111.352 352.189 112.277 354.365 111.792 355.374C111.768 355.444 111.728 355.507 111.675 355.559C111.351 355.979 110.93 356.32 110.445 356.554C109.961 356.789 109.427 356.911 108.886 356.91V356.91C108.255 356.91 106.405 357.123 104.79 357.223H104.614C104.125 357.249 103.635 357.249 103.146 357.223C101.843 357.061 100.585 356.65 99.4466 356.014C96.8641 355.647 94.3197 355.062 91.8423 354.265L91.4019 354.038L91.0056 353.81C90.7449 353.658 90.5035 353.476 90.2862 353.27C89.3916 352.548 88.6319 351.682 88.0402 350.71V350.71C88.0402 350.71 82.0801 350.468 74.0795 349.871C71.1435 349.658 67.9726 349.388 64.6843 349.075C59.6344 348.577 55.4653 348.606 52.1916 348.165H51.9568C51.3108 348.079 50.709 347.966 50.1364 347.838C48.7393 347.573 47.4473 346.933 46.4088 345.989C45.3702 345.046 44.627 343.839 44.2644 342.505C44.0722 341.874 43.9154 341.233 43.7947 340.586L46.349 336.32C47.6803 335.285 49.165 334.451 50.753 333.845C53.2168 332.847 55.9373 332.604 58.5481 333.148C59.0892 333.279 59.6233 333.435 60.1482 333.618C61.2932 334.044 62.541 334.542 63.8769 335.04L64.6843 335.367L65.5064 335.708L66.6514 336.192C73.184 338.808 80.9791 342.178 86.1905 343.6C87.7558 343.997 89.3511 344.273 90.9615 344.425L92.4295 344.539C98.0813 344.894 103.66 344.24 105.142 344.325C106.625 344.411 110.251 347.752 112.57 349.814C113.202 350.383 113.76 350.852 114.141 351.137L114.317 351.279L114.45 351.393C115.29 352.228 115.879 353.271 116.152 354.407C116.152 354.407 116.152 354.407 116.152 354.407C116.268 354.788 116.347 355.179 116.387 355.573C116.414 355.714 116.424 355.857 116.417 356V356Z" fill="white" stroke="#263238" stroke-linecap="round" stroke-linejoin="round"/>
<path d="M116.417 356C116.424 356.057 116.424 356.114 116.417 356.171C116.356 356.307 116.264 356.428 116.148 356.526C116.032 356.623 115.895 356.694 115.748 356.734C115.6 356.773 115.445 356.78 115.294 356.754C115.143 356.728 115 356.67 114.875 356.583C114.149 355.767 113.569 354.84 113.158 353.839L111.998 352.687L111.235 351.919C111.337 352.146 112.292 354.365 111.807 355.389C111.782 355.458 111.742 355.521 111.69 355.573C111.527 355.783 111.34 355.974 111.132 356.142C110.499 356.635 109.712 356.905 108.9 356.91V356.91C108.255 356.91 106.42 357.109 104.819 357.223H104.614C104.125 357.249 103.635 357.249 103.146 357.223C101.85 357.055 100.6 356.65 99.4612 356.028C96.8788 355.654 94.3346 355.064 91.857 354.265L91.4313 354.066L91.0349 353.839C90.7811 353.677 90.5406 353.496 90.3156 353.298C89.4079 352.57 88.6379 351.694 88.0402 350.71V350.71C88.0402 350.71 82.2563 350.469 74.4171 349.886C71.4811 349.672 68.0901 349.388 64.6843 349.061C60.0454 348.62 56.2139 348.492 53.1165 348.023L52.1623 347.852L51.0613 347.61C50.8074 345.868 50.9938 344.092 51.6044 342.434C52.1735 341.036 53.056 339.777 54.1882 338.749C55.3204 337.721 56.6742 336.95 58.1517 336.49V336.49C59.9854 335.837 61.8641 335.31 63.7741 334.912L64.5669 335.239L65.3889 335.58L66.534 336.064C73.184 338.837 80.891 342.192 86.1171 343.572C87.6812 343.971 89.2772 344.242 90.8881 344.382L92.3561 344.496C98.0079 344.866 103.586 344.212 105.069 344.297C106.552 344.382 110.163 347.71 112.409 349.772C112.919 350.243 113.453 350.689 114.009 351.108L114.185 351.236L114.317 351.35C115.174 352.174 115.766 353.221 116.02 354.365C116.136 354.746 116.214 355.136 116.255 355.531C116.33 355.68 116.385 355.837 116.417 356V356Z" fill="white" stroke="#263238" stroke-linecap="round" stroke-linejoin="round"/>
<path d="M98.8447 352.218C98.8447 352.218 102.177 353.895 103.498 354.479C104.819 355.062 104.702 357.408 104.702 357.408" fill="white"/>
<path d="M98.8447 352.218C98.8447 352.218 102.177 353.895 103.498 354.479C104.819 355.062 104.702 357.408 104.702 357.408" stroke="#263238" stroke-linecap="round" stroke-linejoin="round"/>
<path d="M102.412 349.942C104.508 351.392 106.527 352.944 108.46 354.592C108.742 354.913 108.927 355.305 108.991 355.722C109.056 356.139 108.999 356.565 108.827 356.953" fill="white"/>
<path d="M102.412 349.942C104.508 351.392 106.527 352.944 108.46 354.592C108.742 354.913 108.927 355.305 108.991 355.722C109.056 356.139 108.999 356.565 108.827 356.953" stroke="#263238" stroke-linecap="round" stroke-linejoin="round"/>
<path d="M111.191 351.89C109.454 350.088 107.616 348.379 105.686 346.771Z" fill="white"/>
<path d="M111.191 351.89C109.454 350.088 107.616 348.379 105.686 346.771" stroke="#263238" stroke-linecap="round" stroke-linejoin="round"/>
<path d="M103.88 264.893C101.223 270.31 95.9527 277.691 87.4677 277.051C78.4835 276.311 73.4336 270.182 71.0995 266.3C74.3291 265.106 77.6027 263.883 80.2892 262.859C80.2892 260.214 80.2011 257.043 79.9075 253.901C79.9075 253.218 79.7607 252.479 79.6873 251.839C79.6139 251.199 79.5258 250.744 79.4377 250.218H96.5106C96.5106 250.218 96.4078 250.872 96.2757 251.967C96.1729 252.948 96.0408 254.256 95.938 255.735C95.8059 257.697 95.7178 260.001 95.7766 262.177C96.5986 262.447 97.4354 262.745 98.2722 263.058L99.887 263.599C100.533 263.826 101.164 264.025 101.839 264.238L103.307 264.665C103.503 264.729 103.694 264.805 103.88 264.893V264.893Z" fill="white" stroke="#263238" stroke-linecap="round" stroke-linejoin="round"/>
<path d="M79.6873 251.782C79.6873 251.782 82.8728 259.802 87.497 261.167C92.1212 262.532 96.305 251.967 96.305 251.967C96.305 251.967 89.7871 258.707 87.3649 257.655C84.9427 256.602 79.7166 251.839 79.7166 251.839" fill="#263238"/>
<path d="M76.9421 207.486C72.6279 211.248 69.2072 215.872 66.9157 221.038C64.8164 225.304 63.0402 230.21 64.655 234.675C65.6213 236.892 66.9884 238.924 68.692 240.676C71.8628 244.359 76.3109 254.64 79.4818 258.323C79.6873 251.767 74.0208 241.173 74.6227 235.67C75.3517 231.419 76.7947 227.312 78.8946 223.512C81.0301 218.53 83.8229 213.836 87.2034 209.548C89.1265 207.301 95.3068 203.306 89.0678 202.822C84.928 202.495 80.069 204.998 76.9421 207.486Z" fill="#263238" stroke="#263238" stroke-linecap="round" stroke-linejoin="round"/>
<path d="M72.9491 229.84C72.9491 229.84 70.7618 225.731 68.4571 229.627C66.7982 232.471 69.1911 236.95 70.2187 238.614C70.5597 239.087 71.0215 239.467 71.5592 239.717C72.0969 239.966 72.6921 240.076 73.2868 240.036L72.9491 229.84Z" fill="white" stroke="#263238" stroke-linecap="round" stroke-linejoin="round"/>
<path d="M101.693 244.686C100.29 247.371 98.4621 249.828 96.2757 251.966L94.9545 253.289C92.224 255.905 89.2733 257.982 87.3356 257.555C85.6474 257.228 83.4454 255.55 81.2874 253.403C80.7442 252.877 80.2158 252.308 79.6873 251.739C77.3377 249.249 75.3205 246.483 73.6832 243.506C73.2283 242.389 72.9368 241.216 72.817 240.022C72.4466 236.46 72.3191 232.878 72.4354 229.3C72.4354 228.034 72.4354 227.025 72.4354 226.456C72.4354 223.981 82.0067 215.378 82.0067 215.378C82.2647 215.287 82.5418 215.257 82.8141 215.293C84.4603 215.583 86.0469 216.131 87.5117 216.914C93.3103 219.644 101.399 225.062 101.986 227.124C102.882 230.124 102.544 242.012 101.693 244.686Z" fill="white" stroke="#263238" stroke-linecap="round" stroke-linejoin="round"/>
<path d="M82.682 233.281C82.682 234.277 82.3003 235.087 81.8746 235.087C81.4489 235.087 81.0231 234.305 81.0231 233.281C81.0231 232.258 81.4048 231.447 81.8746 231.447C82.3443 231.447 82.682 232.286 82.682 233.281Z" fill="#263238"/>
<path d="M93.6186 231.461C94.0884 231.461 94.47 232.272 94.47 233.281C94.47 234.291 94.0884 235.087 93.6186 235.087C93.1488 235.087 92.7672 234.277 92.7672 233.281C92.7672 232.286 93.1488 231.461 93.6186 231.461Z" fill="#263238"/>
<path d="M77.221 228.802C77.221 228.802 78.689 225.958 83.8857 226.825" stroke="#263238" stroke-linecap="round" stroke-linejoin="round"/>
<path d="M98.4483 228.802C98.4483 228.802 96.9803 225.958 91.7836 226.825" stroke="#263238" stroke-linecap="round" stroke-linejoin="round"/>
<path d="M88.8329 240.235C89.3609 240.203 89.8642 240.007 90.2687 239.677C90.6731 239.347 90.9572 238.899 91.0789 238.401C91.0789 238.401 88.231 234.135 89.0971 229.954" stroke="#263238" stroke-linecap="round" stroke-linejoin="round"/>
<path d="M71.0995 219.886C69.9167 221.44 69.0225 223.182 68.4571 225.034" stroke="white" stroke-linecap="round" stroke-linejoin="round"/>
<path d="M83.3719 208.51C83.3719 208.51 81.7425 211.127 74.5639 216.459C74.1013 216.783 73.66 217.134 73.2427 217.512" stroke="white" stroke-linecap="round" stroke-linejoin="round"/>
<path d="M60.3537 291.882C59.3751 305.401 58.3964 318.929 57.4177 332.466V331.428" fill="#263238"/>
<path d="M60.3537 291.882C59.3751 305.401 58.3964 318.929 57.4177 332.466V331.428" stroke="#263238" stroke-linecap="round" stroke-linejoin="round"/>
<path d="M153.087 247.245C154.414 246.743 155.848 246.564 157.263 246.722C158.678 246.881 160.032 247.373 161.205 248.156C163.546 249.762 165.251 252.095 166.035 254.768C166.971 257.43 166.877 260.33 165.771 262.93C165.199 264.212 164.278 265.319 163.106 266.133C161.935 266.947 160.557 267.437 159.121 267.552C156.979 267.525 154.91 266.799 153.249 265.49C147.758 261.508 145.013 250.616 153.087 247.245Z" fill="white" stroke="#263238" stroke-linecap="round" stroke-linejoin="round"/>
<path d="M165.242 201.841C165.242 202.012 165.242 203.135 165.345 203.334C165.859 205.524 166.945 210.999 164.2 212.108C165.242 215.706 167.797 239.211 167.459 251.199C167.371 254.782 166.725 259.034 163.407 260.57C157.814 263.143 152.5 256.872 153.131 251.967C154.115 245.269 153.777 238.443 154.599 231.675C155.495 224.65 157.139 217.455 155.333 210.586C154.893 210.117 152.074 204.699 151.15 203.206C150.735 202.568 150.409 201.879 150.181 201.158C149.819 198.705 149.643 196.229 149.652 193.75C150.489 192.214 151.575 193.636 152.148 194.646C152.615 195.877 152.776 197.197 152.618 198.499C152.563 198.818 152.609 199.145 152.75 199.438C152.873 199.605 153.04 199.738 153.233 199.823C153.426 199.908 153.639 199.942 153.851 199.921C155.656 199.665 155.583 198.201 155.554 197.077C155.554 193.309 155.554 189.541 155.554 185.801C155.554 185.175 155.759 183.483 156.376 183.426C156.992 183.369 157.917 183.853 158.005 185.858C158.108 188.119 158.108 195.087 158.108 195.087C158.166 195.144 158.238 195.186 158.318 195.208C158.398 195.23 158.482 195.233 158.563 195.214C158.71 195.214 158.768 194.959 158.827 194.816C159.693 191.318 160.574 187.82 161.44 184.322C161.543 183.91 162.174 183.056 162.629 183.056C163.716 183.056 163.745 184.279 163.804 184.635C164.185 186.512 161.47 194.248 161.014 196.011C161.014 196.324 161.014 196.793 161.352 196.708L165.609 188.389C165.807 187.903 166.117 187.468 166.517 187.117C166.917 186.767 167.395 186.511 167.914 186.37C167.986 186.348 168.063 186.348 168.134 186.37C168.211 186.413 168.272 186.477 168.31 186.555C168.721 187.266 168.31 188.247 168.076 189.029C167.841 189.811 164.655 195.556 163.525 197.874C163.363 198.201 163.099 198.94 163.422 199.296C163.745 199.651 164.332 198.969 164.567 198.499C165.286 197.077 165.962 195.741 166.622 194.347C166.828 193.935 167.136 193.352 167.62 193.451C170.483 194.048 166.417 199.864 165.242 201.841Z" fill="white" stroke="#263238" stroke-linecap="round" stroke-linejoin="round"/>
<path d="M157.344 200.618C158.822 201.752 160.106 203.106 161.147 204.628C161.66 205.394 162.003 206.254 162.155 207.155C162.306 208.056 162.263 208.977 162.027 209.861C161.956 210.092 161.863 210.316 161.748 210.53" fill="white"/>
<path d="M157.344 200.618C158.822 201.752 160.106 203.106 161.147 204.628C161.66 205.394 162.003 206.254 162.155 207.155C162.306 208.056 162.263 208.977 162.027 209.861C161.956 210.092 161.863 210.316 161.748 210.53" stroke="#263238" stroke-linecap="round" stroke-linejoin="round"/>
<path d="M115.991 289.45C117.544 292.485 118.59 295.739 119.088 299.092C119.514 302.448 119.646 305.078 117.283 314.506" stroke="#263238" stroke-linecap="round" stroke-linejoin="round"/>
<path d="M82.8582 213.246C82.6572 213.827 82.6068 214.447 82.7114 215.051C82.9899 215.812 83.5022 216.472 84.1794 216.943C88.8714 220.926 94.1198 224.248 99.7695 226.811C100.478 226.99 101.092 227.419 101.492 228.013C101.891 228.608 102.046 229.325 101.927 230.025V241.017C102 242.151 101.886 243.288 101.59 244.387C100.768 246.947 98.9475 249.009 97.6263 251.369C96.2831 253.608 95.6025 256.161 95.6591 258.75C95.2921 256.034 105.098 250.772 107.755 240.079C108.122 238.571 115.756 229.599 111.176 219.062C106.772 208.951 99.8429 204.6 97.5088 204.074C95.9244 203.625 94.2525 203.548 92.6315 203.85C91.0105 204.152 89.4869 204.823 88.187 205.808C85.6218 207.659 83.7506 210.27 82.8582 213.246V213.246Z" fill="#263238" stroke="#263238" stroke-linecap="round" stroke-linejoin="round"/>
<path d="M92.4736 244.06C91.6368 244.231 90.7854 244.387 89.9339 244.487C86.9979 244.842 83.8564 244.402 81.9333 242.325C82.0801 244.188 83.4013 251.227 87.3502 251.426C91.2992 251.625 92.4736 244.06 92.4736 244.06Z" stroke="#263238" stroke-linecap="round" stroke-linejoin="round"/>
<path d="M88.6567 208.951C90.3499 212.674 93.0478 215.887 96.4665 218.251C98.9474 219.971 101.781 221.209 104.056 223.171C106.992 225.773 108.915 229.897 107.785 233.637" stroke="white" stroke-linecap="round" stroke-linejoin="round"/>
<path d="M119.338 266.4C116.51 268.599 114.647 271.754 114.127 275.231C113.62 278.234 114.002 281.316 115.228 284.118" stroke="#263238" stroke-linecap="round" stroke-linejoin="round"/>
<path d="M64.655 289.863C64.4201 293.588 62.0272 296.816 59.7078 299.817Z" fill="#263238"/>
<path d="M64.655 289.863C64.4201 293.588 62.0272 296.816 59.7078 299.817" stroke="#263238" stroke-linecap="round" stroke-linejoin="round"/>
<path d="M58.9297 318.345C60.0957 320.236 61.6564 321.871 63.5118 323.144C65.3672 324.417 67.4765 325.301 69.7049 325.74" stroke="#263238" stroke-linecap="round" stroke-linejoin="round"/>
<path d="M115.095 320.564C115.095 320.564 111.147 326.252 97.729 327.446" stroke="#263238" stroke-linecap="round" stroke-linejoin="round"/>
<path d="M508.152 270.723C508.152 270.723 456.993 286.08 447.363 273.951L448.669 212.079H456.435L465.566 255.664L507.492 248.227C507.492 248.227 512.865 264.352 508.152 270.723Z" fill="white"/>
<path d="M486.602 272.884C483.669 274.014 480.869 275.444 478.249 277.15C481.714 278.217 485.413 276.866 488.878 275.799C493.453 274.438 498.117 273.374 502.838 272.614C503.058 271.348 501.37 268.462 500.71 267.338C499.506 265.376 499.242 265.205 497.216 266.172C493.531 267.964 490.39 271.078 486.602 272.884Z" fill="#C6D1CF"/>
<path d="M508.152 270.723C508.152 270.723 456.993 286.08 447.363 273.951L448.669 212.079H456.435L465.566 255.664L507.492 248.227C507.492 248.227 512.865 264.352 508.152 270.723Z" stroke="#263238" stroke-linecap="round" stroke-linejoin="round"/>
<path d="M503.132 272.344L512.116 325.925C511.881 360.65 528.983 355.431 540.859 355.332C554.585 355.218 575.416 342.036 565.199 321.516L569.133 247.245L545.219 245.482C537.336 244.885 505.04 245.866 502.471 249.862C495.807 260.228 503.132 272.344 503.132 272.344Z" fill="white"/>
<path d="M504.541 276.766C509.877 296.318 522.673 313.181 540.346 323.948C538.432 323.655 536.564 323.134 534.782 322.398C532.99 321.65 530.981 321.544 529.115 322.099C528.665 322.257 528.251 322.499 527.897 322.811C527.543 323.124 527.256 323.501 527.053 323.921C526.85 324.341 526.734 324.796 526.713 325.259C526.691 325.722 526.765 326.185 526.928 326.621C527.356 327.288 527.94 327.848 528.631 328.257C531.546 330.241 534.733 331.821 538.1 332.949C535.147 332.656 532.164 332.877 529.292 333.603C528.763 336.078 531.611 337.869 533.857 339.078C537.441 341.125 540.509 343.918 542.841 347.255C534.959 347.271 527.083 347.708 519.25 348.563C518.218 348.787 517.138 348.688 516.168 348.279C515.151 347.546 514.468 346.46 514.259 345.25C512.514 339.334 511.499 333.238 511.235 327.091C511.088 323.635 511.235 320.151 510.765 316.724C510.387 314.022 509.868 311.341 509.209 308.69C506.929 298.433 505.182 288.095 503.969 277.676C503.425 277.719 504.541 276.766 504.541 276.766Z" fill="#C6D1CF"/>
<path d="M565.184 272.5C563.204 271.884 561.357 270.92 559.738 269.656C560.193 271.789 563.481 275.472 565.404 276.61C565.801 276.851 566.373 277.05 566.726 276.723C567.078 276.396 567.313 275.557 567.665 275.301L565.184 272.5Z" fill="#C6D1CF"/>
<path d="M503.132 272.344L512.116 325.925C511.881 360.65 528.983 355.431 540.859 355.332C554.585 355.218 575.416 342.036 565.199 321.516L569.133 247.245L545.219 245.482C537.336 244.885 505.04 245.866 502.471 249.862C495.807 260.228 503.132 272.344 503.132 272.344Z" stroke="#263238" stroke-linecap="round" stroke-linejoin="round"/>
<path d="M520.616 244.387C518.042 248.951 516.804 254.109 517.034 259.304C517.031 259.757 517.12 260.207 517.298 260.627C517.959 261.892 519.764 261.892 521.218 262.049C526.869 262.745 530.378 268.519 535.707 270.453C535.894 270.564 536.102 270.638 536.319 270.67C536.536 270.702 536.757 270.691 536.969 270.638C537.182 270.584 537.381 270.49 537.555 270.361C537.729 270.231 537.874 270.069 537.982 269.884C540.302 267.04 541.124 263.044 544.295 261.21C545.674 260.413 547.421 260.086 548.376 258.835C549.462 257.413 548.977 255.365 548.449 253.63C547.583 250.786 546.614 247.829 544.368 245.852C541.975 244.043 539.036 243.044 536 243.008C531.558 242.656 527.087 243.06 522.788 244.202C522.847 244.743 520.616 244.387 520.616 244.387Z" fill="#C6D1CF" stroke="#263238" stroke-linecap="round" stroke-linejoin="round"/>
<path d="M591.667 280.748C588.079 275.687 585.436 270.056 583.857 264.11C583.282 261.132 582.387 258.22 581.185 255.422C580.052 253.261 578.416 251.384 576.406 249.941C574.396 248.497 572.067 247.526 569.603 247.103C568.551 246.879 567.458 246.928 566.432 247.245C564.303 248.027 563.364 250.402 562.938 252.564C562.017 257.206 562.289 261.997 563.731 266.513C564.714 269.585 576.532 291.853 584.283 300.485C583.608 296.134 588.775 281.587 591.667 280.748Z" fill="white"/>
<path d="M568.487 276.382L575.739 289.621C576.781 291.512 577.956 293.532 579.982 294.356C578.707 289.982 577.982 285.475 577.824 280.933C577.903 278.65 577.631 276.369 577.016 274.164C576.723 274.406 576.414 273.382 576.414 273.382C576.091 273.965 575.24 273.979 574.579 273.851C569.838 272.884 566.579 268.789 563.76 264.978C563.394 266.254 563.335 267.596 563.59 268.898C563.844 270.2 564.405 271.428 565.228 272.486C565.228 272.486 568.252 275.941 568.487 276.382Z" fill="#C6D1CF"/>
<path d="M591.667 280.748C588.079 275.687 585.436 270.056 583.857 264.11C583.282 261.132 582.387 258.22 581.185 255.422C580.052 253.261 578.416 251.384 576.406 249.941C574.396 248.497 572.067 247.526 569.603 247.103C568.551 246.879 567.458 246.928 566.432 247.245C564.303 248.027 563.364 250.402 562.938 252.564C562.017 257.206 562.289 261.997 563.731 266.513C564.714 269.585 576.532 291.853 584.283 300.485C583.608 296.134 588.775 281.587 591.667 280.748Z" stroke="#263238" stroke-linecap="round" stroke-linejoin="round"/>
<path d="M581.479 296.674C573.581 282.013 577.398 248.227 577.163 242.795L587.586 242.254C588.628 242.254 593.458 271.064 596.746 283.023C599.682 293.915 596.864 304.936 591.667 304.936C587.351 304.936 583.138 299.76 581.479 296.674Z" fill="white" stroke="#263238" stroke-linecap="round" stroke-linejoin="round"/>
<path d="M487.366 258.607C494.706 248.227 509.107 247.402 509.107 247.402" stroke="#263238" stroke-linecap="round" stroke-linejoin="round"/>
<path d="M459.048 264.423C461.268 262.447 463.008 260.019 464.142 257.313Z" fill="white"/>
<path d="M459.048 264.423C461.268 262.447 463.008 260.019 464.142 257.313" stroke="#263238" stroke-linecap="round" stroke-linejoin="round"/>
<path d="M513.584 313.482C517.768 320.123 544.867 327.219 555.672 325.697" stroke="#263238" stroke-linecap="round" stroke-linejoin="round"/>
<path d="M521.247 332.224C529.053 333.525 537.054 333.23 544.735 331.357" stroke="#263238" stroke-linecap="round" stroke-linejoin="round"/>
<path d="M557.198 267.793L562.366 274.576C563.07 275.5 564.054 276.539 565.214 276.283" stroke="#263238" stroke-linecap="round" stroke-linejoin="round"/>
<path d="M595.601 525.09C595.146 526.896 594.999 529.043 596.335 530.394C597.671 531.745 599.609 531.716 601.414 531.688L607.624 531.574C610.019 531.69 612.412 531.327 614.656 530.508C615.778 530.085 616.739 529.339 617.408 528.37C618.078 527.401 618.424 526.256 618.399 525.09C618.246 524.188 617.949 523.315 617.518 522.502C616.961 521.336 616.403 520.156 615.86 518.99C609.004 504.357 598.537 513.259 595.601 525.09Z" fill="white" stroke="#263238" stroke-linecap="round" stroke-linejoin="round"/>
<path d="M586.852 507.841C587.069 514.557 586.488 521.275 585.12 527.863C584.797 529.356 585.12 531.617 586.588 531.475C587.163 531.389 587.686 531.1 588.056 530.664C593.451 525.509 597.311 519.039 599.227 511.936C599.515 511.199 599.65 510.413 599.622 509.624C599.594 508.836 599.405 508.06 599.066 507.343C598.663 506.768 598.168 506.259 597.598 505.836C592.621 501.982 586.397 498.157 586.852 507.841Z" fill="white" stroke="#263238" stroke-linecap="round" stroke-linejoin="round"/>
<path d="M569.808 335.964C569.808 335.964 577.545 348.989 579.204 352.018C580.862 355.047 615.904 399.655 622.627 432.134C623.89 438.305 598.038 507.329 598.038 507.329L592.166 504.115C592.166 504.115 596.247 441.163 595.249 435.93C594.251 430.698 568.458 392.076 568.458 392.076C568.458 392.076 554.057 381.823 548.126 369.907L569.808 335.964Z" fill="#263238"/>
<path d="M570.645 368.599C570.645 368.599 566.241 378.098 566.241 379.463C566.241 380.828 590.463 454.971 597.583 472.121C602.085 483.165 606.053 494.465 609.488 506.021C609.488 506.021 612.248 509.533 610.164 513.131C608.079 516.729 599.785 519.089 598.082 515.875C596.379 512.662 579.6 495.967 572.524 479.359C565.448 462.75 555.495 434.992 549.829 424.654C542.407 411.444 535.818 397.811 530.099 383.829C522.979 366.182 515.698 347.155 515.698 347.155C518.655 347.413 521.626 347.494 524.594 347.397C531.582 347.166 538.501 345.979 545.146 343.87C560.619 338.836 567.313 329.195 567.313 329.195C567.313 329.195 571.144 339.249 572.143 341.197L570.645 368.599Z" fill="#263238"/>
<path d="M620.043 438.49C618.527 441.007 616.487 443.191 614.054 444.903" stroke="white" stroke-linecap="round" stroke-linejoin="round"/>
<path d="M621.937 434.352C621.716 435.045 621.452 435.724 621.144 436.385" stroke="white" stroke-linecap="round" stroke-linejoin="round"/>
<path d="M556.655 346.444C560.56 352.957 564.215 362.328 563.628 369.836C563.313 371.2 562.82 372.518 562.16 373.761" stroke="white" stroke-linecap="round" stroke-linejoin="round"/>
<path d="M533.02 353.682C533.446 357.308 534.019 363.338 533.196 366.893C532.502 370.529 530.348 373.75 527.207 375.851" stroke="white" stroke-linecap="round" stroke-linejoin="round"/>
<path d="M566.315 339.96C567.167 340.989 567.86 342.134 568.37 343.358C569.364 345.117 570.73 346.651 572.38 347.862C574.03 349.073 575.925 349.932 577.941 350.383" stroke="white" stroke-linecap="round" stroke-linejoin="round"/>
<path d="M553.851 354.493C559.033 365.471 562.997 376.477 571.042 395.133" stroke="white" stroke-linecap="round" stroke-linejoin="round"/>
<path d="M551.091 348.876C551.532 349.729 551.958 350.582 552.383 351.435" stroke="white" stroke-linecap="round" stroke-linejoin="round"/>
<path d="M594.221 432.859C596.597 437.293 599.617 441.373 603.191 444.975" stroke="white" stroke-linecap="round" stroke-linejoin="round"/>
<path d="M596.673 436.954C598.228 443.912 601.068 450.541 605.055 456.521" stroke="white" stroke-linecap="round" stroke-linejoin="round"/>
<path d="M560.178 437.31C548.743 413.676 536.544 390.228 521.555 354.493" stroke="white" stroke-linecap="round" stroke-linejoin="round"/>
<path d="M562.762 444.178C562.483 443.353 562.189 442.529 561.881 441.69" stroke="white" stroke-linecap="round" stroke-linejoin="round"/>
<path d="M602.295 516.842C599.359 513.131 577.956 484.136 572.642 470.997C569.104 462.238 566.432 456.052 563.834 447.321" stroke="white" stroke-linecap="round" stroke-linejoin="round"/>
<path d="M594.221 461.043L604.394 490.009" stroke="white" stroke-linecap="round" stroke-linejoin="round"/>
<path d="M587.366 242.268L584.283 242.51C580.377 243.183 576.365 243.003 572.539 241.984C570.087 241.401 564.406 239.695 563.731 239.581C562.043 239.231 560.338 238.965 558.622 238.784C553.44 238.486 556.068 236.609 558.226 236.694C561.074 236.822 562.028 236.765 564.215 236.922C563.951 236.779 563.144 236.623 563.129 236.012C563.129 234.518 565.155 234.59 565.155 234.59C565.155 234.59 562.938 233.68 563.246 232.556C563.555 231.433 565.037 231.134 565.977 231.219C565.977 231.219 564.729 230.636 564.788 230.011C565.052 227.593 570.175 227.423 570.175 227.423C568.936 226.886 567.776 226.193 566.726 225.361C566.342 224.961 566.074 224.471 565.948 223.939C565.92 223.685 565.963 223.43 566.073 223.198C566.182 222.966 566.354 222.767 566.57 222.622C566.786 222.477 567.039 222.39 567.301 222.372C567.563 222.353 567.826 222.403 568.061 222.517C569.387 223.372 570.666 224.293 571.893 225.275C573.478 226.37 575.313 227.067 576.987 228.048C578.618 229.401 579.934 231.073 580.848 232.954C581.112 233.352 587.366 242.268 587.366 242.268Z" fill="white" stroke="#263238" stroke-linecap="round" stroke-linejoin="round"/>
<path d="M448.669 212.079V204.244C448.65 200.312 449.244 196.4 450.431 192.641C451.106 190.564 451.899 188.759 452.618 188.488C453.954 188.019 454.541 193.266 454.541 193.266C453.537 189.059 452.894 184.778 452.618 180.468C452.618 175.904 458.96 194.859 458.96 194.859L456.435 212.079H448.669Z" fill="white" stroke="#263238" stroke-linecap="round" stroke-linejoin="round"/>
<path d="M456.332 199.338C457.099 198.765 457.672 197.982 457.976 197.091Z" fill="white"/>
<path d="M456.332 199.338C457.099 198.765 457.672 197.982 457.976 197.091" stroke="#263238" stroke-linecap="round" stroke-linejoin="round"/>
<path d="M517.812 228.418C520.554 232.89 522.07 237.966 522.216 243.164C522.48 251.81 532.815 263.911 535.765 264.494C538.716 265.077 541.447 250.843 541.315 246.534C541.182 242.226 539.538 230.324 539.538 230.324C539.538 230.324 525.401 219.972 517.812 228.418Z" fill="white" stroke="#263238" stroke-linecap="round" stroke-linejoin="round"/>
<path d="M521.966 239.865C521.966 239.865 535.516 257.768 540.83 239.566C546.144 221.365 525.93 244.543 521.966 239.865Z" fill="#263238"/>
<path d="M544.838 226.996C544.118 237.619 539.113 243.591 533.343 244.643C528.073 245.582 520.366 240.377 516.52 232.656C516.226 232.471 511.543 229.328 510.428 228.56C509.845 228.165 509.37 227.64 509.043 227.028C508.715 226.416 508.546 225.737 508.549 225.048C508.586 224.387 508.827 223.752 509.24 223.225C509.654 222.698 510.221 222.302 510.868 222.09H511C511.661 221.951 512.35 222 512.982 222.232C512.013 218.606 511.221 214.923 510.619 211.212C510.898 202.68 513.819 195.712 523.214 195.03C532.609 194.347 540.463 199.438 540.83 203.107C541.094 205.951 542.049 213.473 542.9 221.251C543.135 223.271 544.999 224.607 544.838 226.996Z" fill="white" stroke="#263238" stroke-linecap="round" stroke-linejoin="round"/>
<path d="M540.83 214.71C540.83 214.71 534.782 212.022 535.809 220.754C536.015 222.474 539.318 225.02 539.318 225.02C539.318 225.02 538.467 227.593 536.896 227.593" fill="white"/>
<path d="M540.83 214.71C540.83 214.71 534.782 212.022 535.809 220.754C536.015 222.474 539.318 225.02 539.318 225.02C539.318 225.02 538.467 227.593 536.896 227.593" stroke="#263238" stroke-linecap="round" stroke-linejoin="round"/>
<path d="M529.145 217.696C529.145 217.696 526.062 215.876 523.948 216.999C522.846 217.464 521.907 218.23 521.247 219.204" fill="white"/>
<path d="M529.145 217.696C529.145 217.696 526.062 215.876 523.948 216.999C522.846 217.464 521.907 218.23 521.247 219.204" stroke="#263238" stroke-linecap="round" stroke-linejoin="round"/>
<path d="M527.383 222.73C527.618 223.782 527.383 224.721 526.752 224.849C526.121 224.977 525.504 224.209 525.284 223.157C525.064 222.104 525.284 221.166 525.93 221.038C526.576 220.91 527.163 221.664 527.383 222.73Z" fill="#263238"/>
<path d="M539.303 219.659C539.538 220.711 539.303 221.649 538.672 221.777C538.041 221.905 537.424 221.137 537.204 220.099C536.984 219.061 537.204 218.094 537.835 217.981C538.467 217.867 539.083 218.62 539.303 219.659Z" fill="#263238"/>
<path d="M509.914 200.191C508.84 201.21 508.096 202.51 507.771 203.931C506.891 206.938 506.637 210.084 507.023 213.186C507.408 216.289 508.426 219.286 510.017 222.005C510.995 221.888 511.987 221.927 512.953 222.119C513.98 222.374 515.302 224.081 515.786 224.963C516.211 225.902 516.454 226.91 516.505 227.935C516.27 225.233 516.05 222.545 515.815 219.843C515.658 218.763 515.708 217.664 515.962 216.601V216.601C516.681 214.383 515.889 209.15 516.094 204.472C522.186 211.681 531.039 210.401 533.975 210.16C538.379 209.804 542.137 205.438 541.902 202.324C541.667 199.21 540.801 191.19 526.282 190.365C523.084 190.036 519.859 190.687 517.063 192.228C516.177 192.794 515.424 193.535 514.855 194.402C514.286 195.27 513.913 196.245 513.76 197.262C513.555 198.57 514.068 198.684 513.041 199.324C512.013 199.964 510.927 199.352 509.914 200.191Z" fill="#263238" stroke="#263238" stroke-linecap="round" stroke-linejoin="round"/>
<path d="M529.145 232.599C529.145 232.599 531.303 234.902 535.81 233.381Z" fill="white"/>
<path d="M529.145 232.599C529.145 232.599 531.303 234.902 535.81 233.381" stroke="#263238" stroke-linecap="round" stroke-linejoin="round"/>
</svg>
