<svg width="899" height="932" viewBox="0 0 899 932" fill="none" xmlns="http://www.w3.org/2000/svg">
<path d="M631.078 99.7868L778.503 173.794C780.787 174.94 781.747 177.8 780.648 180.182L681.69 394.658C680.591 397.04 677.849 398.042 675.565 396.896L528.139 322.889C525.856 321.742 524.895 318.882 525.994 316.5L624.953 102.024C626.052 99.6421 628.794 98.6404 631.078 99.7868Z" fill="#A19E9E"/>
<path d="M633.427 106.842L771.742 176.276L675.93 383.934L537.614 314.5L633.427 106.842Z" fill="#FAFAFA"/>
<path d="M673.007 130.56C675.769 128.329 679.074 126.946 682.548 126.567C686.023 126.188 689.53 126.828 692.675 128.415L696.864 119.637C697.599 118.041 698.628 116.611 699.894 115.431C701.159 114.25 702.635 113.342 704.237 112.757C705.84 112.172 707.537 111.923 709.232 112.023C710.926 112.123 712.586 112.571 714.114 113.341C717.196 114.893 719.562 117.657 720.694 121.026C721.825 124.396 721.63 128.095 720.15 131.314L715.904 140.529L718.855 142.078C721.938 143.689 724.537 146.152 726.367 149.2C728.197 152.247 729.188 155.761 729.232 159.357V163.924L669.008 133.698L673.007 130.56ZM705.146 131.99C706.388 132.614 707.78 132.841 709.145 132.64C710.511 132.439 711.788 131.821 712.817 130.863C713.845 129.904 714.577 128.649 714.921 127.257C715.266 125.864 715.206 124.396 714.75 123.039C714.294 121.681 713.462 120.496 712.36 119.632C711.258 118.768 709.934 118.264 708.558 118.185C707.181 118.105 705.813 118.454 704.626 119.186C703.439 119.918 702.487 121.001 701.891 122.298C701.493 123.157 701.261 124.089 701.209 125.042C701.158 125.995 701.287 126.948 701.589 127.849C701.892 128.749 702.362 129.578 702.972 130.289C703.583 131 704.321 131.577 705.146 131.99Z" fill="#E3E3E3"/>
<path d="M706.898 179.932C706.784 180.19 715.066 184.619 725.424 189.862C735.782 195.105 744.274 199.077 744.464 198.819C744.654 198.56 736.296 194.132 725.938 188.889C715.58 183.645 707.012 179.673 706.898 179.932Z" fill="#A19E9E"/>
<path d="M723.272 196.276C726.054 198.241 729.013 199.917 732.107 201.281C735.055 202.954 738.155 204.317 741.36 205.352C738.574 203.397 735.616 201.721 732.526 200.348C729.578 198.675 726.478 197.311 723.272 196.276Z" fill="#A19E9E"/>
<path d="M626.683 170.419C626.568 170.677 649.835 182.633 678.662 197.091C707.488 211.549 730.946 223.087 731.06 222.909C731.174 222.73 707.907 210.715 679.081 196.237C650.254 181.759 626.797 170.16 626.683 170.419Z" fill="#A19E9E"/>
<path d="M621.903 180.726C621.77 180.984 645.056 192.92 673.864 207.398C702.671 221.876 726.147 233.395 726.281 233.216C726.414 233.037 703.128 221.022 674.302 206.544C645.475 192.066 622.018 180.547 621.903 180.726Z" fill="#A19E9E"/>
<path d="M617.105 191.192C616.991 191.45 640.258 203.386 669.085 217.864C697.911 232.342 721.368 243.861 721.483 243.682C721.597 243.503 698.33 231.488 669.504 217.01C640.677 202.532 617.22 190.934 617.105 191.192Z" fill="#A19E9E"/>
<path d="M612.307 201.579C612.193 201.837 635.46 213.773 664.287 228.231C693.113 242.689 716.57 254.228 716.685 254.049C716.799 253.87 693.551 241.855 664.705 227.377C635.86 212.899 612.441 201.321 612.307 201.579Z" fill="#A19E9E"/>
<path d="M607.528 211.946C607.395 212.204 630.681 224.16 659.488 238.618C688.296 253.076 711.772 264.615 711.906 264.436C712.039 264.257 688.753 252.242 659.926 237.764C631.1 223.286 607.643 211.688 607.528 211.946Z" fill="#A19E9E"/>
<path d="M602.73 222.432C602.616 222.69 625.883 234.626 654.709 249.104C683.536 263.582 706.993 275.101 707.107 274.922C707.222 274.743 683.955 262.728 655.128 248.25C626.302 233.772 602.844 222.075 602.73 222.432Z" fill="#A19E9E"/>
<path d="M650.597 257.902C651.188 258.376 651.826 258.782 652.501 259.113L658.099 262.152C662.782 264.595 669.275 267.931 676.472 271.546C683.669 275.16 690.238 278.378 694.998 280.681L700.71 283.343C701.391 283.697 702.106 283.976 702.843 284.177C702.255 283.697 701.616 283.291 700.939 282.965L695.417 280.006C690.733 277.563 684.221 274.227 677.024 270.612C669.827 266.998 663.277 263.781 658.517 261.477L652.805 258.835C652.109 258.43 651.367 258.117 650.597 257.902Z" fill="#A19E9E"/>
<path d="M634.032 142.237C636.61 144.116 639.374 145.701 642.276 146.964C645.001 148.515 647.872 149.766 650.844 150.698C648.294 148.846 645.562 147.281 642.695 146.031C639.948 144.443 637.043 143.171 634.032 142.237Z" fill="#A19E9E"/>
<path d="M663.887 292.438C668.171 295.165 672.623 297.594 677.215 299.707C681.671 302.132 686.276 304.249 691 306.043C686.714 303.319 682.262 300.891 677.672 298.774C673.214 296.35 668.609 294.234 663.887 292.438Z" fill="#A19E9E"/>
<path d="M658.632 301.395C662.992 304.162 667.521 306.63 672.188 308.783C676.713 311.251 681.388 313.407 686.183 315.238C681.823 312.47 677.294 310.002 672.626 307.85C668.092 305.402 663.418 303.247 658.632 301.395Z" fill="#A19E9E"/>
<path d="M585.918 251.547C587.858 253.092 589.991 254.355 592.258 255.3C594.381 256.549 596.654 257.498 599.017 258.12C594.957 255.32 590.55 253.109 585.918 251.547Z" fill="#A19E9E"/>
<path d="M581.539 259.809C583.485 261.345 585.616 262.607 587.879 263.562C590.006 264.816 592.286 265.765 594.657 266.382C592.717 264.837 590.584 263.574 588.317 262.629C586.194 261.364 583.913 260.415 581.539 259.809Z" fill="#A19E9E"/>
<path d="M666.705 317.76C668.571 319.26 670.628 320.483 672.816 321.394C674.876 322.597 677.078 323.512 679.366 324.115C677.503 322.605 675.446 321.374 673.254 320.461C671.205 319.242 668.999 318.333 666.705 317.76Z" fill="#A19E9E"/>
<path d="M576.531 269.48C579.39 271.672 582.62 273.283 586.051 274.227C583.192 272.035 579.962 270.425 576.531 269.48Z" fill="#A19E9E"/>
<path d="M669.884 346.775C669.884 346.775 669.713 346.617 669.351 346.358L667.752 345.246L661.602 341.115L639.496 326.657L639.059 326.359L638.868 326.856C637.83 329.661 637.749 332.754 638.64 335.614C639.101 337.214 639.915 338.678 641.018 339.889C642.121 341.1 643.482 342.024 644.99 342.587C646.498 343.149 648.111 343.334 649.7 343.127C651.289 342.919 652.809 342.326 654.138 341.393C655.516 340.282 656.549 338.772 657.107 337.052C657.666 335.331 657.726 333.477 657.28 331.722C656.954 330.366 656.298 329.121 655.376 328.107C655.158 327.844 654.916 327.604 654.652 327.392C654.395 327.147 654.107 326.94 653.796 326.776C653.591 326.66 653.362 326.599 653.129 326.599C652.896 326.599 652.667 326.66 652.463 326.776C652.138 327.002 651.88 327.319 651.72 327.69C650.563 329.959 649.912 332.47 649.816 335.038C649.681 337.507 650.051 339.978 650.901 342.287C651.635 344.59 653.073 346.579 654.995 347.947C655.972 348.555 657.094 348.865 658.232 348.84C659.37 348.815 660.478 348.458 661.431 347.808C663.21 346.65 664.554 344.891 665.239 342.823C666.118 339.139 666.118 335.286 665.239 331.602L665.124 330.848L664.629 331.424C662.611 333.823 661.348 336.811 661.012 339.983C660.731 342.353 660.945 344.758 661.64 347.034C662.082 348.449 662.723 349.788 663.544 351.006C663.761 351.318 663.996 351.617 664.248 351.899C664.42 352.098 664.496 352.197 664.515 352.177C663.407 350.571 662.558 348.786 662.002 346.895C661.384 344.671 661.228 342.335 661.545 340.043C661.921 337.013 663.169 334.174 665.124 331.9L664.534 331.702C665.372 335.257 665.372 338.97 664.534 342.525C663.894 344.385 662.665 345.962 661.05 346.994C660.238 347.556 659.289 347.865 658.315 347.886C657.341 347.907 656.381 347.639 655.547 347.113C653.808 345.842 652.512 344.016 651.853 341.91C651.06 339.686 650.725 337.313 650.87 334.945C651.014 332.577 651.635 330.268 652.691 328.167C652.787 327.983 652.917 327.822 653.072 327.69C653.136 327.652 653.208 327.631 653.281 327.631C653.355 327.631 653.427 327.652 653.491 327.69C653.96 327.97 654.378 328.333 654.728 328.762C655.506 329.659 656.056 330.745 656.328 331.92C656.722 333.478 656.67 335.122 656.18 336.65C655.689 338.178 654.781 339.523 653.567 340.52C652.36 341.364 650.981 341.901 649.539 342.089C648.097 342.276 646.633 342.108 645.264 341.598C643.896 341.088 642.661 340.251 641.66 339.153C640.658 338.055 639.917 336.727 639.496 335.277C638.663 332.628 638.724 329.762 639.668 327.154L639.04 327.372L661.335 341.592L667.619 345.564L669.294 346.577C669.481 346.671 669.68 346.738 669.884 346.775Z" fill="#A19E9E"/>
<path d="M571.029 296.708C571.046 297.343 571.149 297.971 571.333 298.575C571.526 299.318 571.821 300.027 572.209 300.68C572.756 301.591 573.602 302.262 574.589 302.567C575.205 302.794 575.877 302.794 576.493 302.567C577.121 302.292 577.667 301.846 578.073 301.276C578.854 300.063 579.566 298.803 580.206 297.503C581.634 294.762 583.233 291.743 584.928 288.486L584.071 288.288C584.223 292.836 584.395 297.801 584.566 303.004C584.566 304.255 584.661 305.467 584.699 306.678V308.664L585.556 306.817C588.165 301.237 590.583 296.013 592.715 291.465H591.915C593.115 295.993 593.724 300.67 593.724 305.367C593.724 308.763 593.515 310.69 593.724 310.71C593.863 310.258 593.952 309.792 593.991 309.32C594.163 308.002 594.271 306.676 594.314 305.348C594.484 300.603 593.983 295.859 592.829 291.267L592.544 290.115L592.049 291.187C589.878 295.715 587.422 300.899 584.775 306.46L585.708 306.658C585.708 305.447 585.613 304.235 585.575 302.984C585.366 297.781 585.175 292.816 585.004 288.268V286.481L584.204 288.05C582.529 291.326 580.987 294.385 579.597 297.126C579.026 298.411 578.391 299.664 577.693 300.879C577.412 301.357 576.994 301.73 576.499 301.948C576.004 302.165 575.456 302.215 574.932 302.091C574.173 301.814 573.491 301.347 572.947 300.73C572.402 300.114 572.011 299.367 571.809 298.555C571.589 297.922 571.328 297.305 571.029 296.708Z" fill="#A19E9E"/>
<path d="M571.2 289.261C571.029 289.499 578.816 295.358 588.736 302.349C598.656 309.339 606.691 314.801 606.843 314.563C606.995 314.324 599.227 308.466 589.307 301.495C579.387 294.524 571.39 289.042 571.2 289.261Z" fill="#A19E9E"/>
<path d="M561.566 291.009C565.637 295.324 569.934 299.401 574.437 303.223C578.734 307.297 583.247 311.116 587.955 314.662C583.889 310.341 579.592 306.263 575.084 302.448C570.796 298.362 566.282 294.543 561.566 291.009Z" fill="#A19E9E"/>
<path d="M206.47 389.455C214.295 409.91 226.842 443.077 232.593 458.17C233 459.234 233.202 460.371 233.187 461.517C233.172 462.662 232.941 463.794 232.505 464.845C232.07 465.897 231.44 466.849 230.651 467.646C229.862 468.443 228.93 469.07 227.909 469.49L174.33 491.753C173.308 492.179 172.215 492.391 171.114 492.376C170.013 492.361 168.925 492.119 167.914 491.666C166.902 491.212 165.986 490.555 165.219 489.731C164.451 488.908 163.846 487.935 163.439 486.868L137.45 418.788C135.63 414.007 135.703 408.669 137.652 403.945C139.601 399.22 143.267 395.494 147.845 393.585L144.037 383.655L179.109 369.078L182.727 378.551H182.86C187.383 376.833 192.369 377.009 196.771 379.042C201.173 381.074 204.649 384.806 206.47 389.455Z" fill="#5A5558"/>
<path d="M179.604 370.27L181.337 374.838L146.741 390.706L144.513 384.847L179.604 370.27Z" fill="#A19E9E"/>
<path d="M172.54 355.595L139.852 369.177C138.445 369.762 137.318 370.906 136.719 372.357C136.121 373.809 136.099 375.449 136.66 376.917L140.112 385.957C140.473 386.902 141.179 387.658 142.074 388.06C142.969 388.462 143.981 388.476 144.886 388.1L181.342 372.952C182.247 372.576 182.972 371.84 183.357 370.906C183.742 369.973 183.756 368.917 183.395 367.973L179.943 358.932C179.382 357.464 178.285 356.289 176.894 355.664C175.502 355.04 173.93 355.018 172.523 355.602L172.54 355.595Z" fill="#E3E3E3"/>
<path d="M179.223 373.904C178.551 370.722 177.549 367.625 176.234 364.669C175.231 361.584 173.923 358.615 172.331 355.812C173.003 358.994 174.005 362.091 175.32 365.047C176.323 368.132 177.631 371.101 179.223 373.904Z" fill="#A19E9E"/>
<path d="M174.616 375.831C173.932 372.649 172.923 369.553 171.607 366.596C170.605 363.51 169.296 360.542 167.704 357.738C168.393 360.916 169.395 364.01 170.693 366.973C171.694 370.063 173.009 373.033 174.616 375.831Z" fill="#A19E9E"/>
<path d="M169.989 377.737C169.3 374.56 168.298 371.465 167 368.502C165.989 365.423 164.674 362.461 163.078 359.665C163.766 362.842 164.768 365.937 166.067 368.9C167.059 371.987 168.374 374.951 169.989 377.737Z" fill="#A19E9E"/>
<path d="M165.362 379.664C164.676 376.485 163.674 373.39 162.373 370.429C161.372 367.339 160.058 364.369 158.451 361.571C159.134 364.75 160.135 367.846 161.44 370.806C162.453 373.891 163.768 376.859 165.362 379.664Z" fill="#A19E9E"/>
<path d="M160.736 381.59C160.053 378.411 159.051 375.315 157.746 372.355C156.752 369.263 155.436 366.293 153.824 363.498C154.515 366.677 155.523 369.772 156.833 372.732C157.84 375.816 159.148 378.784 160.736 381.59Z" fill="#A19E9E"/>
<path d="M156.128 383.497C155.45 380.316 154.448 377.22 153.139 374.262C152.138 371.181 150.83 368.219 149.235 365.424C149.913 368.605 150.915 371.701 152.225 374.659C153.225 377.739 154.533 380.702 156.128 383.497Z" fill="#A19E9E"/>
<path d="M151.482 385.423C150.804 382.242 149.802 379.146 148.493 376.188C147.485 373.104 146.177 370.136 144.59 367.331C145.262 370.513 146.264 373.609 147.579 376.565C148.582 379.651 149.89 382.62 151.482 385.423Z" fill="#A19E9E"/>
<path d="M146.875 387.27C146.191 384.089 145.182 380.993 143.866 378.035C142.863 374.949 141.555 371.981 139.963 369.178C140.646 372.357 141.648 375.452 142.952 378.412C143.947 381.505 145.262 384.475 146.875 387.27Z" fill="#A19E9E"/>
<path d="M152.826 423.216L197.86 404.504C199.306 403.903 200.945 404.638 201.521 406.146L212.682 435.371C213.258 436.879 212.553 438.589 211.107 439.19L166.073 457.902C164.627 458.502 162.988 457.767 162.412 456.259L151.251 427.034C150.675 425.526 151.38 423.816 152.826 423.216Z" fill="#E3E3E3"/>
<path d="M165.876 455.171C165.824 454.969 165.76 454.77 165.686 454.576L165.115 452.947C164.563 451.458 163.82 449.392 162.887 446.83L154.738 424.984L154.51 425.501L198.606 407.309L197.978 407.011V407.15L198.073 407.388L198.264 407.885L198.644 408.898L199.406 410.884L200.91 414.856C201.9 417.457 202.814 420.019 203.842 422.541L209.44 437.039L209.688 436.424L178.157 449.789L169.075 453.761L166.657 454.834L165.8 455.251C166.073 455.187 166.34 455.101 166.6 454.993L168.98 454.059L178.043 450.425L210.03 437.397L210.449 437.218L210.278 436.781C208.526 432.154 206.679 427.308 204.775 422.263C203.804 419.741 202.871 417.179 201.843 414.578C201.348 413.267 200.853 411.956 200.339 410.606L199.577 408.62L199.196 407.627L199.006 407.13L198.911 406.872V406.753L198.264 406.455L154.224 424.686L153.862 424.845L153.996 425.223C157.594 434.358 160.526 441.865 162.621 447.208C163.63 449.71 164.429 451.716 165.001 453.166C165.267 453.781 165.477 454.278 165.629 454.695C165.781 455.112 165.857 455.191 165.876 455.171Z" fill="#A19E9E"/>
<path d="M164.905 431.975C170.094 430.401 175.182 428.484 180.137 426.235C185.193 424.317 190.134 422.082 194.931 419.542C189.747 421.131 184.66 423.048 179.699 425.282C174.645 427.205 169.705 429.44 164.905 431.975Z" fill="#A19E9E"/>
<path d="M166.943 437.297C172.126 435.705 177.213 433.789 182.175 431.558C187.232 429.651 192.167 427.409 196.95 424.845C191.766 426.437 186.68 428.354 181.718 430.585C176.66 432.491 171.725 434.733 166.943 437.297Z" fill="#A19E9E"/>
<path d="M168.885 442.382C174.071 440.806 179.158 438.896 184.117 436.662C189.174 434.738 194.114 432.496 198.911 429.949C193.725 431.534 188.638 433.451 183.679 435.689C178.623 437.607 173.682 439.842 168.885 442.382Z" fill="#A19E9E"/>
<path d="M149.731 392.434C155.353 390.676 160.872 388.574 166.257 386.138C171.769 384.025 177.165 381.598 182.422 378.869C176.803 380.638 171.285 382.74 165.895 385.165C160.384 387.278 154.987 389.705 149.731 392.434Z" fill="#A19E9E"/>
<path d="M228.194 455.43C227.938 454.301 227.588 453.198 227.147 452.133C226.328 449.889 225.243 446.91 223.91 443.295C221.15 435.867 217.246 425.6 212.905 414.3C210.716 408.659 208.621 403.297 206.717 398.412C205.223 393.93 202.857 389.819 199.768 386.337C197.578 384.039 194.744 382.53 191.676 382.027C190.847 381.925 190.01 381.925 189.181 382.027C188.89 382.06 188.602 382.126 188.325 382.226C189.426 382.206 190.527 382.273 191.619 382.424C194.524 383.075 197.177 384.617 199.235 386.853C202.171 390.33 204.416 394.38 205.841 398.769L211.934 414.657C216.294 425.977 220.293 436.185 223.225 443.553C224.653 447.108 225.852 450.047 226.747 452.272C227.16 453.358 227.643 454.413 228.194 455.43Z" fill="white"/>
<path d="M167.99 491.376C168.744 490.847 169.451 490.249 170.103 489.589C170.751 488.993 171.55 488.258 172.521 487.464C173.492 486.669 174.559 485.696 175.834 484.763C178.738 482.498 181.764 480.41 184.897 478.507C188.754 476.203 192.755 474.172 196.874 472.43C201.022 470.747 205.27 469.347 209.592 468.239C213.125 467.357 216.704 466.694 220.312 466.253C221.854 466.015 223.263 465.955 224.482 465.856C225.7 465.757 226.767 465.677 227.642 465.657C228.548 465.662 229.452 465.589 230.346 465.439C229.454 465.279 228.547 465.219 227.642 465.26C226.583 465.201 225.522 465.201 224.463 465.26C223.206 465.26 221.797 465.26 220.236 465.518C216.584 465.841 212.958 466.425 209.383 467.266C205.004 468.321 200.702 469.702 196.512 471.397C192.349 473.161 188.314 475.238 184.44 477.613C181.295 479.579 178.274 481.755 175.396 484.127C174.14 485.12 173.112 486.113 172.16 486.967C171.208 487.821 170.446 488.576 169.837 489.231C169.155 489.881 168.536 490.6 167.99 491.376Z" fill="white"/>
<g filter="url(#filter0_d_1_1336)">
<path d="M587.001 675.095C587.001 675.095 641.789 713.916 644.794 804.541C645.796 834.943 631.482 931.736 631.482 931.736L311.058 933.082L370.989 673.648L471.8 649.535L587.001 675.095Z" fill="#FC1A2E"/>
<path d="M464.595 742.37L508.248 932.319L399.134 933.082L464.595 742.37Z" fill="#263238"/>
<path d="M466.252 701.237C465.907 703.288 465.714 705.364 465.674 707.446C465.423 711.626 465.115 716.77 464.768 722.476C464.422 728.183 464.229 733.669 464.152 737.507C464.021 739.59 464.067 741.681 464.287 743.756C464.631 741.705 464.824 739.629 464.865 737.547C465.115 733.387 465.423 728.223 465.77 722.537C466.117 716.85 466.309 711.344 466.367 707.486C466.509 705.404 466.47 703.312 466.252 701.237Z" fill="#263238"/>
<path d="M446.486 722.175C446.486 722.275 447.199 722.436 448.413 723.14C450.003 724.135 451.271 725.605 452.054 727.359C452.659 728.62 452.942 730.023 452.874 731.431C452.807 732.839 452.392 734.206 451.668 735.397C450.841 736.89 449.599 738.085 448.106 738.826C446.613 739.567 444.94 739.818 443.308 739.546C441.675 739.274 440.161 738.491 438.964 737.302C437.767 736.113 436.944 734.573 436.604 732.885C436.263 731.535 436.261 730.116 436.599 728.764C436.936 727.413 437.601 726.175 438.53 725.169C439.795 723.752 441.44 722.765 443.25 722.336C444.521 722.034 445.176 722.115 445.292 722.014C445.407 721.914 445.099 722.014 444.752 721.894C444.229 721.816 443.697 721.816 443.173 721.894C441.221 722.191 439.415 723.143 438.029 724.606C437.051 725.613 436.301 726.835 435.833 728.183C435.316 729.763 435.242 731.464 435.621 733.086C435.996 734.967 436.91 736.684 438.243 738.01C439.576 739.336 441.264 740.207 443.083 740.508C444.902 740.809 446.766 740.525 448.427 739.695C450.088 738.865 451.467 737.527 452.381 735.859C453.221 734.441 453.655 732.803 453.633 731.137C453.577 729.736 453.229 728.364 452.612 727.118C451.73 725.274 450.297 723.779 448.528 722.858C448.061 722.604 447.562 722.421 447.045 722.316C446.679 722.155 446.506 722.135 446.486 722.175Z" fill="#263238"/>
<path d="M411.56 825.88C411.56 825.88 412.273 826.162 413.486 826.845C415.071 827.843 416.332 829.312 417.108 831.065C417.714 832.325 417.996 833.728 417.929 835.136C417.861 836.545 417.446 837.911 416.723 839.102C415.895 840.595 414.653 841.791 413.16 842.532C411.668 843.272 409.995 843.523 408.362 843.251C406.73 842.979 405.215 842.197 404.018 841.007C402.821 839.818 401.998 838.278 401.658 836.591C401.319 835.24 401.319 833.821 401.656 832.47C401.993 831.119 402.657 829.881 403.585 828.874C404.843 827.459 406.481 826.471 408.285 826.041C409.576 825.74 410.327 825.82 410.327 825.72C410.157 825.641 409.973 825.6 409.788 825.599C409.27 825.531 408.745 825.531 408.227 825.599C406.267 825.9 404.455 826.86 403.064 828.332C402.088 829.329 401.344 830.545 400.887 831.889C400.352 833.465 400.278 835.172 400.676 836.792C401.036 838.681 401.943 840.41 403.274 841.745C404.605 843.08 406.296 843.958 408.12 844.26C409.944 844.563 411.813 844.274 413.475 843.435C415.137 842.595 416.513 841.244 417.416 839.565C418.273 838.155 418.709 836.511 418.669 834.842C418.621 833.44 418.272 832.066 417.648 830.824C416.765 828.979 415.332 827.484 413.563 826.564C413.094 826.315 412.595 826.133 412.08 826.021C411.914 825.949 411.739 825.902 411.56 825.88Z" fill="#263238"/>
<path d="M524.854 750.568C525.055 750.887 525.287 751.184 525.547 751.452C526.01 752.015 526.703 752.839 527.647 753.864C530.349 756.74 533.233 759.425 536.278 761.901C546.418 770.009 558.113 775.745 570.568 778.72C577.406 780.431 584.457 781.027 591.47 780.488C597.254 780.052 602.812 777.966 607.537 774.46C610.692 772.056 613.227 768.873 614.915 765.196C615.339 764.195 615.687 763.16 615.955 762.102C616.064 761.737 616.122 761.359 616.129 760.977C616.032 760.977 615.743 762.504 614.549 764.996C612.78 768.512 610.23 771.537 607.113 773.817C602.457 777.156 597.029 779.133 591.393 779.544C584.472 780.002 577.525 779.378 570.78 777.695C558.455 774.748 546.851 769.165 536.702 761.298C533.644 758.906 530.718 756.336 527.936 753.602L525.682 751.332C525.162 750.789 524.892 750.568 524.854 750.568Z" fill="#263238"/>
<path d="M524.854 769.376C525.055 769.695 525.287 769.992 525.547 770.26C526.01 770.823 526.703 771.667 527.647 772.692C539.364 785.103 554.268 793.721 570.568 797.508C577.405 799.225 584.456 799.829 591.47 799.296C597.252 798.851 602.808 796.766 607.537 793.268C610.695 790.875 613.231 787.698 614.915 784.025C615.342 783.018 615.69 781.976 615.955 780.91C616.066 780.546 616.124 780.167 616.129 779.785C616.032 779.785 615.743 781.312 614.549 783.804C612.781 787.327 610.231 790.358 607.113 792.645C602.455 795.977 597.028 797.947 591.393 798.352C584.472 798.82 577.523 798.197 570.78 796.503C558.46 793.554 546.857 787.978 536.702 780.126C533.643 777.728 530.717 775.152 527.936 772.41L525.682 770.14C525.436 769.852 525.158 769.596 524.854 769.376Z" fill="#263238"/>
<path d="M522.022 763.689C521.953 763.952 521.908 764.221 521.887 764.493C521.887 765.076 521.752 765.88 521.637 766.884C521.406 769.055 521.078 772.149 520.674 776.108C519.864 784.145 518.323 795.659 517.63 810.067C517.234 817.925 517.395 825.803 518.111 833.637C518.9 842.661 520.844 851.534 523.891 860.02C527.25 869.458 532.572 878.002 539.476 885.038C543.14 888.738 547.26 891.914 551.728 894.482C556.35 897.108 561.344 898.946 566.523 899.927C576.849 901.678 587.438 899.632 596.479 894.14C604.91 889.156 612.015 882.056 617.15 873.483C621.677 865.735 624.933 857.253 626.782 848.386C628.428 840.677 629.319 832.813 629.44 824.916C629.481 813.532 628.708 802.161 627.129 790.897C626.57 786.878 626.146 783.864 625.857 781.714C625.703 780.709 625.568 779.925 625.491 779.323C625.455 779.05 625.397 778.781 625.318 778.519C625.292 778.793 625.292 779.069 625.318 779.343C625.318 779.946 625.472 780.729 625.587 781.734C625.838 783.904 626.204 786.999 626.685 790.937C628.094 802.195 628.737 813.543 628.612 824.896C628.45 832.722 627.533 840.51 625.876 848.145C623.997 856.895 620.743 865.26 616.244 872.901C611.212 881.336 604.239 888.326 595.959 893.236C587.115 898.606 576.757 900.602 566.658 898.882C561.584 897.938 556.691 896.14 552.171 893.557C547.775 891.041 543.72 887.926 540.111 884.294C533.296 877.375 528.033 868.969 524.7 859.679C521.67 851.278 519.727 842.493 518.92 833.556C518.168 825.766 517.969 817.928 518.323 810.107C518.92 795.739 520.25 784.165 521.04 776.148C521.425 772.129 521.675 769.014 521.829 766.905C521.829 765.9 521.945 765.096 521.984 764.493C522.022 763.89 522.022 763.689 522.022 763.689Z" fill="#263238"/>
<g opacity="0.2">
<path opacity="0.4" d="M622.274 863.215C618.806 875.473 617.323 878.648 610.831 888.433C604.836 897.707 596.062 904.647 585.883 908.166C578.607 910.786 570.808 911.423 563.229 910.016C555.65 908.609 548.541 905.206 542.577 900.128C530.807 889.86 526.645 874.006 524.603 863.255C529.728 870.449 535.18 880.677 541.633 886.605C548.087 892.533 556.621 897.717 565.136 899.264C576.694 901.274 590.468 897.657 600.351 891.106C610.234 884.555 616.206 872.82 622.332 863.235" fill="black"/>
</g>
<g opacity="0.2">
<path opacity="0.4" d="M614.029 785.27C611.832 790.38 608.476 794.856 604.25 798.311C600.025 801.766 595.057 804.097 589.775 805.103C579.353 807.113 565.849 803.677 559.337 793.469C582.262 801.868 605.052 802.069 614.029 785.27Z" fill="black"/>
</g>
<path d="M425.642 755.632C426.133 755.72 426.635 755.72 427.126 755.632C428.43 755.444 429.719 755.148 430.978 754.748C439.564 752.091 446.926 746.262 451.688 738.351C452.414 737.168 453.058 735.932 453.614 734.653C453.98 733.729 454.154 733.227 454.076 733.187C453.999 733.146 453.036 735.075 451.148 737.949C448.662 741.654 445.648 744.94 442.21 747.695C438.746 750.414 434.899 752.556 430.805 754.044C427.665 755.069 425.623 755.451 425.642 755.632Z" fill="#263238"/>
<g opacity="0.2">
<path opacity="0.2" d="M452.304 734.493C449.935 742.892 440.996 750.729 433.04 753.482C431.484 754.086 429.823 754.34 428.166 754.225C427.338 754.166 426.532 753.917 425.807 753.497C425.081 753.077 424.453 752.495 423.966 751.794C422.29 749.121 423.735 745.323 426.201 743.435C428.824 741.766 431.749 740.678 434.793 740.24C440.938 738.753 446.486 741.988 451.572 736.603" fill="black"/>
</g>
<g opacity="0.2">
<path opacity="0.4" d="M622.678 718.94C608.307 732.041 588.003 732.604 569.721 726.978C551.439 721.351 535.507 710.762 519.98 699.188C536.913 702.704 551.362 710.762 568.449 713.394C584.766 715.906 601.738 716.167 617.785 710.48" fill="black"/>
</g>
<path d="M347.082 920.202C347.189 920.299 347.314 920.374 347.448 920.423C347.815 920.629 348.195 920.81 348.585 920.966C350.082 921.597 351.659 922.003 353.266 922.171C359.225 922.686 365.17 921.024 370.084 917.469C376.479 913.229 382.297 906.096 388.52 898.179C395.195 889.49 401.193 880.257 406.455 870.57C416.005 852.945 423.316 834.099 428.204 814.507C430.131 806.992 431.248 800.843 431.961 796.563C432.269 794.554 432.52 792.846 432.712 791.64C432.808 791.068 432.872 790.491 432.905 789.912C432.719 790.46 432.584 791.025 432.5 791.6L431.576 796.483C430.747 800.723 429.457 806.851 427.53 814.306C422.455 833.762 415.084 852.485 405.588 870.047C400.343 879.688 394.392 888.892 387.788 897.576C381.642 905.493 375.902 912.627 369.698 916.846C364.905 920.395 359.095 922.132 353.227 921.769C351.12 921.54 349.053 921.013 347.082 920.202Z" fill="#263238"/>
<g opacity="0.2">
<path opacity="0.4" d="M416.357 846.055C416.357 846.055 387.922 883.35 367.175 892.492C360.143 895.607 352.399 898.139 347.602 904.328C346.403 905.745 345.515 907.417 345 909.229C344.484 911.04 344.353 912.947 344.616 914.817C344.696 915.26 344.825 915.691 345.001 916.103C347.987 924.04 362.339 922.935 368.909 917.911C371.779 915.721 370.084 917.128 372.395 915.319C379.042 910.095 414.623 867.113 416.357 846.055Z" fill="black"/>
</g>
<path d="M541.884 342.699L523.737 338.941L433.984 340.046L388.385 350.495L370.989 616.098L572.591 625.924L541.884 342.699Z" fill="#E0E0E0"/>
<path d="M411.329 603.881L407.033 483.076L414.18 343C385.823 350.616 347.044 359.075 325.564 384.615C311.636 401.192 297.977 422.392 292.814 456.531C286.881 496.72 279.059 573.579 274.166 616.581" fill="#FC1A2E"/>
<path d="M382.817 584.069L522.195 607.679L527.127 517.899L534.833 340.408C575.288 342.136 621.33 376.999 635.143 404.166C644.775 423.015 652.847 444.917 655.37 466.116C660.206 506.304 668.393 575.167 673.286 618.188C674.766 631.263 673.435 644.518 669.39 656.989C665.344 669.46 658.686 680.834 649.899 690.286C629.672 712.048 598.001 719.583 569.528 713.434L357.311 651.143L382.817 584.069Z" fill="#FC1A2E"/>
<path d="M397.535 582.461C397.524 582.29 397.492 582.121 397.439 581.959C397.324 581.597 397.189 581.115 397.035 580.512C396.63 579.166 396.091 577.297 395.378 574.906C393.875 569.962 391.737 562.849 389.078 554.048L367.213 482.835L366.924 483.458L389.521 473.712L390.408 473.33L389.618 472.788L384.397 469.211L367.348 457.596L367.541 458.159C376.21 426.772 383.838 399.083 389.329 379.169C392.007 369.283 394.164 361.326 395.686 355.78C396.38 353.067 396.938 350.957 397.343 349.45C397.51 348.794 397.645 348.251 397.747 347.823C397.81 347.641 397.849 347.452 397.863 347.26C397.863 347.26 397.863 347.421 397.67 347.782L397.169 349.41C396.726 350.897 396.11 352.987 395.339 355.679L388.693 378.968L366.597 457.878L366.501 458.239L366.809 458.46L383.839 470.095L389.059 473.652V472.727L366.481 482.513L366.057 482.694L366.192 483.136C375.092 511.649 382.856 536.466 388.404 554.249C391.198 563.05 393.413 570.103 394.973 575.006C395.744 577.377 396.36 579.246 396.784 580.572C396.977 581.155 397.15 581.617 397.266 581.999C397.338 582.163 397.429 582.318 397.535 582.461Z" fill="#263238"/>
<g opacity="0.2">
<path opacity="0.4" d="M366.712 458.32C367.85 462.678 370.31 466.534 373.725 469.311C376.383 470.899 374.861 473.009 372.665 475.219C370.026 477.871 365.788 478.595 363.842 481.81C361.896 485.025 362.994 488.702 363.996 492.078C373.647 524.105 385.361 555.416 399.057 585.797L366.712 482.975L389.271 473.27L366.712 458.32Z" fill="black"/>
</g>
<path d="M533.793 584.953C533.888 584.824 533.966 584.682 534.024 584.531C534.159 584.209 534.351 583.807 534.563 583.285L536.644 578.382C538.455 574.042 541.036 567.792 544.35 559.996L570.337 496.458L570.491 496.097L570.164 495.856L552.344 482.553V483.317L564.153 473.551L569.393 469.251L571.994 467.242L572.63 466.699C572.763 466.6 572.886 466.485 572.996 466.357C573.12 466.19 573.211 465.999 573.265 465.795C573.407 465.197 573.478 464.583 573.477 463.966C573.359 459.47 572.96 454.986 572.283 450.543C571.108 441.843 569.721 433.484 568.43 425.526C565.694 409.632 562.978 395.385 560.724 383.329C558.47 371.272 556.448 361.687 555.08 355.016C554.386 351.721 553.828 349.149 553.442 347.32L552.999 345.311C552.966 345.081 552.901 344.858 552.807 344.648C552.817 344.885 552.849 345.12 552.903 345.351C552.903 345.853 553.115 346.516 553.25 347.36C553.596 349.196 554.078 351.768 554.694 355.077C555.966 361.828 557.777 371.513 560.011 383.449C562.246 395.385 564.866 409.712 567.563 425.647C568.892 433.584 570.26 441.943 571.416 450.624C572.08 455.014 572.472 459.444 572.591 463.886C572.596 464.401 572.538 464.914 572.418 465.413C572.418 465.654 571.859 466.016 571.455 466.378L568.873 468.508L563.652 472.828L551.863 482.573L551.342 483.015L551.882 483.417L569.721 496.679L569.567 496.057L543.733 559.674C540.593 567.531 538.089 573.74 536.355 578.181C535.526 580.291 534.871 581.939 534.428 583.144L533.966 584.43C533.894 584.599 533.836 584.774 533.793 584.953Z" fill="#263238"/>
<path d="M365.271 497.771L505.704 475.173C508.238 474.766 510.609 476.578 511 479.221L541.289 684.008C541.68 686.652 539.942 689.125 537.408 689.533L396.975 712.131C394.441 712.539 392.07 710.726 391.679 708.083L361.391 503.296C361 500.652 362.737 498.179 365.271 497.771Z" fill="#FC1A2E"/>
<g opacity="0.2">
<path opacity="0.4" d="M365.271 497.771L505.704 475.173C508.238 474.766 510.609 476.578 511 479.221L541.289 684.008C541.68 686.652 539.942 689.125 537.408 689.533L396.975 712.131C394.441 712.539 392.07 710.726 391.679 708.083L361.391 503.296C361 500.652 362.737 498.179 365.271 497.771Z" fill="black"/>
</g>
<path d="M369.705 501.722L502.618 480.334L532.131 679.879L399.218 701.267L369.705 501.722Z" fill="#EBEBEB"/>
<path d="M409.633 498.448C410.576 495.411 412.309 492.708 414.64 490.639C416.97 488.571 419.805 487.218 422.83 486.733L421.712 478.193C421.258 475.1 421.999 471.945 423.773 469.421C425.546 466.897 428.207 465.21 431.171 464.73C434.139 464.251 437.169 465.021 439.593 466.871C442.017 468.721 443.637 471.5 444.098 474.596L445.407 483.437L448.259 483.036C451.25 482.602 454.297 483.037 457.067 484.291C459.837 485.546 462.221 487.573 463.959 490.149L466.174 493.364L408.381 502.688L409.633 498.448ZM433.521 482.855C434.712 482.665 435.822 482.111 436.711 481.263C437.6 480.415 438.227 479.311 438.514 478.091C438.801 476.87 438.735 475.589 438.323 474.408C437.911 473.227 437.173 472.2 436.202 471.457C435.231 470.714 434.07 470.289 432.866 470.234C431.663 470.18 430.471 470.499 429.442 471.151C428.412 471.803 427.591 472.759 427.083 473.898C426.575 475.038 426.402 476.308 426.586 477.55C426.838 479.209 427.708 480.698 429.007 481.692C430.306 482.685 431.928 483.103 433.521 482.855Z" fill="#263238"/>
<path d="M457.583 516.573C463.656 516.134 469.702 515.343 475.691 514.201C481.724 513.399 487.711 512.259 493.626 510.786C487.559 511.225 481.52 512.016 475.537 513.157C469.498 513.958 463.504 515.098 457.583 516.573Z" fill="#263238"/>
<path d="M477.194 519.908C480.139 519.975 483.081 519.679 485.959 519.024C488.889 518.729 491.778 518.089 494.57 517.115C491.626 517.072 488.687 517.369 485.805 517.999C482.875 518.294 479.986 518.935 477.194 519.908Z" fill="#263238"/>
<path d="M395.147 551.215C395.147 551.496 417.686 548.1 445.369 543.659C473.052 539.219 495.456 535.34 495.456 535.059C495.456 534.778 472.936 538.154 445.234 542.615C417.532 547.075 395.108 550.913 395.147 551.215Z" fill="#263238"/>
<path d="M396.63 561.181C396.63 561.463 419.15 558.087 446.852 553.626C474.555 549.165 496.94 545.327 496.94 545.046C496.94 544.765 474.42 548.14 446.717 552.601C419.015 557.062 396.591 560.9 396.63 561.181Z" fill="#263238"/>
<path d="M398.094 571.168C398.094 571.449 420.633 568.054 448.316 563.613C475.999 559.172 498.404 555.294 498.404 555.012C498.404 554.731 475.865 558.107 448.162 562.568C420.46 567.029 398.056 570.867 398.094 571.168Z" fill="#263238"/>
<path d="M399.577 581.135C399.577 581.416 422.098 578.04 449.8 573.579C477.502 569.119 499.887 565.281 499.887 564.979C499.887 564.678 477.367 568.094 449.665 572.555C421.963 577.015 399.462 580.853 399.577 581.135Z" fill="#263238"/>
<path d="M401.061 591.101C401.061 591.403 423.581 588.007 451.283 583.546C478.985 579.085 501.371 575.247 501.371 574.966C501.371 574.685 478.851 578.06 451.148 582.521C423.446 586.982 401.003 590.82 401.061 591.101Z" fill="#263238"/>
<path d="M402.525 601.088C402.525 601.37 425.064 597.994 452.747 593.533C480.43 589.072 502.835 585.234 502.835 584.933C502.835 584.631 480.315 588.027 452.612 592.488C424.91 596.949 402.486 600.807 402.525 601.088Z" fill="#263238"/>
<path d="M453.999 602.013C454.644 602.047 455.29 602.006 455.926 601.892C457.217 601.751 459.047 601.51 461.32 601.189C465.886 600.546 472.166 599.601 479.082 598.496C485.998 597.391 492.259 596.306 496.786 595.482C499.059 595.08 500.87 594.718 502.141 594.457C502.803 594.375 503.451 594.2 504.068 593.935C503.423 593.889 502.776 593.929 502.141 594.055C500.851 594.196 499.02 594.437 496.747 594.759C492.182 595.381 485.901 596.346 478.985 597.451C472.069 598.556 465.809 599.641 461.281 600.465C459.008 600.867 457.197 601.229 455.926 601.49C455.264 601.572 454.616 601.748 453.999 602.013Z" fill="#263238"/>
<path d="M387.113 527.001C389.837 527.088 392.561 526.824 395.224 526.218C397.937 525.961 400.61 525.353 403.18 524.409C397.743 524.587 392.348 525.457 387.113 527.001Z" fill="#263238"/>
<path d="M480.026 620.077C484.424 619.893 488.803 619.362 493.125 618.49C497.498 617.965 501.826 617.092 506.071 615.877C501.672 616.061 497.293 616.591 492.971 617.465C488.599 617.996 484.272 618.869 480.026 620.077Z" fill="#263238"/>
<path d="M480.488 629.28C484.964 629.082 489.42 628.538 493.819 627.653C498.264 627.127 502.664 626.24 506.977 625C502.507 625.198 498.057 625.742 493.665 626.628C489.213 627.152 484.807 628.039 480.488 629.28Z" fill="#263238"/>
<path d="M404.278 630.888C408.546 630.903 412.79 630.225 416.858 628.878C414.721 628.702 412.571 628.864 410.481 629.361C408.348 629.516 406.253 630.031 404.278 630.888Z" fill="#263238"/>
<path d="M405.049 639.106C409.316 639.122 413.56 638.444 417.628 637.097C413.36 637.081 409.116 637.759 405.049 639.106Z" fill="#263238"/>
<path d="M494.05 636.836C496.116 637.013 498.195 636.858 500.215 636.373C502.277 636.213 504.3 635.704 506.206 634.866C504.147 634.676 502.072 634.832 500.061 635.328C497.991 635.483 495.961 635.992 494.05 636.836Z" fill="#263238"/>
<path d="M406.012 648.691C407.557 648.955 409.139 648.879 410.655 648.47C412.218 648.389 413.748 647.964 415.143 647.224C413.6 646.936 412.015 647.005 410.5 647.425C408.935 647.507 407.404 647.939 406.012 648.691Z" fill="#263238"/>
<path d="M510.194 656.226C509.437 656.156 508.677 656.156 507.921 656.226L501.525 656.427L478.677 657.372H478.157L478.273 657.894C478.845 660.477 480.262 662.772 482.28 664.384C483.349 665.276 484.597 665.903 485.932 666.22C487.266 666.536 488.652 666.534 489.985 666.213C491.409 665.869 492.73 665.167 493.835 664.169C494.939 663.171 495.794 661.907 496.323 660.486C496.809 658.96 496.845 657.317 496.426 655.77C496.007 654.222 495.152 652.841 493.973 651.806C493.108 650.99 492.062 650.41 490.929 650.118C490.645 650.041 490.355 649.994 490.062 649.977C489.749 649.937 489.432 649.937 489.118 649.977C488.908 650.013 488.709 650.101 488.538 650.234C488.367 650.367 488.229 650.54 488.136 650.741C488.009 651.086 487.969 651.46 488.02 651.826C488.274 654.075 488.99 656.241 490.12 658.175C491.219 660.027 492.668 661.627 494.378 662.877C496.045 664.182 498.073 664.887 500.157 664.887C501.161 664.813 502.126 664.449 502.943 663.835C503.76 663.221 504.396 662.381 504.78 661.41C505.518 659.642 505.654 657.664 505.166 655.804C504.025 652.705 502.173 649.945 499.772 647.767L499.252 647.224V647.988C498.944 650.76 499.454 653.564 500.716 656.025C501.654 657.885 502.968 659.51 504.569 660.788C505.565 661.593 506.677 662.23 507.863 662.676C508.27 662.845 508.698 662.954 509.134 662.998C507.568 662.402 506.105 661.547 504.8 660.466C503.313 659.172 502.1 657.571 501.236 655.764C500.077 653.384 499.64 650.693 499.984 648.048L499.367 648.249C501.646 650.381 503.397 653.056 504.472 656.045C504.893 657.71 504.757 659.475 504.087 661.049C503.766 661.857 503.236 662.556 502.555 663.067C501.875 663.579 501.071 663.882 500.234 663.942C498.394 663.922 496.61 663.281 495.148 662.114C493.519 660.925 492.15 659.39 491.131 657.61C490.112 655.83 489.465 653.845 489.234 651.785C489.191 651.607 489.191 651.421 489.234 651.243C489.234 651.142 489.234 651.102 489.504 651.062C489.97 651.035 490.438 651.082 490.891 651.203C491.862 651.46 492.761 651.956 493.511 652.649C494.53 653.557 495.269 654.758 495.636 656.102C496.002 657.447 495.98 658.874 495.572 660.205C495.108 661.43 494.375 662.524 493.431 663.398C492.488 664.273 491.36 664.904 490.139 665.241C488.919 665.577 487.639 665.609 486.405 665.335C485.17 665.06 484.014 664.487 483.031 663.661C481.168 662.205 479.852 660.115 479.313 657.753L478.908 658.296L501.563 656.909L507.959 656.467C508.708 656.436 509.454 656.355 510.194 656.226Z" fill="#263238"/>
<path d="M414.989 671.196C415.296 671.653 415.666 672.059 416.087 672.402C416.581 672.843 417.132 673.208 417.725 673.487C418.558 673.871 419.497 673.921 420.364 673.628C420.91 673.453 421.385 673.092 421.712 672.603C422.037 672.073 422.223 671.463 422.252 670.835C422.236 669.551 422.146 668.269 421.982 666.997C421.732 664.264 421.443 661.27 421.134 658.035L420.306 658.376L427.665 668.765L429.495 671.337L430.689 673.025L430.4 671.016C429.611 665.65 428.898 660.647 428.262 656.246L427.549 656.648C430.555 659.29 433.216 662.33 435.467 665.691C437.085 668.122 437.856 669.709 437.952 669.589C437.858 669.187 437.709 668.801 437.509 668.443C437.014 667.403 436.468 666.39 435.872 665.409C433.757 661.887 431.162 658.705 428.166 655.965L427.299 655.181L427.472 656.387C428.05 660.767 428.744 665.791 429.399 671.176L430.304 670.774L428.378 668.202C425.758 664.545 423.273 661.049 420.961 657.854L419.94 656.407L420.133 658.195C420.499 661.431 420.826 664.425 421.134 667.137C421.314 668.369 421.43 669.61 421.481 670.855C421.512 671.338 421.395 671.819 421.145 672.228C420.895 672.636 420.527 672.951 420.094 673.125C419.428 673.313 418.729 673.327 418.057 673.166C417.385 673.005 416.761 672.673 416.241 672.201C415.851 671.831 415.432 671.495 414.989 671.196Z" fill="#263238"/>
<path d="M411.599 665.731C417.886 666.218 424.195 666.359 430.497 666.153C436.796 666.298 443.098 666.096 449.376 665.55C443.095 665.05 436.793 664.902 430.497 665.108C424.191 664.963 417.883 665.171 411.599 665.731Z" fill="#263238"/>
<path d="M405.453 671.98C410.436 673.062 415.481 673.807 420.557 674.211C425.593 674.95 430.67 675.353 435.756 675.416C430.777 674.306 425.731 673.554 420.653 673.166C415.618 672.413 410.54 672.017 405.453 671.98Z" fill="#263238"/>
<g opacity="0.2">
<path opacity="0.2" d="M572.976 465.092C573.208 471.12 571.647 477.269 566.831 480.664C572.861 483.719 576.078 491.033 576.271 498.026C576.463 505.018 574.132 511.81 571.609 518.301C563.807 538.254 547.162 566.346 534.467 583.345C534.467 583.345 540.901 565.261 542.751 561.021C551.111 541.951 558.49 522.842 566.87 503.712C567.794 501.703 569.451 495.835 569.451 495.835C568.539 495.367 567.696 494.764 566.947 494.047C562.246 490.028 552.055 482.975 552.055 482.975C552.055 482.975 572.976 465.694 572.976 465.092Z" fill="black"/>
</g>
<path d="M573.265 506.084C572.996 506.084 573.477 529.292 574.363 557.886C575.25 586.48 576.174 609.668 576.444 609.648C576.714 609.628 576.251 586.46 575.365 557.846C574.479 529.232 573.554 506.063 573.265 506.084Z" fill="#263238"/>
<path d="M540.092 445.138H542.019C542.019 444.375 539.225 368.359 537.048 338.097C536.977 335.973 536.491 333.887 535.62 331.966C534.749 330.045 533.511 328.329 531.982 326.925C525.971 321.56 516.975 322.263 516.57 322.283L516.724 324.292C516.821 324.292 525.316 323.649 530.71 328.452C532.042 329.691 533.12 331.199 533.878 332.884C534.636 334.569 535.059 336.397 535.122 338.258C537.241 368.298 539.996 444.294 540.092 445.138Z" fill="#263238"/>
<path d="M522.041 572.293H525.451V568.275H522.041C518.465 568.275 515.035 566.793 512.506 564.155C509.977 561.517 508.556 557.939 508.556 554.209V511.649H504.703V554.209C504.703 559.005 506.53 563.605 509.782 566.996C513.033 570.388 517.443 572.293 522.041 572.293Z" fill="#455A64"/>
<path d="M520.654 570.766C520.734 571.617 521.054 572.423 521.574 573.084C522.093 573.744 522.789 574.229 523.573 574.478C524.357 574.726 525.193 574.726 525.977 574.478C526.761 574.231 527.457 573.746 527.977 573.086C528.497 572.425 528.817 571.619 528.898 570.769C528.979 569.919 528.816 569.063 528.43 568.309C528.044 567.555 527.453 566.938 526.73 566.535C526.008 566.132 525.188 565.961 524.372 566.044C523.281 566.161 522.278 566.723 521.582 567.607C520.885 568.491 520.552 569.627 520.654 570.766Z" fill="#263238"/>
<path d="M555.369 572.193H558.779C563.377 572.193 567.787 570.288 571.038 566.896C574.29 563.505 576.116 558.905 576.116 554.108L575.962 511.549H572.109L572.264 554.108C572.264 557.839 570.843 561.417 568.314 564.054C565.785 566.692 562.355 568.174 558.779 568.174H555.369V572.193Z" fill="#455A64"/>
<path d="M560.146 570.646C560.067 571.491 559.749 572.293 559.232 572.95C558.716 573.608 558.025 574.091 557.245 574.338C556.466 574.586 555.634 574.587 554.854 574.342C554.074 574.097 553.381 573.617 552.863 572.961C552.345 572.306 552.024 571.505 551.942 570.659C551.86 569.814 552.019 568.962 552.401 568.211C552.782 567.461 553.368 566.845 554.085 566.441C554.802 566.037 555.617 565.864 556.428 565.944C556.969 565.996 557.494 566.16 557.974 566.425C558.454 566.691 558.878 567.052 559.224 567.489C559.569 567.926 559.829 568.43 559.987 568.971C560.145 569.513 560.199 570.082 560.146 570.646Z" fill="#263238"/>
<path d="M577.099 516.452L577.581 486.11C577.947 462.982 561.745 443.912 541.46 443.531C536.519 443.485 531.625 444.524 527.094 446.58C522.564 448.636 518.499 451.664 515.164 455.467C508.076 463.466 504.099 473.932 504.01 484.824L503.528 515.186L509.308 515.287L509.789 484.924C509.859 475.521 513.295 466.484 519.421 459.586C522.197 456.387 525.591 453.837 529.38 452.106C533.168 450.374 537.266 449.499 541.402 449.539C558.509 449.84 572.225 466.177 571.84 485.989L571.358 516.331L577.099 516.452Z" fill="#263238"/>
<path d="M412.542 446.263C412.542 445.46 421.385 366.47 423.928 341.151L424.101 339.303C424.891 330.702 425.816 320.977 434.928 318.405L434.427 316.395C424.024 319.329 423.003 330.26 422.175 339.041L422.001 340.87C419.478 366.188 410.712 445.178 410.635 445.982L412.542 446.263Z" fill="#263238"/>
<path d="M396.956 447.972C388.883 439.552 388.883 425.9 396.956 417.48C405.028 409.06 418.116 409.06 426.189 417.48C434.261 425.9 434.261 439.552 426.189 447.972C418.116 456.392 405.028 456.392 396.956 447.972Z" fill="#263238"/>
<path d="M401.6 432.72C401.6 434.783 402.187 436.801 403.287 438.516C404.386 440.231 405.949 441.568 407.777 442.357C409.605 443.146 411.616 443.351 413.556 442.947C415.496 442.543 417.278 441.548 418.675 440.087C420.073 438.627 421.023 436.766 421.407 434.742C421.79 432.718 421.59 430.62 420.83 428.715C420.07 426.81 418.786 425.182 417.139 424.039C415.492 422.895 413.557 422.287 411.579 422.291C410.267 422.291 408.968 422.561 407.756 423.085C406.544 423.61 405.443 424.378 404.516 425.347C403.589 426.316 402.855 427.465 402.354 428.731C401.854 429.996 401.598 431.351 401.6 432.72Z" fill="#455A64"/>
<path d="M533.793 584.953L559.742 651.524L352.746 711.385C343.283 714.134 333.353 714.66 323.672 712.922C313.991 711.185 304.801 707.228 296.763 701.338C275.11 685.403 269.793 657.532 272.432 629.943L276.17 600.606L533.793 584.953Z" fill="#FC1A2E"/>
<path d="M314.487 657.211C314.699 657.211 315.142 652.67 317.28 645.657C317.829 643.741 318.472 641.857 319.206 640.01C319.938 638.001 320.96 635.991 321.981 633.741C324.356 629.089 327.149 624.682 330.322 620.579C333.552 616.529 337.138 612.802 341.033 609.447C342.959 607.98 344.616 606.514 346.369 605.428C347.954 604.289 349.593 603.236 351.282 602.274C357.446 598.717 361.665 597.351 361.588 597.13C360.579 597.345 359.592 597.661 358.641 598.074C357.491 598.463 356.365 598.926 355.269 599.46C353.979 600.083 352.476 600.706 350.935 601.631C349.204 602.555 347.526 603.581 345.907 604.705C344.115 605.83 342.343 607.297 340.455 608.724C336.472 612.08 332.813 615.836 329.532 619.936C326.325 624.096 323.525 628.579 321.171 633.319C320.15 635.549 319.149 637.639 318.436 639.709C317.688 641.584 317.045 643.503 316.509 645.456C316.025 647.051 315.633 648.675 315.334 650.319C315.028 651.565 314.816 652.835 314.699 654.116C314.538 655.139 314.467 656.175 314.487 657.211Z" fill="#263238"/>
<g opacity="0.2">
<path opacity="0.4" d="M564.365 613.285C580.162 614.652 592.356 616.159 608.673 618.249C618.864 619.555 629.44 618.811 632.773 608.704C636.106 598.597 633.987 587.022 628.516 577.96C623.045 568.898 614.453 547.819 568.449 563.894L564.365 613.285Z" fill="black"/>
</g>
<path d="M543.059 610.372L542.943 609.93L542.5 608.603L540.766 603.54L534.12 584.832L534.024 584.571H533.773L463.362 591.222L395.243 597.974L374.611 600.124L369.005 600.767L367.56 600.968C367.389 600.973 367.22 601.007 367.059 601.068H367.56H369.024L374.649 600.626L395.32 598.777L463.458 592.347L533.831 585.375L533.484 585.134L540.42 603.741L542.346 608.724L542.866 610.01C542.962 610.251 543.04 610.392 543.059 610.372Z" fill="#263238"/>
<g opacity="0.2">
<path opacity="0.4" d="M457.891 679.033C428.493 687.252 410.616 682.489 383.916 667.258C378.446 663.913 373.194 660.194 368.196 656.126C364.389 652.879 361.002 649.13 358.12 644.974C392.507 658.698 421.077 669.087 456.523 679.415" fill="black"/>
</g>
<path d="M542.962 609.648L536.239 590.057L551.863 564.577C553.215 562.369 554.986 560.473 557.066 559.004C559.146 557.536 561.493 556.526 563.961 556.037L621.446 544.724C622.161 546.969 622.061 549.41 621.167 551.584C620.272 553.758 618.644 555.514 616.591 556.52C609.059 561.001 575.173 569.219 575.173 569.219L627.36 568.295C627.36 568.295 628.978 576.152 623.064 578.965C617.15 581.778 579.969 583.205 579.969 583.205L627.572 590.197C627.572 590.197 627.841 598.074 616.957 598.235C606.238 598.102 595.532 597.397 584.882 596.125C584.441 596.061 583.993 596.178 583.634 596.452C583.274 596.726 583.031 597.134 582.955 597.592C582.89 598.035 582.987 598.487 583.226 598.859C583.465 599.231 583.829 599.496 584.246 599.601L615.897 607.398C616.809 607.612 617.628 608.135 618.225 608.885C618.823 609.635 619.166 610.57 619.201 611.544C619.236 612.519 618.962 613.478 618.42 614.272C617.878 615.067 617.1 615.653 616.206 615.938C615.632 616.082 615.039 616.123 614.453 616.058C609.059 615.496 576.849 611.236 576.849 611.236L575.173 615.154L542.962 609.689" fill="#ECC2B2"/>
<path d="M566.6 603.6C567.038 602.518 567.636 601.514 568.372 600.626C569.223 599.719 570.266 599.031 571.416 598.617C572.837 598.163 574.327 597.993 575.808 598.114C579.006 598.355 581.896 599.32 584.053 599.601C585.218 599.896 586.433 599.896 587.598 599.601C586.477 599.27 585.339 599.009 584.188 598.818C581.466 597.978 578.683 597.373 575.866 597.009C574.248 596.877 572.621 597.096 571.088 597.652C569.841 598.156 568.73 598.97 567.852 600.023C567.39 600.476 567.037 601.036 566.819 601.657C566.602 602.278 566.527 602.943 566.6 603.6Z" fill="#AA5050"/>
<path d="M561.398 588.67C561.495 588.67 561.553 588.128 561.976 587.263C562.602 586.065 563.554 585.086 564.712 584.45C567.621 582.682 572.533 583.265 577.696 583.626C582.859 583.988 587.598 584.792 591.008 585.254C592.838 585.616 594.694 585.811 596.556 585.837C594.791 585.214 592.971 584.777 591.123 584.531C586.715 583.628 582.266 582.957 577.792 582.521C575.32 582.287 572.838 582.186 570.356 582.22C568.265 582.167 566.198 582.694 564.365 583.747C563.125 584.495 562.162 585.655 561.63 587.042C561.389 587.546 561.308 588.116 561.398 588.67Z" fill="#AA5050"/>
<path d="M557.43 579.989C557.474 578.395 557.891 576.837 558.644 575.448C559.502 573.995 560.694 572.786 562.111 571.932C563.907 570.952 565.871 570.351 567.891 570.163C572.206 569.741 576.251 570.163 579.199 569.922C580.8 569.92 582.379 569.521 583.803 568.757C583.803 568.596 582.031 569.139 579.16 569.199C576.29 569.259 572.302 568.697 567.775 569.199C565.621 569.385 563.535 570.072 561.668 571.208C560.135 572.182 558.884 573.571 558.046 575.227C557.465 576.321 557.166 577.553 557.18 578.804C557.218 579.547 557.43 579.989 557.43 579.989Z" fill="#AA5050"/>
<path d="M370.816 579.929C370.812 578.837 370.715 577.748 370.527 576.674C370.276 574.664 369.795 571.57 369.12 567.873C367.791 560.478 365.441 550.371 362.956 539.218C360.758 529.721 359.08 520.1 357.928 510.404C357.697 508.535 357.6 506.847 357.466 505.36C357.331 503.873 357.254 502.607 357.215 501.542C357.224 500.451 357.134 499.361 356.945 498.287C356.821 499.373 356.782 500.469 356.83 501.562C356.83 502.607 356.83 503.913 356.83 505.4C356.83 506.887 356.945 508.595 357.157 510.464C358.094 520.232 359.677 529.92 361.896 539.46C364.401 550.632 366.847 560.679 368.35 568.033C369.101 571.69 369.698 574.684 370.064 576.734C370.231 577.819 370.483 578.887 370.816 579.929Z" fill="#263238"/>
<path d="M350.839 711.746C351.225 711.739 351.608 711.671 351.975 711.545L355.173 710.802L366.886 707.788C376.768 705.196 390.388 701.438 405.415 697.098C420.441 692.757 433.907 688.598 443.635 685.483L455.194 681.746L458.315 680.661C458.618 680.554 458.908 680.412 459.182 680.239C458.8 680.266 458.424 680.347 458.064 680.48L454.886 681.364L443.327 684.8L405.029 696.113L366.712 707.085L355.154 710.4L351.994 711.345C351.597 711.436 351.209 711.57 350.839 711.746Z" fill="#263238"/>
<path d="M549.146 128.918C544.908 115.274 523.197 102.956 511.292 95.8028C493.472 85.1328 476.963 87.2628 466.791 96.7673C448.413 80.692 424.197 65.2196 400.984 71.5492C377.77 77.8789 358.91 102.675 363.149 127.33C365.634 141.858 375.285 154.879 374.707 169.528C374.322 179.575 369.217 188.657 365.075 197.78C360.933 206.903 357.889 217.513 361.511 226.836C364.882 235.497 373.301 240.902 377.828 248.94C381.527 255.531 382.374 263.367 384.744 270.581C393.49 297.306 423.735 312.296 450.436 307.594C477.136 302.892 499.386 281.934 512.082 256.937C524.777 231.94 528.861 203.246 530.325 175.054" fill="#263238"/>
<path d="M529.477 147.746L524.141 370.589C522.215 396.129 499.656 414.796 473.456 412.425C447.006 410.054 426.798 387.207 428.32 361.366C429.919 334.259 431.113 305.665 431.113 305.665C431.113 305.665 397.998 297.628 393.875 251.572C391.775 227.982 395.436 189.28 399.269 158.617C400.021 152.503 401.951 146.612 404.942 141.297C407.933 135.981 411.925 131.352 416.676 127.688C421.427 124.024 426.84 121.4 432.589 119.974C438.338 118.549 444.303 118.351 450.127 119.393" fill="#ECC2B2"/>
<path d="M409.094 191.551C408.981 193.072 409.445 194.578 410.385 195.746C411.325 196.915 412.667 197.652 414.122 197.8C414.831 197.91 415.553 197.871 416.247 197.685C416.941 197.498 417.592 197.169 418.161 196.715C418.73 196.262 419.207 195.694 419.562 195.045C419.917 194.396 420.144 193.679 420.229 192.937C420.337 191.416 419.872 189.91 418.934 188.739C417.995 187.569 416.656 186.826 415.201 186.668C414.491 186.561 413.768 186.603 413.074 186.792C412.381 186.981 411.73 187.312 411.161 187.767C410.592 188.222 410.116 188.791 409.761 189.441C409.406 190.091 409.179 190.808 409.094 191.551Z" fill="#263238"/>
<path d="M403.527 185.603C404.182 186.407 408.632 183.413 414.662 183.835C420.691 184.257 424.91 187.693 425.604 186.969C425.95 186.648 425.334 185.241 423.504 183.634C421.007 181.569 417.959 180.361 414.777 180.178C411.647 179.963 408.532 180.786 405.877 182.529C403.931 183.915 403.219 185.221 403.527 185.603Z" fill="#263238"/>
<path d="M466.887 197.86C466.769 199.385 467.23 200.896 468.171 202.069C469.111 203.242 470.456 203.982 471.915 204.13C472.625 204.237 473.348 204.195 474.042 204.006C474.736 203.817 475.386 203.486 475.955 203.031C476.524 202.576 477 202.007 477.355 201.357C477.71 200.707 477.937 199.99 478.022 199.247C478.13 197.725 477.666 196.219 476.727 195.049C475.788 193.878 474.449 193.135 472.994 192.978C472.285 192.87 471.561 192.913 470.868 193.101C470.174 193.29 469.523 193.622 468.954 194.077C468.385 194.532 467.909 195.101 467.554 195.751C467.199 196.401 466.972 197.118 466.887 197.86Z" fill="#263238"/>
<path d="M462.726 190.767C463.381 191.571 467.831 188.577 473.861 188.999C479.891 189.421 484.11 192.857 484.803 192.134C485.15 191.812 484.534 190.406 482.684 188.798C480.193 186.737 477.151 185.529 473.977 185.342C470.846 185.127 467.731 185.95 465.076 187.693C463.034 189.059 462.418 190.386 462.726 190.767Z" fill="#263238"/>
<path d="M437.991 235.919C437.991 235.577 434.35 234.653 428.359 233.427C426.837 233.166 425.392 232.744 425.199 231.619C425.172 229.953 425.636 228.319 426.528 226.937C428.204 223.139 429.977 219.18 431.826 215.021C439.224 198.021 444.695 184.016 444.04 183.714C443.385 183.413 436.854 196.936 429.437 213.855C427.665 218.035 425.951 222.034 424.332 225.912C423.232 227.779 422.808 229.996 423.138 232.161C423.326 232.742 423.639 233.271 424.053 233.706C424.467 234.141 424.971 234.472 425.527 234.673C426.359 234.976 427.228 235.159 428.108 235.215C434.138 235.999 437.991 236.28 437.991 235.919Z" fill="#263238"/>
<path d="M431.094 305.585C451.649 307.299 472.256 303.028 490.621 293.247C490.621 293.247 474.073 323.931 430.612 316.717L431.094 305.585Z" fill="#AA5050"/>
<path d="M462.688 166.011C463.189 167.76 469.257 167.358 476.269 168.724C483.281 170.091 488.887 172.482 489.928 171.015C490.39 170.312 489.484 168.624 487.288 166.815C484.354 164.55 480.948 163.042 477.348 162.415C473.751 161.723 470.05 161.923 466.541 162.997C463.882 163.922 462.495 165.188 462.688 166.011Z" fill="#263238"/>
<path d="M406.879 167.539C407.842 169.046 412.099 167.84 417.089 168.101C422.078 168.362 426.259 169.689 427.318 168.262C427.8 167.559 427.318 166.092 425.392 164.605C423.009 162.818 420.171 161.81 417.238 161.71C414.305 161.61 411.41 162.422 408.921 164.042C407.168 165.388 406.455 166.815 406.879 167.539Z" fill="#263238"/>
<path d="M447.315 247.754C442.595 247.754 440.245 249.201 436.238 251.773C435.031 252.436 434.039 253.457 433.387 254.707C433.078 255.605 432.972 256.564 433.075 257.512C433.179 258.46 433.49 259.37 433.984 260.172C434.969 261.997 436.433 263.491 438.204 264.477C439.976 265.463 441.98 265.9 443.982 265.738C445.977 265.52 447.857 264.657 449.36 263.27C450.862 261.883 451.912 260.041 452.362 258.002C452.735 255.946 452.442 253.819 451.528 251.956C450.614 250.093 449.132 248.601 447.315 247.714" fill="#FC1A2E"/>
<path d="M431.306 258.263C431.306 258.746 432.809 259.469 435.448 259.308C438.785 258.985 442.01 257.887 444.887 256.093C447.789 254.409 450.358 252.165 452.458 249.482C454.019 247.473 454.5 245.704 454.096 245.463C453.306 244.921 449.337 249.261 443.096 252.838C440.514 254.392 437.799 255.69 434.985 256.716C432.828 257.48 431.364 257.741 431.306 258.263Z" fill="#263238"/>
<path d="M461.07 219.04C460.186 219.04 459.471 218.293 459.471 217.372C459.471 216.451 460.186 215.704 461.07 215.704C461.953 215.704 462.668 216.451 462.668 217.372C462.668 218.293 461.953 219.04 461.07 219.04Z" fill="#AA5050"/>
<path d="M414.199 209.194C414.199 209.523 414.293 209.846 414.469 210.12C414.644 210.394 414.894 210.608 415.186 210.734C415.478 210.861 415.8 210.894 416.11 210.829C416.42 210.765 416.705 210.606 416.929 210.373C417.152 210.14 417.305 209.842 417.366 209.519C417.428 209.195 417.396 208.86 417.275 208.555C417.154 208.251 416.949 207.99 416.686 207.807C416.424 207.624 416.114 207.526 415.798 207.526C415.374 207.526 414.967 207.701 414.667 208.014C414.368 208.327 414.199 208.751 414.199 209.194Z" fill="#AA5050"/>
<path d="M405.357 213.534C405.332 213.77 405.355 214.008 405.425 214.234C405.494 214.46 405.609 214.668 405.76 214.844C405.912 215.021 406.098 215.162 406.306 215.259C406.513 215.356 406.738 215.406 406.965 215.406C407.193 215.406 407.418 215.356 407.625 215.259C407.833 215.162 408.019 215.021 408.17 214.844C408.322 214.668 408.437 214.46 408.506 214.234C408.576 214.008 408.599 213.77 408.574 213.534C408.531 213.121 408.342 212.738 408.046 212.461C407.749 212.183 407.364 212.03 406.965 212.03C406.567 212.03 406.182 212.183 405.885 212.461C405.588 212.738 405.4 213.121 405.357 213.534Z" fill="#AA5050"/>
<path d="M402.679 206.561C402.679 206.891 402.773 207.214 402.949 207.488C403.124 207.762 403.374 207.976 403.666 208.102C403.958 208.228 404.28 208.261 404.59 208.197C404.9 208.133 405.185 207.974 405.409 207.741C405.632 207.507 405.785 207.21 405.846 206.887C405.908 206.563 405.876 206.228 405.755 205.923C405.634 205.618 405.429 205.358 405.166 205.175C404.903 204.991 404.594 204.893 404.278 204.893C403.854 204.893 403.447 205.069 403.147 205.382C402.848 205.695 402.679 206.119 402.679 206.561Z" fill="#AA5050"/>
<path d="M466.791 224.746C466.787 225.081 466.879 225.409 467.054 225.69C467.23 225.97 467.481 226.189 467.777 226.32C468.072 226.451 468.398 226.487 468.713 226.424C469.028 226.362 469.318 226.202 469.547 225.967C469.775 225.732 469.931 225.431 469.995 225.103C470.059 224.775 470.028 224.435 469.906 224.125C469.784 223.816 469.577 223.551 469.31 223.365C469.044 223.178 468.73 223.079 468.409 223.079C467.983 223.079 467.575 223.254 467.272 223.566C466.969 223.878 466.796 224.302 466.791 224.746Z" fill="#AA5050"/>
<path d="M472.801 218.075C472.801 218.405 472.895 218.727 473.071 219.002C473.247 219.276 473.496 219.49 473.789 219.616C474.081 219.742 474.402 219.775 474.712 219.711C475.023 219.647 475.307 219.488 475.531 219.254C475.755 219.021 475.907 218.724 475.969 218.401C476.03 218.077 475.999 217.742 475.878 217.437C475.757 217.132 475.552 216.872 475.289 216.688C475.026 216.505 474.717 216.407 474.4 216.407C473.976 216.407 473.57 216.583 473.27 216.896C472.97 217.209 472.801 217.633 472.801 218.075Z" fill="#AA5050"/>
<path d="M446.602 197.86C446.781 195.491 447.135 193.14 447.662 190.828C449.246 184.543 452.816 179 457.795 175.094C461.193 172.401 465.154 170.583 469.353 169.789C474.166 168.87 479.127 169.307 483.724 171.055C486.202 171.977 488.528 173.292 490.621 174.953C492.838 176.635 494.788 178.669 496.4 180.981C499.842 185.866 501.697 191.769 501.697 197.83C501.697 203.892 499.842 209.795 496.4 214.679C493.209 219.25 488.801 222.743 483.724 224.726C479.127 226.474 474.166 226.911 469.353 225.992C465.154 225.198 461.193 223.38 457.795 220.687C452.822 216.784 449.252 211.25 447.662 204.974C447.138 202.661 446.784 200.31 446.602 197.941C446.573 198.093 446.573 198.25 446.602 198.403V199.79C446.603 200.543 446.661 201.296 446.775 202.04C446.873 203.057 447.047 204.065 447.296 205.054C447.903 207.813 448.917 210.456 450.301 212.891C453.609 218.797 458.798 223.307 464.965 225.635C471.132 227.962 477.886 227.961 484.052 225.63C486.622 224.677 489.038 223.322 491.218 221.612C493.525 219.879 495.548 217.768 497.21 215.362C500.799 210.314 502.737 204.196 502.737 197.911C502.737 191.626 500.799 185.507 497.21 180.459C495.548 178.053 493.525 175.943 491.218 174.21C489.038 172.5 486.622 171.145 484.052 170.191C479.3 168.412 474.177 167.996 469.218 168.985C465.298 169.778 461.583 171.431 458.321 173.835C455.06 176.24 452.326 179.34 450.301 182.931C448.92 185.367 447.906 188.01 447.296 190.767C447.046 191.763 446.872 192.777 446.775 193.801C446.66 194.539 446.602 195.285 446.602 196.032V197.418C446.578 197.565 446.578 197.714 446.602 197.86Z" fill="white"/>
<path d="M434.523 189.079C436.667 188.464 438.889 188.193 441.112 188.276C443.303 188.689 445.425 189.434 447.411 190.486C447.411 190.486 447.006 189.722 445.928 188.959C444.513 188.006 442.902 187.414 441.227 187.231C439.542 187.032 437.835 187.266 436.257 187.914C435.063 188.416 434.465 188.959 434.523 189.079Z" fill="white"/>
<path d="M452.131 112.883C455.984 149.193 481.875 181.886 515.279 192.897C504.511 209.093 511.292 239.917 511.022 265.638C510.752 289.55 510.772 296.382 525.624 308.579C537.896 311.653 544.889 276.589 554.097 266.783C563.306 256.977 571.955 244.901 571.281 231.277C570.954 224.887 568.565 218.778 568.237 212.409C567.852 205.335 570.029 198.343 571.223 191.45C576.54 160.606 561.283 127.431 535.449 111.295C509.616 95.1597 475.306 96.2448 449.742 112.742" fill="#263238"/>
<path d="M525.856 262.161C529.058 250.432 534.562 239.525 542.019 230.132L541.46 231.377C543.764 225.898 547.232 221.036 551.604 217.161C555.975 213.287 561.134 210.5 566.69 209.012C572.246 207.525 578.054 207.375 583.674 208.574C589.294 209.774 594.579 212.292 599.128 215.937C603.677 219.581 607.372 224.258 609.933 229.612C612.493 234.967 613.852 240.859 613.907 246.842C613.961 252.825 612.71 258.743 610.248 264.147C607.786 269.552 604.178 274.301 599.696 278.036C604.031 277.031 608.423 280.929 609.328 285.45C609.664 287.75 609.549 290.098 608.99 292.35C608.43 294.602 607.438 296.712 606.073 298.552C597.038 312.336 576.56 315.973 563.691 306.087C553.481 313.301 538.397 309.101 530.826 298.954C523.255 288.806 522.369 274.499 525.856 262.161Z" fill="#263238"/>
<path d="M567.216 208.973C567.618 208.578 567.985 208.148 568.314 207.687C569.211 206.341 569.864 204.836 570.241 203.246C571.416 199.086 570.857 192.516 567.698 185.563C565.981 181.756 563.618 178.305 560.724 175.375C557.555 171.898 554.042 168.78 550.244 166.072C546.043 163.053 541.459 160.659 536.624 158.958C531.635 157.17 526.337 155.784 520.943 154.377C515.549 152.97 510.271 151.584 505.339 149.775C500.585 148.066 495.966 145.97 491.526 143.506C484.017 139.335 477.034 134.205 470.74 128.235C466.498 124.189 462.58 119.787 459.027 115.073C457.756 113.405 456.831 112.059 456.196 111.054C455.895 110.58 455.553 110.136 455.175 109.728C455.425 110.23 455.708 110.713 456.022 111.175C456.619 112.119 457.486 113.506 458.719 115.194C462.174 120.037 466.043 124.543 470.278 128.657C476.578 134.755 483.595 139.995 491.16 144.25C495.636 146.751 500.293 148.881 505.089 150.619C510.078 152.448 515.376 153.855 520.77 155.281C526.164 156.708 531.442 158.054 536.393 159.802C541.171 161.46 545.708 163.793 549.878 166.735C553.631 169.403 557.116 172.46 560.281 175.858C563.101 178.763 565.397 182.173 567.062 185.925C570.241 192.696 570.915 199.106 569.856 203.185C569.365 205.283 568.466 207.252 567.216 208.973Z" fill="#455A64"/>
<path d="M455.213 109.828C455.489 110.231 455.792 110.614 456.119 110.974C456.735 111.717 457.679 112.762 458.893 114.108C462.387 117.859 466.099 121.382 470.008 124.658C475.789 129.615 482.225 133.675 489.118 136.714C493.258 138.31 497.526 139.513 501.872 140.311C506.36 141.256 511.041 141.979 515.819 142.743C524.82 143.865 533.709 145.808 542.385 148.55C549.423 150.946 555.961 154.717 561.649 159.662C565.473 163.006 568.628 167.103 570.934 171.718C571.535 172.986 572.069 174.288 572.533 175.616C572.67 176.092 572.857 176.551 573.092 176.983C573.002 176.499 572.88 176.022 572.726 175.556C572.341 174.181 571.859 172.837 571.281 171.537C569.077 166.783 565.955 162.556 562.111 159.119C556.419 154.024 549.83 150.134 542.712 147.666C534.003 144.827 525.067 142.81 516.012 141.637C511.215 140.894 506.553 140.15 502.103 139.246C497.806 138.47 493.584 137.3 489.485 135.75C482.659 132.791 476.265 128.848 470.49 124.035C466.548 120.838 462.773 117.424 459.182 113.807L456.273 110.833C455.953 110.462 455.598 110.125 455.213 109.828Z" fill="#455A64"/>
<path d="M406.301 70.0823C406.301 70.3034 410.057 70.444 415.933 72.0917C417.526 72.5243 419.095 73.0475 420.633 73.6591C422.309 74.2418 424.005 75.1059 425.835 75.9498C433.626 79.8743 440.483 85.5575 445.908 92.5877C447.103 94.2555 448.297 95.7826 449.222 97.3701C450.143 98.7851 450.986 100.254 451.746 101.771C454.577 107.317 455.598 111.135 455.753 111.054C455.624 110.148 455.405 109.259 455.098 108.402C454.82 107.359 454.473 106.339 454.057 105.347C453.569 103.974 453.003 102.632 452.362 101.329C451.643 99.7603 450.826 98.2433 449.915 96.7873C449.01 95.1798 447.835 93.5924 446.64 91.8844C443.884 88.3213 440.779 85.0684 437.374 82.179C433.912 79.3742 430.173 76.9627 426.22 74.9853C424.49 74.1369 422.715 73.3922 420.903 72.7548C418.037 71.7061 415.083 70.9391 412.08 70.4641C411.063 70.2584 410.033 70.1308 408.998 70.0823C408.102 69.9726 407.197 69.9726 406.301 70.0823Z" fill="#455A64"/>
<path d="M375.266 243.574C375.266 243.574 375.266 243.434 374.977 243.173L374.071 242.067C373.262 241.083 372.049 239.656 370.681 237.667C368.959 235.323 367.654 232.675 366.828 229.85C366.358 228.093 366.221 226.257 366.423 224.445C366.696 222.422 367.351 220.475 368.35 218.718C370.43 214.961 373.84 211.685 376.961 207.626C383.979 198.467 388.486 187.495 390.003 175.878C390.623 169.368 390.778 162.819 390.465 156.286C390.155 149.81 390.733 143.321 392.18 137.016C393.72 131.516 396.384 126.43 399.989 122.108C403.594 117.786 408.054 114.33 413.063 111.978C417.215 110.037 421.691 108.958 426.239 108.804C434.704 108.447 443.046 111.011 449.973 116.098L451.129 116.942C451.38 117.123 451.514 117.223 451.534 117.203C449.732 115.471 447.718 113.998 445.542 112.822C439.628 109.512 432.988 107.87 426.278 108.06C421.632 108.179 417.053 109.237 412.793 111.175C407.64 113.548 403.046 117.067 399.333 121.486C395.619 125.904 392.876 131.115 391.294 136.754C389.82 143.151 389.23 149.735 389.541 156.306C389.851 162.792 389.703 169.293 389.098 175.757C387.632 187.208 383.226 198.032 376.345 207.084C373.301 211.102 369.872 214.438 367.753 218.356C366.726 220.209 366.071 222.26 365.826 224.385C365.634 226.283 365.804 228.202 366.327 230.031C367.214 232.906 368.605 235.584 370.43 237.928C371.532 239.431 372.716 240.866 373.975 242.228L374.977 243.273C375.061 243.385 375.158 243.487 375.266 243.574Z" fill="#455A64"/>
<path d="M379.735 190.767C379.916 188.398 380.27 186.047 380.795 183.734C382.379 177.45 385.949 171.907 390.928 168.001C394.587 165.13 398.875 163.259 403.404 162.557C407.932 161.855 412.557 162.345 416.858 163.982C421.934 165.965 426.342 169.458 429.534 174.029C432.976 178.909 434.833 184.809 434.833 190.868C434.833 196.926 432.976 202.827 429.534 207.707C427.931 210.027 425.979 212.063 423.754 213.735C421.656 215.383 419.331 216.69 416.858 217.613C413.254 218.979 409.417 219.545 405.592 219.275C401.767 219.005 398.037 217.905 394.643 216.046C391.249 214.187 388.264 211.609 385.879 208.478C383.494 205.346 381.763 201.73 380.795 197.861C380.27 195.548 379.916 193.197 379.735 190.828C379.706 190.987 379.706 191.151 379.735 191.31C379.735 191.672 379.735 192.134 379.735 192.676C379.735 193.43 379.793 194.183 379.909 194.927C380.008 195.95 380.182 196.965 380.429 197.961C381.04 200.718 382.053 203.362 383.434 205.798C385.256 209.036 387.656 211.88 390.504 214.177C394.242 217.184 398.647 219.158 403.311 219.917C407.975 220.675 412.747 220.194 417.185 218.517C419.76 217.574 422.177 216.218 424.352 214.498C426.653 212.751 428.675 210.636 430.343 208.229C433.933 203.185 435.872 197.07 435.872 190.787C435.872 184.505 433.933 178.39 430.343 173.346C428.681 170.94 426.658 168.829 424.352 167.096C422.171 165.387 419.755 164.032 417.185 163.078C412.435 161.293 407.312 160.87 402.352 161.852C398.419 162.653 394.696 164.323 391.433 166.749C388.17 169.175 385.443 172.301 383.434 175.918C382.05 178.345 381.037 180.982 380.429 183.734C380.182 184.731 380.008 185.745 379.909 186.769C379.793 187.513 379.735 188.265 379.735 189.019C379.735 189.562 379.735 190.024 379.735 190.406C379.718 190.525 379.718 190.647 379.735 190.767Z" fill="white"/>
<path d="M525.894 309.322C526.236 309.146 526.553 308.923 526.838 308.659C527.435 308.197 528.283 307.494 529.4 306.65C532.515 304.048 535.438 301.207 538.146 298.15C542.326 293.639 545.186 287.979 546.392 281.834C546.791 278.206 546.945 274.553 546.854 270.902C546.788 267.078 547.836 263.322 549.859 260.132C552.126 257.068 554.647 254.217 557.391 251.612C559.937 249.041 562.035 246.029 563.595 242.71C564.975 239.707 565.984 236.534 566.6 233.266C567.18 230.434 567.445 227.541 567.39 224.646C567.39 221.973 566.793 219.642 566.561 217.593C566.336 215.841 566.297 214.069 566.446 212.308C566.773 209.415 567.313 207.867 567.216 207.827C567.039 208.179 566.897 208.55 566.793 208.932C566.471 210.017 566.226 211.125 566.06 212.248C565.853 214.043 565.853 215.858 566.06 217.653C566.234 219.663 566.696 222.074 566.754 224.666C566.725 230.764 565.409 236.78 562.901 242.288C561.368 245.498 559.315 248.408 556.833 250.889C554.018 253.519 551.439 256.411 549.127 259.529C548.008 261.208 547.18 263.078 546.68 265.055C546.239 266.957 546 268.905 545.968 270.862C546.063 274.471 545.928 278.083 545.563 281.673C544.445 287.692 541.729 293.262 537.723 297.748C535.077 300.828 532.239 303.721 529.227 306.409L526.607 308.498C526.344 308.748 526.105 309.024 525.894 309.322Z" fill="#455A64"/>
<path d="M547.798 262.523C547.764 262.797 547.764 263.074 547.798 263.347C547.798 263.89 547.798 264.673 547.952 265.698C548.278 268.586 548.924 271.425 549.878 274.158C552.922 283.329 558.966 291.089 566.949 296.075C574.932 301.062 584.343 302.956 593.531 301.425C596.284 300.992 598.979 300.23 601.565 299.155C602.489 298.793 603.164 298.391 603.626 298.17C604.088 297.949 604.32 297.788 604.3 297.748C600.781 299.104 597.141 300.093 593.435 300.702C589.407 301.244 585.325 301.17 581.318 300.481C571.394 298.895 562.46 293.319 556.428 284.948C553.958 281.59 551.972 277.874 550.533 273.917C549.277 270.218 548.361 266.403 547.798 262.523Z" fill="#455A64"/>
<path d="M555.215 253.079C555.295 254.017 555.482 254.941 555.773 255.832C556.456 258.295 557.366 260.684 558.49 262.965C562.239 270.539 567.918 276.887 574.903 281.311C581.905 285.686 589.862 288.121 598.02 288.384C600.473 288.463 602.928 288.328 605.36 287.982C606.257 287.898 607.142 287.709 607.999 287.42C604.685 287.668 601.361 287.742 598.039 287.641C590.043 287.18 582.275 284.697 575.404 280.407C568.57 276.063 562.95 269.924 559.106 262.604C557.61 259.521 556.311 256.339 555.215 253.079Z" fill="#455A64"/>
<path d="M611.563 233.065C611.034 232.635 610.451 232.284 609.829 232.02C609.14 231.633 608.426 231.297 607.691 231.016C606.729 230.595 605.745 230.233 604.743 229.931C602.15 229.118 599.484 228.58 596.787 228.323C593.483 228.022 590.157 228.09 586.866 228.524C583.58 229.008 580.352 229.85 577.234 231.036C574.702 232.05 572.275 233.329 569.99 234.854C569.113 235.429 568.27 236.06 567.467 236.743C566.829 237.219 566.23 237.75 565.675 238.33C565.162 238.779 564.702 239.292 564.307 239.857C564.442 240.018 566.465 237.848 570.376 235.477C572.662 234.071 575.068 232.888 577.561 231.94C580.63 230.845 583.79 230.051 587.001 229.569C590.195 229.15 593.42 229.049 596.633 229.268C599.281 229.482 601.906 229.946 604.474 230.654C608.943 231.86 611.37 233.246 611.563 233.065Z" fill="#455A64"/>
<path d="M567.216 229.348C567.39 229.569 579.546 218.799 594.341 205.235C609.136 191.672 621.002 180.64 620.829 180.419C620.656 180.198 608.5 190.988 593.686 204.532C578.871 218.075 567.062 229.147 567.216 229.348Z" fill="#FC1A2E"/>
<path d="M511.716 207.345C510.796 205.463 509.43 203.858 507.747 202.683C506.279 201.224 504.474 200.185 502.507 199.669C503.943 201.074 505.49 202.351 507.131 203.487C508.561 204.894 510.094 206.184 511.716 207.345Z" fill="white"/>
<path d="M565.81 218.658C565.906 218.533 565.99 218.398 566.061 218.256C566.234 217.914 566.446 217.513 566.716 217.03C567.463 215.405 567.969 213.67 568.218 211.886C568.93 205.203 567.104 198.495 563.132 193.199C561.878 191.423 560.437 189.798 558.836 188.356C557.082 186.823 555.184 185.477 553.173 184.337C548.708 181.897 543.914 180.177 538.956 179.233C528.534 176.963 516.801 177.505 504.858 175.657C499.013 174.85 493.341 173.023 488.078 170.251C483.27 167.525 478.923 163.995 475.21 159.802C468.907 152.661 463.859 144.417 460.299 135.448C457.14 127.833 455.155 121.383 453.711 117.042L452.073 111.958L451.63 110.652C451.585 110.5 451.527 110.352 451.457 110.21C451.457 110.21 451.457 110.371 451.457 110.672L451.803 112.019L453.402 117.243C455.186 123.544 457.289 129.742 459.702 135.81C463.208 144.917 468.252 153.295 474.593 160.546C478.381 164.815 482.821 168.4 487.731 171.156C493.066 173.998 498.824 175.873 504.761 176.701C516.859 178.59 528.534 177.987 538.84 180.198C549.146 182.408 557.989 186.889 562.632 193.641C566.528 198.75 568.403 205.22 567.871 211.725C567.539 214.135 566.843 216.475 565.81 218.658Z" fill="#FAFAFA"/>
<path d="M553.577 298.451C553.98 301.231 554.759 303.937 555.889 306.489C557.191 309.558 558.882 312.43 560.917 315.029C563.616 318.501 566.924 321.406 570.665 323.589C575.246 326.179 580.365 327.558 585.575 327.608C591.59 327.752 597.499 325.948 602.489 322.444C607.979 318.482 611.949 312.625 613.701 305.906C614.637 302.368 614.834 298.66 614.279 295.035C613.669 291.305 612.296 287.755 610.253 284.627C606.922 279.355 601.813 275.582 595.94 274.057V275.062C601.898 274.101 607.558 271.699 612.468 268.049C617.02 264.7 620.648 260.161 622.987 254.888C625.045 250.148 625.926 244.945 625.549 239.757C625.231 235.274 623.789 230.957 621.369 227.238C619.332 224.22 616.706 221.686 613.663 219.803C611.402 218.41 608.934 217.419 606.362 216.87C604.751 216.536 603.108 216.408 601.468 216.488L600.216 216.628C600.076 216.606 599.933 216.606 599.792 216.628C601.975 216.511 604.164 216.686 606.304 217.151C608.811 217.749 611.206 218.774 613.393 220.185C616.312 222.073 618.819 224.578 620.752 227.54C623.068 231.175 624.429 235.381 624.701 239.737C625.023 244.78 624.136 249.829 622.12 254.425C619.82 259.533 616.281 263.924 611.852 267.165C607.043 270.697 601.519 273.028 595.708 273.977L593.223 274.379L595.67 274.982C601.304 276.453 606.201 280.083 609.386 285.149C611.35 288.169 612.664 291.597 613.239 295.196C613.767 298.68 613.583 302.241 612.7 305.645C611.029 312.166 607.201 317.86 601.892 321.72C597.065 325.132 591.347 326.907 585.518 326.804C580.429 326.785 575.423 325.467 570.934 322.966C567.254 320.87 563.986 318.068 561.302 314.708C559.258 312.169 557.535 309.366 556.178 306.368C555.336 304.467 554.621 302.506 554.04 300.501C553.866 299.858 553.731 299.336 553.635 298.914L553.577 298.451Z" fill="#263238"/>
<path d="M564.924 211.545C565.087 211.494 565.243 211.42 565.386 211.324L566.735 210.58C568.421 209.573 570.025 208.424 571.532 207.144C577.129 202.376 581.399 196.132 583.899 189.059C586.801 180.676 587.057 171.545 584.631 163C582.205 154.454 577.224 146.941 570.414 141.557C564.965 137.368 558.838 134.237 552.325 132.314C545.813 130.396 539.134 129.164 532.386 128.636C525.913 127.993 519.672 127.692 513.738 127.27C508.122 126.902 502.528 126.231 496.978 125.261C492.159 124.397 487.43 123.051 482.858 121.242C476.22 118.688 470.169 114.711 465.096 109.567C463.76 108.121 462.518 106.584 461.378 104.966L460.492 103.7C460.4 103.545 460.29 103.403 460.164 103.278C461.432 105.674 463 107.883 464.826 109.849C469.861 115.173 475.949 119.287 482.665 121.905C487.269 123.772 492.037 125.165 496.901 126.064C502.476 127.043 508.096 127.714 513.738 128.074C525.586 129.058 538.782 129.159 551.978 133.238C558.371 135.132 564.391 138.193 569.759 142.28C576.433 147.537 581.335 154.868 583.759 163.217C586.182 171.566 586.002 180.502 583.244 188.738C580.828 195.696 576.711 201.874 571.3 206.662C569.833 207.972 568.274 209.167 566.638 210.238L565.367 211.062C565.199 211.201 565.05 211.364 564.924 211.545Z" fill="#263238"/>
<path d="M350.241 181.906C350.462 182.181 350.736 182.405 351.044 182.564C351.353 182.723 351.689 182.814 352.033 182.83C353.033 182.851 354.016 182.557 354.854 181.987C355.693 181.417 356.347 180.598 356.733 179.635C357.03 178.936 357.161 178.173 357.114 177.41C357.067 176.648 356.844 175.908 356.464 175.255C355.574 173.71 354.219 172.516 352.611 171.859C350.648 171.118 348.535 170.914 346.475 171.266C344.415 171.618 342.475 172.513 340.84 173.868C338.87 175.351 337.352 177.396 336.467 179.756C335.532 182.321 335.344 185.117 335.928 187.793C336.519 190.694 338.024 193.305 340.205 195.208C342.513 197.204 345.334 198.448 348.315 198.785C351.495 199.025 354.687 198.518 357.654 197.301C360.621 196.084 363.289 194.188 365.46 191.752C367.853 189.283 369.723 186.319 370.951 183.051C372.204 179.654 372.538 175.963 371.914 172.381C371.248 168.879 370.2 165.468 368.793 162.214C367.502 158.999 366.308 155.824 365.306 152.649C363.303 146.55 362.01 140.222 361.453 133.801C360.937 128.007 361.274 122.166 362.455 116.48C363.506 111.5 365.363 106.743 367.945 102.414C371.665 96.1163 377.005 91.034 383.357 87.745C385.093 86.9237 386.891 86.2516 388.732 85.7356L390.196 85.3538C390.364 85.3187 390.526 85.2578 390.677 85.173H390.176L388.693 85.4543C386.802 85.9029 384.956 86.5422 383.183 87.3632C376.689 90.5808 371.214 95.671 367.406 102.032C364.726 106.343 362.771 111.1 361.627 116.098C360.386 121.87 360.009 127.808 360.509 133.7C361.052 140.202 362.345 146.612 364.362 152.79C365.364 156.005 366.578 159.22 367.868 162.415C369.235 165.636 370.256 169.006 370.912 172.462C371.487 175.836 371.167 179.31 369.987 182.509C368.823 185.653 367.031 188.503 364.728 190.868C362.667 193.2 360.132 195.022 357.309 196.2C354.486 197.379 351.446 197.884 348.411 197.68C345.585 197.379 342.906 196.219 340.705 194.344C338.656 192.583 337.231 190.157 336.66 187.452C336.095 184.929 336.249 182.289 337.103 179.856C337.933 177.625 339.349 175.682 341.187 174.25C342.723 172.949 344.553 172.081 346.503 171.729C348.453 171.377 350.456 171.553 352.322 172.241C353.831 172.822 355.112 173.91 355.963 175.335C356.33 175.925 356.553 176.599 356.614 177.3C356.674 178 356.57 178.705 356.31 179.354C355.96 180.261 355.363 181.041 354.593 181.598C353.822 182.155 352.912 182.465 351.975 182.489C351.358 182.459 350.759 182.258 350.241 181.906Z" fill="#263238"/>
<g opacity="0.2">
<path opacity="0.4" d="M362.532 636.675C353.17 633.922 343.46 642.703 333.963 640.432C328.184 639.026 323.83 633.641 321.21 627.994C318.59 622.348 317.184 616.119 314.41 610.532C311.636 604.946 307.012 599.822 301.04 598.958C295.569 598.195 289.077 600.867 285.012 596.949C281.872 593.935 282.296 588.349 284.8 584.752C287.305 581.155 291.273 579.045 295.107 577.076C299.312 574.68 303.782 572.831 308.418 571.57C313.102 570.327 318.061 570.928 322.347 573.258C330.361 578.121 331.979 589.152 334.31 598.516C335.732 605.104 338.405 611.328 342.17 616.822C345.993 622.331 351.657 626.145 358.043 627.512C360.503 627.605 362.914 628.249 365.114 629.401C367.136 630.848 367.926 634.465 365.826 635.811" fill="black"/>
</g>
<path d="M411.329 600.566L376.229 587.806L344.77 536.506C343.236 534.003 341.228 531.854 338.869 530.189C336.511 528.523 333.852 527.377 331.054 526.821L274.629 515.708C273.912 517.951 274.009 520.39 274.9 522.563C275.791 524.737 277.415 526.495 279.464 527.504C286.996 531.985 320.882 540.223 320.882 540.223L268.695 539.299C268.695 539.299 267.096 547.156 273.01 549.969C278.925 552.782 316.105 554.189 316.105 554.189L268.464 561.262C268.464 561.262 268.194 569.159 279.079 569.299C289.796 569.198 300.502 568.527 311.154 567.29C311.596 567.221 312.046 567.336 312.406 567.61C312.767 567.885 313.009 568.297 313.08 568.757C313.15 569.2 313.056 569.655 312.816 570.028C312.576 570.401 312.209 570.665 311.79 570.766L280.138 578.563C279.226 578.775 278.406 579.295 277.806 580.044C277.207 580.792 276.861 581.727 276.824 582.701C276.786 583.676 277.059 584.636 277.599 585.432C278.14 586.228 278.917 586.816 279.811 587.103C280.39 587.256 280.99 587.297 281.583 587.223C286.958 586.661 319.187 582.401 319.187 582.401C319.187 582.401 330.553 623.955 337.912 627.311C345.271 630.667 360.702 631.591 360.702 631.591L393.451 645.114L411.329 600.566Z" fill="#ECC2B2"/>
<path d="M272.317 539.138C273.216 539.336 274.133 539.431 275.052 539.42L282.527 539.801C288.826 540.083 297.553 540.404 307.166 540.665L320.748 541.027C324.401 540.868 328.052 541.413 331.516 542.635C333.797 543.57 335.733 545.238 337.045 547.397C337.467 548.227 337.834 549.086 338.143 549.969C338.182 549.723 338.182 549.472 338.143 549.225C337.996 548.527 337.762 547.852 337.45 547.216C336.195 544.864 334.221 543.018 331.844 541.971C328.321 540.609 324.58 539.968 320.825 540.083L307.34 539.641C297.707 539.379 288.981 539.178 282.681 539.078H275.207C274.243 539.014 273.277 539.034 272.317 539.138Z" fill="#AA5050"/>
<path d="M271.527 561.402C272.372 561.437 273.218 561.376 274.051 561.222L280.87 560.317C286.65 559.534 294.586 558.308 303.352 556.982C307.725 556.339 311.905 555.515 315.681 555.173C318.993 554.757 322.348 555.387 325.313 556.982C327.29 558.127 328.995 559.72 330.303 561.644C331.227 563.01 331.593 563.874 331.671 563.834C331.64 563.604 331.575 563.38 331.478 563.171C331.243 562.558 330.96 561.966 330.63 561.402C329.391 559.32 327.685 557.582 325.66 556.339C322.601 554.558 319.087 553.814 315.604 554.209C311.751 554.51 307.571 555.314 303.178 555.937C294.413 557.303 286.476 558.609 280.755 559.594L273.974 560.82C273.142 560.931 272.322 561.126 271.527 561.402Z" fill="#AA5050"/>
<path d="M298.016 574.042C299.879 573.767 301.72 573.35 303.525 572.796C306.916 571.932 311.578 570.646 316.741 569.541C317.969 569.24 319.219 569.045 320.478 568.958C321.606 569.004 322.705 569.343 323.676 569.942C325.401 570.938 326.853 572.376 327.895 574.122C328.757 575.827 329.325 577.677 329.571 579.588C329.732 579.069 329.771 578.518 329.686 577.98C329.585 576.505 329.192 575.068 328.53 573.76C327.495 571.822 325.978 570.212 324.138 569.099C323.032 568.411 321.783 568.011 320.497 567.933C319.168 568.008 317.847 568.196 316.548 568.496C311.308 569.641 306.684 571.028 303.352 572.073C301.515 572.543 299.727 573.202 298.016 574.042Z" fill="#AA5050"/>
<path d="M671.88 628.155L566.6 614.652L381.951 583.345L358.121 645.818C427.472 670.895 498.635 693.521 568.449 713.414C574.155 714.601 579.971 715.114 585.787 714.941C609.097 715.042 666.582 705.276 671.88 628.155Z" fill="#FC1A2E"/>
<path d="M358.121 645.818C358.3 645.459 358.461 645.09 358.602 644.713C358.93 643.929 359.353 642.844 359.931 641.437C361.068 638.503 362.725 634.284 364.824 628.899L382.336 583.486L381.893 583.747L471.607 599.38C492.798 603.178 513.122 605.65 531.539 608.202C540.766 609.468 549.512 610.733 557.661 612.22C561.745 612.904 565.675 613.573 569.451 614.23C573.069 614.835 576.652 615.653 580.181 616.681C590.812 620.175 599.768 627.763 605.225 637.901C606.72 640.627 607.952 643.501 608.904 646.481C609.232 647.506 609.444 648.309 609.579 648.832C609.645 649.108 609.735 649.377 609.848 649.636C609.669 648.547 609.418 647.473 609.097 646.421C608.22 643.392 607.038 640.469 605.572 637.7C603.255 633.3 600.276 629.318 596.749 625.904C592.027 621.401 586.428 618.015 580.335 615.978C576.78 614.922 573.172 614.07 569.528 613.426C565.675 612.703 561.822 611.959 557.738 611.256C549.57 609.849 540.824 608.523 531.616 607.237C513.18 604.645 492.875 602.153 471.723 598.335L381.97 582.923H381.642L381.527 583.245C374.36 602.214 368.465 617.847 364.343 628.778L359.642 641.397C359.122 642.824 358.737 643.929 358.429 644.713C358.121 645.496 358.121 645.818 358.121 645.818Z" fill="#263238"/>
<path d="M615.223 711.626C614.936 711.657 614.652 711.718 614.376 711.807L611.929 712.429C609.771 712.912 606.593 713.675 602.432 714.198C590.676 715.709 578.759 715.111 567.197 712.429C563.537 711.626 559.761 710.541 555.812 709.375L543.521 705.758L516.551 697.721C497.498 691.934 476.597 685.443 454.731 678.35C418.129 666.494 384.493 654.88 358.409 645.496L358.641 646.039C365.846 626.949 371.76 611.336 375.863 600.425C377.886 595.02 379.446 590.78 380.544 587.846C381.064 586.44 381.45 585.355 381.739 584.551C382.028 583.747 382.105 583.426 382.105 583.426C382.105 583.426 381.931 583.787 381.623 584.511C381.315 585.234 380.891 586.379 380.332 587.766L375.458 600.244L357.909 645.737L357.754 646.139L358.14 646.28C384.262 655.804 417.859 667.479 454.462 679.355C476.327 686.448 497.248 692.918 516.32 698.665L543.444 706.703L555.754 710.239C559.607 711.385 563.46 712.47 567.178 713.253C578.822 715.884 590.817 716.38 602.624 714.72C606.91 714.114 611.129 713.078 615.223 711.626Z" fill="#263238"/>
<path d="M574.421 614.652C575.284 614.89 576.169 615.031 577.061 615.074L584.285 615.817L608.095 618.249L631.906 620.901L639.13 621.685C640.008 621.841 640.9 621.895 641.789 621.845C640.932 621.582 640.056 621.394 639.169 621.283C637.474 621.002 635.027 620.62 631.983 620.178C625.915 619.293 617.516 618.168 608.211 617.224C598.906 616.279 590.449 615.516 584.342 615.094C581.279 614.873 578.794 614.732 577.08 614.652C576.195 614.573 575.306 614.573 574.421 614.652Z" fill="#263238"/>
</g>
<path d="M198.816 259.372C200.72 243.623 213.458 228.946 228.67 228.946C237.638 228.946 246.187 233.832 252.318 240.683C254.498 242.987 256.504 245.463 258.316 248.091C259.605 245.143 261.107 242.301 262.809 239.591C267.531 231.647 274.976 225.073 283.753 223.226C298.681 220.128 313.951 231.885 318.768 246.939C323.585 261.993 319.567 278.874 311.666 292.419C303.764 305.963 290.151 323.698 265.075 332.476C247.806 330.172 224.653 314.185 214.352 302.507C204.052 290.83 196.95 275.121 198.816 259.372Z" fill="#FC1A2E"/>
<path d="M204.299 287.632H204.794L206.26 287.533L211.972 287.037L232.65 285.051L232.288 284.812L240.894 308.247L241.427 309.657L241.77 308.187C244.378 296.808 247.33 284.077 250.433 270.652L253.232 258.438L252.356 258.637L268.14 281.277L268.293 281.476H268.464L304.811 277.504L315.093 276.312L317.816 275.955L318.749 275.776C318.432 275.745 318.113 275.745 317.797 275.776L315.074 275.994L304.754 276.928L268.388 280.503L268.788 280.701L253.08 258.001L252.451 257.108L252.204 258.18C251.29 262.152 250.3 266.263 249.386 270.434C246.32 283.859 243.407 296.609 240.799 307.989H241.675L232.878 284.614L232.783 284.355H232.516L211.858 286.659L206.241 287.354L204.794 287.553L204.299 287.632Z" fill="#FAFAFA"/>
<path d="M772.123 568.591L741.325 578.107L746.571 596.577C747.209 598.825 748.677 600.716 750.652 601.834C752.627 602.953 754.946 603.207 757.101 602.541L771.706 598.029C773.86 597.363 775.673 595.832 776.745 593.772C777.818 591.712 778.061 589.292 777.423 587.045L772.178 568.574L772.123 568.591Z" fill="#FC1A2E"/>
<path opacity="0.3" d="M772.123 568.591L741.325 578.106L746.576 596.596C747.211 598.834 748.673 600.716 750.639 601.829C752.605 602.943 754.914 603.196 757.059 602.533L771.664 598.021C772.726 597.693 773.716 597.15 774.576 596.423C775.437 595.695 776.152 594.799 776.681 593.783C777.209 592.768 777.541 591.654 777.657 590.505C777.773 589.356 777.67 588.194 777.356 587.086L772.105 568.596L772.123 568.591Z" fill="black"/>
<path d="M746.14 596.574C751.425 595.495 756.639 594.069 761.752 592.305C766.928 590.869 772.015 589.105 776.984 587.022C771.701 588.117 766.487 589.549 761.372 591.312C756.198 592.746 751.111 594.504 746.14 596.574Z" fill="#263238"/>
<path d="M767.312 589.842C767.182 589.334 766.957 588.859 766.649 588.443C766.342 588.027 765.958 587.678 765.521 587.418C765.084 587.157 764.601 586.99 764.101 586.926C763.601 586.861 763.094 586.9 762.609 587.042L756.44 589.028C755.962 589.186 755.518 589.441 755.135 589.778C754.751 590.115 754.435 590.528 754.205 590.993C753.975 591.459 753.836 591.966 753.794 592.488C753.753 593.01 753.811 593.534 753.965 594.032L767.312 589.842Z" fill="#263238"/>
<path d="M742.693 412.552L776.965 560.33C777.75 563.449 777.355 566.763 775.863 569.587C774.371 572.411 771.896 574.529 768.949 575.503L746.501 582.454C743.602 583.288 740.509 582.959 737.831 581.533C735.153 580.107 733.084 577.686 732.031 574.748L678.205 432.451L742.693 412.552Z" fill="#FC1A2E"/>
<path d="M682.641 444.169C682.641 444.447 696.845 440.316 714.19 434.954C731.536 429.592 745.549 425.024 745.473 424.746C745.397 424.468 731.269 428.599 713.905 433.961C696.54 439.323 682.565 443.891 682.641 444.169Z" fill="#263238"/>
<path d="M740.523 426.434C740.426 424.305 740.002 422.206 739.266 420.218C738.836 418.125 738.098 416.115 737.076 414.26C737.16 416.388 737.578 418.488 738.314 420.476C738.735 422.574 739.481 424.586 740.523 426.434Z" fill="#263238"/>
<path d="M735.401 428.003C734.907 423.786 733.742 419.685 731.955 415.868C732.051 417.997 732.475 420.096 733.211 422.085C733.641 424.164 734.379 426.161 735.401 428.003Z" fill="#263238"/>
<path d="M730.298 429.592C730.202 427.463 729.778 425.364 729.042 423.375C728.622 421.28 727.883 419.269 726.852 417.417C726.936 419.546 727.354 421.646 728.09 423.634C728.51 425.732 729.256 427.744 730.298 429.592Z" fill="#263238"/>
<path d="M725.176 431.161C724.683 426.944 723.518 422.843 721.73 419.026C722.248 423.238 723.411 427.335 725.176 431.161Z" fill="#263238"/>
<path d="M720.074 432.749C719.977 430.62 719.553 428.522 718.817 426.533C718.397 424.438 717.658 422.426 716.628 420.575C716.711 422.704 717.13 424.804 717.865 426.791C718.286 428.889 719.032 430.902 720.074 432.749Z" fill="#263238"/>
<path d="M714.952 434.318C714.458 430.102 713.293 426.001 711.506 422.184C712.023 426.395 713.187 430.492 714.952 434.318Z" fill="#263238"/>
<path d="M709.849 435.907C709.753 433.778 709.329 431.679 708.593 429.691C708.173 427.596 707.434 425.584 706.403 423.733C706.487 425.862 706.905 427.962 707.641 429.949C708.062 432.047 708.808 434.059 709.849 435.907Z" fill="#263238"/>
<path d="M704.747 437.476C704.639 435.349 704.215 433.252 703.49 431.26C703.073 429.161 702.327 427.147 701.281 425.302C701.389 427.429 701.813 429.526 702.538 431.518C702.955 433.617 703.701 435.631 704.747 437.476Z" fill="#263238"/>
<path d="M699.625 439.065C699.542 436.936 699.124 434.836 698.387 432.849C697.956 430.754 697.211 428.743 696.179 426.891C696.275 429.02 696.699 431.119 697.435 433.107C697.855 435.202 698.594 437.214 699.625 439.065Z" fill="#263238"/>
<path d="M694.522 440.634C694.004 436.422 692.841 432.325 691.076 428.499C691.57 432.716 692.734 436.817 694.522 440.634Z" fill="#263238"/>
<path d="M689.4 442.223C689.318 440.094 688.9 437.994 688.163 436.006C687.742 433.908 686.996 431.896 685.954 430.048C686.05 432.177 686.475 434.276 687.211 436.265C687.63 438.36 688.37 440.372 689.4 442.223Z" fill="#263238"/>
<path d="M684.298 443.792C683.78 439.58 682.616 435.483 680.851 431.657C681.345 435.874 682.51 439.975 684.298 443.792Z" fill="#263238"/>
<path d="M734.411 489.807L731.993 481.347L723.977 483.829L726.224 491.753L719.674 493.759L722.035 502.081L729.289 499.856L731.345 507.105L738.048 505.02L735.839 497.235L743.74 494.792L741.646 487.424L734.411 489.807Z" fill="white"/>
<path d="M715.028 499.36C715.142 499.36 714.609 497.771 714.476 494.852C714.317 490.734 715.454 486.674 717.713 483.293C719.251 480.978 721.301 479.084 723.691 477.772C726.444 476.299 729.538 475.659 732.621 475.925C736.029 476.252 739.265 477.635 741.913 479.897C744.761 482.313 746.842 485.57 747.885 489.242C748.928 492.913 748.884 496.827 747.758 500.472C746.723 503.865 744.732 506.855 742.046 509.052C739.595 511.018 736.668 512.235 733.592 512.567C730.903 512.828 728.194 512.412 725.691 511.355C722.018 509.784 718.945 506.991 716.951 503.411C715.523 500.889 715.161 499.28 715.047 499.32C715.085 499.715 715.175 500.102 715.314 500.472C715.638 501.563 716.072 502.615 716.608 503.61C718.561 507.353 721.667 510.298 725.424 511.971C728.213 513.216 731.27 513.666 734.28 513.275C737.291 512.884 740.148 511.667 742.56 509.747C745.418 507.453 747.542 504.309 748.653 500.73C749.863 496.903 749.928 492.783 748.839 488.916C747.751 485.05 745.561 481.62 742.56 479.083C739.762 476.702 736.335 475.268 732.735 474.972C729.489 474.696 726.235 475.385 723.349 476.958C720.865 478.365 718.743 480.374 717.161 482.816C714.901 486.323 713.835 490.519 714.133 494.732C714.21 495.874 714.395 497.005 714.685 498.109C714.736 498.542 714.852 498.964 715.028 499.36Z" fill="white"/>
<defs>
<filter id="filter0_d_1_1336" x="264.463" y="70" width="413.409" height="871.082" filterUnits="userSpaceOnUse" color-interpolation-filters="sRGB">
<feFlood flood-opacity="0" result="BackgroundImageFix"/>
<feColorMatrix in="SourceAlpha" type="matrix" values="0 0 0 0 0 0 0 0 0 0 0 0 0 0 0 0 0 0 127 0" result="hardAlpha"/>
<feOffset dy="4"/>
<feGaussianBlur stdDeviation="2"/>
<feComposite in2="hardAlpha" operator="out"/>
<feColorMatrix type="matrix" values="0 0 0 0 0 0 0 0 0 0 0 0 0 0 0 0 0 0 0.25 0"/>
<feBlend mode="normal" in2="BackgroundImageFix" result="effect1_dropShadow_1_1336"/>
<feBlend mode="normal" in="SourceGraphic" in2="effect1_dropShadow_1_1336" result="shape"/>
</filter>
</defs>
</svg>
