<svg width="500" height="500" viewBox="0 0 500 500" fill="none" xmlns="http://www.w3.org/2000/svg">
<g clip-path="url(#clip0_8_3580)">
<path d="M502.043 311.398C502.043 311.398 518.801 163.872 447.523 83.6126C384.556 12.7278 289.566 -11.8488 216.602 52.0513C190.609 74.8111 159.67 98.0669 128.634 112.374C93.8527 128.424 54.8235 132.899 25.12 196.628C-4.58343 260.358 18.5515 362.07 64.8652 402.768C111.179 443.466 191.325 440.415 260.549 434.387C329.773 428.359 475.228 493.682 502.043 311.398Z" fill="#F7FFFE"/>
<path d="M222 71.78C222 71.78 190.16 96.16 186.93 108.34C183.7 120.52 188.17 141.92 186.93 146.15C185.69 150.38 165.79 162.31 165.54 179.47C165.29 196.63 173 213.55 234.93 221C296.86 228.45 320.48 193.39 320.48 174.49C320.48 155.59 304.57 143.65 301.83 134.7C299.09 125.75 310.54 109.58 294.12 89.7C277.7 69.82 234.93 50.64 222 71.78Z" fill="#263238" stroke="#263238" stroke-linejoin="round"/>
<path d="M360.14 292.66C360.14 292.66 365.89 342.05 367.09 355.23C368.29 368.41 365.17 376.09 355.82 380.89C346.47 385.69 341.44 388.8 331.82 378.97C322.2 369.14 328.94 350.2 328.46 342.76C327.98 335.32 321.27 306.76 321.27 306.76L360.14 292.66Z" fill="#FBBEA6" stroke="#263238" stroke-linejoin="round"/>
<path d="M361.27 306.51L324.89 318.65L321.3 306.8L360.14 292.65L361.27 306.51Z" fill="#263238" stroke="#263238" stroke-linejoin="round"/>
<path d="M338.08 339.89C338.08 339.89 354.86 335.57 362.77 351.16L338.08 339.89Z" fill="#FBBEA6"/>
<path d="M338.08 339.89C338.08 339.89 354.86 335.57 362.77 351.16" stroke="#263238" stroke-linejoin="round"/>
<path d="M303.84 356.42L313.48 300.15L360.22 287.3C360.22 287.3 358.53 248.74 348.41 233.7C338.29 218.66 312.03 210.18 295.41 204.84C278.79 199.5 263.12 196.35 263.12 196.35C263.12 196.35 233.24 192.23 219.99 199.51C219.99 199.51 174.69 219.39 166.74 223.27C158.79 227.15 149.88 231.52 146.5 250.19C143.12 268.86 141.44 285.6 141.44 285.6L172.52 301.12L181.92 356.42L179.92 372.07L145.15 441.5H341.41L306.11 371L303.84 356.42Z" fill="#FC1A2E" stroke="#263238" stroke-linejoin="round"/>
<path d="M253.45 284.67C254.51 284.67 255.37 283.81 255.37 282.75C255.37 281.69 254.51 280.83 253.45 280.83C252.39 280.83 251.53 281.69 251.53 282.75C251.53 283.81 252.39 284.67 253.45 284.67Z" stroke="#263238" stroke-linejoin="round"/>
<path d="M253.45 314.05C254.51 314.05 255.37 313.19 255.37 312.13C255.37 311.07 254.51 310.21 253.45 310.21C252.39 310.21 251.53 311.07 251.53 312.13C251.53 313.19 252.39 314.05 253.45 314.05Z" stroke="#263238" stroke-linejoin="round"/>
<path d="M253.45 343.42C254.51 343.42 255.37 342.56 255.37 341.5C255.37 340.44 254.51 339.58 253.45 339.58C252.39 339.58 251.53 340.44 251.53 341.5C251.53 342.56 252.39 343.42 253.45 343.42Z" stroke="#263238" stroke-linejoin="round"/>
<path d="M255.37 370.87C255.37 371.25 255.257 371.621 255.046 371.937C254.835 372.252 254.536 372.499 254.185 372.644C253.834 372.789 253.448 372.827 253.075 372.753C252.703 372.679 252.361 372.496 252.092 372.228C251.824 371.959 251.641 371.617 251.567 371.245C251.493 370.872 251.531 370.486 251.676 370.135C251.821 369.784 252.068 369.485 252.383 369.274C252.699 369.063 253.07 368.95 253.45 368.95C253.959 368.95 254.448 369.152 254.808 369.512C255.168 369.872 255.37 370.361 255.37 370.87Z" stroke="#263238" stroke-linejoin="round"/>
<path d="M253.45 402.16C254.51 402.16 255.37 401.3 255.37 400.24C255.37 399.18 254.51 398.32 253.45 398.32C252.39 398.32 251.53 399.18 251.53 400.24C251.53 401.3 252.39 402.16 253.45 402.16Z" stroke="#263238" stroke-linejoin="round"/>
<path d="M255.37 429.62C255.37 430 255.257 430.371 255.046 430.687C254.835 431.002 254.536 431.249 254.185 431.394C253.834 431.539 253.448 431.577 253.075 431.503C252.703 431.429 252.361 431.246 252.092 430.978C251.824 430.709 251.641 430.367 251.567 429.995C251.493 429.622 251.531 429.236 251.676 428.885C251.821 428.534 252.068 428.235 252.383 428.024C252.699 427.813 253.07 427.7 253.45 427.7C253.959 427.7 254.448 427.902 254.808 428.262C255.168 428.622 255.37 429.111 255.37 429.62Z" stroke="#263238" stroke-linejoin="round"/>
<path d="M246.47 271.78V419.58" stroke="#263238" stroke-linejoin="round"/>
<path d="M314.03 281.43L311.5 296.27L320.79 280.46" stroke="#263238" stroke-linejoin="round"/>
<path d="M175.62 281.43L178.15 296.27L168.86 280.46" stroke="#263238" stroke-linejoin="round"/>
<path d="M205.42 242.67C205.42 242.67 199.27 252.77 202.35 251.89C205.43 251.01 222.55 239.6 222.55 239.6C222.55 239.6 215.96 249.7 221.23 253.21C226.5 256.72 248 266.91 248 266.91C248 266.91 273.49 256.73 273.93 252.77C274.37 248.81 273.05 247.06 273.05 244.87C273.05 242.68 270.41 240.04 275.69 241.79C280.97 243.54 300.28 254.09 298.96 251.46C297.64 248.83 276.26 206.46 273.34 205.02C270.42 203.58 230.89 202.26 223.86 206.22C216.83 210.18 205.42 242.67 205.42 242.67Z" fill="#263238" stroke="#263238" stroke-linejoin="round"/>
<path d="M135.47 272.94L131.78 290.84L175.49 312.32L179.75 297.1L135.47 272.94Z" fill="#FC1A2E" stroke="#263238" stroke-linejoin="round"/>
<path d="M311.5 296.27L315.59 312.04L367.4 296.52L360.41 277.84L311.5 296.27Z" fill="#FC1A2E" stroke="#263238" stroke-linejoin="round"/>
<path d="M223.32 187.18C223.32 187.18 212.12 200.76 210.92 202.93C209.72 205.1 200.83 240.44 197.21 247.43C193.59 254.42 199.14 252.24 202.99 247.91C206.84 243.58 222.99 233.91 222.51 236.82C222.03 239.73 217.69 246.7 220.34 248.15C222.99 249.6 244.68 267.67 246.6 267.67C248.52 267.67 276 250.08 276.96 247.67C277.92 245.26 271.66 235.67 274.8 236.1C277.94 236.53 300.8 257.55 303.47 255.86C306.14 254.17 291.42 219.96 284.47 204.54C282.334 199.553 278.906 195.227 274.539 192.008C270.173 188.789 265.026 186.794 259.63 186.23C255.74 186 223.32 187.18 223.32 187.18Z" fill="#FC1A2E" stroke="#263238" stroke-linejoin="round"/>
<path d="M224 181.89C224 181.89 219.66 201.41 219.66 206.71C219.66 212.01 243.48 273.89 248.05 266.91C252.62 259.93 273.39 208.91 273.39 205.02C273.39 201.13 271.46 180.44 271.46 180.44C271.46 180.44 254.6 191.77 247.37 192.49C240.14 193.21 224 181.89 224 181.89Z" fill="#FBBEA6" stroke="#263238" stroke-linejoin="round"/>
<path d="M222.7 184.77C222.7 184.77 216 211 223.12 213C230.24 215 270.92 187.31 270.92 187.31L222.7 184.77Z" fill="#263238" stroke="#263238" stroke-linejoin="round"/>
<path d="M229 100.88C227.546 109.046 225.039 116.989 221.54 124.51C216.07 135.7 205.12 144.65 205.12 144.65C205.12 144.65 203.38 150.12 205.62 153.65C206.979 155.762 208.864 157.485 211.09 158.65C211.09 158.65 216.81 175.81 219.09 180.04C221.37 184.27 237.5 200.68 241.72 202.42C245.94 204.16 254.16 203.92 257.64 201.93C261.12 199.94 274.22 184.7 276 180.22C277.78 175.74 282 157.59 282 157.59C282 157.59 285.24 156.59 287.23 151.59C288.495 148.152 289.249 144.547 289.47 140.89C289.47 140.89 282.75 139.65 272.55 136.89C262.35 134.13 260.37 132.42 260.37 132.42C260.37 132.42 252.16 132.67 241.96 125.2C231.76 117.73 229 100.88 229 100.88Z" fill="#FBBEA6" stroke="#263238" stroke-linejoin="round"/>
<path d="M238.66 104.86C238.66 104.86 239.66 118.29 246.12 123.51C252.58 128.73 256.57 127.74 256.57 127.74C256.57 127.74 243.88 116.55 238.66 104.86Z" fill="#FBBEA6" stroke="#263238" stroke-linejoin="round"/>
<path d="M224 151.62C226.171 152.787 228.59 153.418 231.055 153.462C233.519 153.505 235.959 152.96 238.17 151.87" stroke="#263238" stroke-width="2" stroke-linejoin="round"/>
<path d="M256.82 151.62C258.991 152.787 261.41 153.418 263.875 153.462C266.339 153.505 268.779 152.96 270.99 151.87" stroke="#263238" stroke-width="2" stroke-linejoin="round"/>
<path d="M238.16 140.43C238.16 140.43 230.7 136.69 222.49 143.43" stroke="#263238" stroke-linejoin="round"/>
<path d="M257.06 140.43C257.06 140.43 264.52 136.69 272.73 143.43" stroke="#263238" stroke-linejoin="round"/>
<path d="M241.64 171.76C241.64 171.76 243.88 174.76 246.87 175C249.86 175.24 252.87 174.5 254.33 172.51" stroke="#263238" stroke-linejoin="round"/>
<path d="M236.67 180.72C236.67 180.72 242.67 184.72 248.36 184.2C254.05 183.68 259.55 179.72 259.55 179.72" stroke="#263238" stroke-linejoin="round"/>
<path d="M344.79 346.6C344.79 346.6 339.52 338.21 337.12 335.09C334.72 331.97 329.45 330.54 322.73 323.34C316.01 316.14 313.38 323.1 315.54 327.9C317.7 332.7 323.45 336.53 326.09 338.21C328.73 339.89 330.89 344.44 330.89 346.6C330.89 348.76 329.45 353.79 329.45 353.79C327.228 350.973 324.858 348.276 322.35 345.71C316.5 339.41 312.19 334.37 310.99 339.65C309.79 344.93 311.99 347.56 315.99 351.16C319.99 354.76 324.38 359.31 324.86 360.27C325.34 361.23 326.78 368.66 328.94 370.1C331.1 371.54 333.73 372.49 333.73 373.69C333.73 374.89 331.82 379.21 336.37 384.48C340.92 389.75 346.44 389.04 349.37 381.36C352.3 373.68 352 359.79 349.13 353.07C346.26 346.35 344.79 346.6 344.79 346.6Z" fill="#FBBEA6" stroke="#263238" stroke-linejoin="round"/>
<path d="M342.63 344.44C342.63 344.44 336.4 350.68 329.45 353.79C322.5 356.9 317.94 358.35 317.45 360.99C316.96 363.63 317.69 365.99 323.2 365.54C328.71 365.09 345.5 358.54 348.38 354.99C351.26 351.44 349.59 340.61 342.63 344.44Z" fill="#FBBEA6" stroke="#263238" stroke-linejoin="round"/>
<path d="M351.09 367.62C351.09 367.62 352.22 370.34 347.19 374.89C342.16 379.44 332.32 384.48 328.25 385.44C324.18 386.4 320.82 384.44 323.45 381.84C326.08 379.24 333.76 373.69 333.76 373.69C339.722 372.242 345.527 370.209 351.09 367.62Z" fill="#FBBEA6" stroke="#263238" stroke-linejoin="round"/>
<path d="M348.39 355C348.39 355 352.46 353.32 353.66 361.71C354.86 370.1 337.84 374.42 331.13 374.9C324.42 375.38 319.86 372.74 320.82 370.59C321.78 368.44 322.73 368.19 330.89 364.83C339.05 361.47 348.39 355 348.39 355Z" fill="#FBBEA6" stroke="#263238" stroke-linejoin="round"/>
<path d="M138.59 278C138.59 278 127.51 282.09 131.12 292.69C134.73 303.29 136.18 306.19 137.39 312.69C138.6 319.19 134.26 324.02 130.16 347.87C126.06 371.72 140.28 376.78 147.51 381.12C154.74 385.46 165.58 361.12 166.78 353.89C167.98 346.66 159.31 325.22 157.63 313.66C155.95 302.1 153.53 295.58 159.07 287.66C164.61 279.74 155.46 277.06 152.57 275.38C149.68 273.7 138.59 278 138.59 278Z" fill="#FBBEA6" stroke="#263238" stroke-linejoin="round"/>
<path d="M145.58 311.76C153.53 311.76 158.83 304.05 158.83 304.05C161.385 303.222 163.672 301.723 165.45 299.71C167.98 296.58 167.99 290.8 167.99 290.8C167.99 290.8 174.05 282.11 178.59 279.47C183.13 276.83 186.3 275.13 187.75 270.56C189.2 265.99 187.02 263.56 181.24 268.39C175.46 273.22 172.81 274.17 172.81 274.17L152.81 278.27" fill="#FBBEA6"/>
<path d="M145.58 311.76C153.53 311.76 158.83 304.05 158.83 304.05C161.385 303.222 163.672 301.723 165.45 299.71C167.98 296.58 167.99 290.8 167.99 290.8C167.99 290.8 174.05 282.11 178.59 279.47C183.13 276.83 186.3 275.13 187.75 270.56C189.2 265.99 187.02 263.56 181.24 268.39C175.46 273.22 172.81 274.17 172.81 274.17L152.81 278.27" stroke="#263238" stroke-linejoin="round"/>
<path d="M177.015 274.886L149.154 287.589L171.726 337.096L199.587 324.393L177.015 274.886Z" fill="#FBBEA6" stroke="#263238" stroke-linejoin="round"/>
<path d="M165.32 284.68L184.22 326.12" stroke="#263238" stroke-linejoin="round"/>
<path d="M159.22 299C159.766 299.246 160.386 299.267 160.947 299.059C161.509 298.852 161.966 298.432 162.22 297.89L165.07 291.77C165.31 291.222 165.327 290.603 165.118 290.043C164.909 289.483 164.49 289.026 163.95 288.77C163.404 288.53 162.785 288.511 162.225 288.718C161.666 288.925 161.208 289.342 160.95 289.88L158.11 296C157.867 296.546 157.847 297.165 158.054 297.726C158.262 298.286 158.68 298.744 159.22 299Z" fill="#263238" stroke="#263238" stroke-linejoin="round"/>
<path d="M163.72 308.87C164.266 309.113 164.885 309.133 165.446 308.926C166.006 308.718 166.464 308.3 166.72 307.76L169.56 301.64C169.806 301.094 169.827 300.474 169.619 299.913C169.412 299.351 168.992 298.894 168.45 298.64C167.904 298.397 167.285 298.377 166.724 298.584C166.164 298.792 165.706 299.21 165.45 299.75L162.61 305.87C162.367 306.416 162.347 307.035 162.554 307.596C162.762 308.156 163.18 308.614 163.72 308.87Z" fill="#263238" stroke="#263238" stroke-linejoin="round"/>
<path d="M168.22 318.73C168.766 318.976 169.386 318.997 169.947 318.789C170.509 318.582 170.966 318.162 171.22 317.62L174.06 311.5C174.306 310.954 174.327 310.334 174.119 309.773C173.912 309.211 173.492 308.754 172.95 308.5C172.404 308.257 171.785 308.237 171.224 308.444C170.664 308.652 170.206 309.07 169.95 309.61L167.11 315.73C166.867 316.276 166.847 316.895 167.054 317.456C167.262 318.016 167.68 318.474 168.22 318.73Z" fill="#263238" stroke="#263238" stroke-linejoin="round"/>
<path d="M172.72 328.6C173.266 328.843 173.885 328.863 174.446 328.656C175.006 328.448 175.464 328.03 175.72 327.49L178.56 321.37C178.803 320.824 178.823 320.205 178.616 319.644C178.408 319.084 177.99 318.626 177.45 318.37C176.904 318.127 176.285 318.107 175.724 318.314C175.164 318.522 174.706 318.94 174.45 319.48L171.61 325.6C171.364 326.146 171.343 326.766 171.551 327.327C171.758 327.889 172.178 328.346 172.72 328.6Z" fill="#263238" stroke="#263238" stroke-linejoin="round"/>
<path d="M172.17 293.1C172.716 293.343 173.335 293.363 173.896 293.156C174.456 292.948 174.914 292.53 175.17 291.99L178.01 285.87C178.253 285.324 178.273 284.705 178.066 284.144C177.858 283.584 177.44 283.126 176.9 282.87C176.354 282.627 175.735 282.607 175.174 282.814C174.614 283.022 174.156 283.44 173.9 283.98L171.05 290.1C170.808 290.647 170.789 291.268 170.998 291.828C171.208 292.389 171.628 292.845 172.17 293.1Z" fill="#263238" stroke="#263238" stroke-linejoin="round"/>
<path d="M176.66 303C177.207 303.242 177.828 303.261 178.388 303.052C178.949 302.842 179.405 302.422 179.66 301.88L182.51 295.77C182.753 295.224 182.773 294.605 182.566 294.044C182.358 293.484 181.94 293.026 181.4 292.77C181.127 292.642 180.831 292.569 180.53 292.556C180.229 292.542 179.928 292.588 179.644 292.691C179.361 292.794 179.101 292.953 178.879 293.157C178.657 293.361 178.477 293.606 178.35 293.88L175.51 300C175.272 300.551 175.259 301.174 175.474 301.734C175.689 302.295 176.115 302.749 176.66 303Z" fill="#263238" stroke="#263238" stroke-linejoin="round"/>
<path d="M181.16 312.83C181.706 313.073 182.325 313.093 182.886 312.886C183.446 312.678 183.904 312.26 184.16 311.72L187.01 305.6C187.252 305.053 187.271 304.432 187.062 303.872C186.852 303.311 186.432 302.855 185.89 302.6C185.344 302.36 184.725 302.341 184.165 302.548C183.606 302.755 183.148 303.172 182.89 303.71L180.05 309.83C179.807 310.376 179.787 310.995 179.994 311.556C180.202 312.116 180.62 312.574 181.16 312.83Z" fill="#263238" stroke="#263238" stroke-linejoin="round"/>
<path d="M185.66 322.7C186.206 322.943 186.825 322.963 187.386 322.756C187.946 322.548 188.404 322.13 188.66 321.59L191.5 315.47C191.746 314.924 191.767 314.304 191.559 313.743C191.352 313.181 190.932 312.724 190.39 312.47C189.844 312.224 189.224 312.203 188.663 312.411C188.101 312.618 187.644 313.038 187.39 313.58L184.55 319.7C184.307 320.246 184.287 320.865 184.494 321.426C184.702 321.986 185.12 322.444 185.66 322.7Z" fill="#263238" stroke="#263238" stroke-linejoin="round"/>
<path d="M154.74 269.59C154.74 269.59 161.24 262.85 164.61 264.05C167.98 265.25 176.61 274.17 176.9 276.34C177.19 278.51 180.28 285.5 179.07 285.98C177.86 286.46 169.92 281.4 166.54 277.98C163.16 274.56 154.74 269.59 154.74 269.59Z" fill="#FBBEA6" stroke="#263238" stroke-linejoin="round"/>
<path d="M141.73 279C141.73 279 147.03 267.43 150.64 267.43C154.25 267.43 167.27 273.22 168.95 275.63C170.63 278.04 178.35 285.51 176.42 286.47C174.49 287.43 170.42 285.47 167.51 283.34C166.04 282.213 164.511 281.165 162.93 280.2L154.74 277.79" fill="#FBBEA6"/>
<path d="M141.73 279C141.73 279 147.03 267.43 150.64 267.43C154.25 267.43 167.27 273.22 168.95 275.63C170.63 278.04 178.35 285.51 176.42 286.47C174.49 287.43 170.42 285.47 167.51 283.34C166.04 282.213 164.511 281.165 162.93 280.2L154.74 277.79" stroke="#263238" stroke-linejoin="round"/>
<path d="M133.29 283.33C133.29 283.33 138.59 271.76 142.21 271.76C145.83 271.76 158.83 277.54 160.52 279.95C162.21 282.36 169.92 289.83 167.99 290.8C166.06 291.77 161.99 289.8 159.07 287.66C157.603 286.537 156.078 285.492 154.5 284.53L146.3 282.12" fill="#FBBEA6"/>
<path d="M133.29 283.33C133.29 283.33 138.59 271.76 142.21 271.76C145.83 271.76 158.83 277.54 160.52 279.95C162.21 282.36 169.92 289.83 167.99 290.8C166.06 291.77 161.99 289.8 159.07 287.66C157.603 286.537 156.078 285.492 154.5 284.53L146.3 282.12" stroke="#263238" stroke-linejoin="round"/>
<path d="M131.12 288.63C131.12 288.63 128.47 282.84 131.12 281.63C133.77 280.42 150.88 276.33 152.57 275.37C154.26 274.41 157.39 275.85 153.57 280.18C149.75 284.51 138.39 287.18 137.19 287.41" fill="#FBBEA6"/>
<path d="M131.12 288.63C131.12 288.63 128.47 282.84 131.12 281.63C133.77 280.42 150.88 276.33 152.57 275.37C154.26 274.41 157.39 275.85 153.57 280.18C149.75 284.51 138.39 287.18 137.19 287.41" stroke="#263238" stroke-linejoin="round"/>
<path d="M98.09 205.12L84.54 214.42C84.54 214.42 77.41 218.53 73.72 225.15L58.81 265.15C58.81 265.15 57.07 267.28 55.2 266.74C53.9977 266.391 52.8187 265.967 51.67 265.47C50.6494 264.94 49.531 264.624 48.3837 264.544C47.2365 264.463 46.0848 264.618 45 265C41.71 266.37 38.88 269.21 38.16 274.43C37.44 279.65 39.16 283.73 42.62 285.2C46.08 286.67 49.29 286.44 52.23 284.11C55.17 281.78 57.57 276.59 58.23 274.83C58.69 273.56 59.35 271.66 59.67 270.7L71.76 240.35L73.95 239.63C73.95 239.63 81.19 226 84.4 223.59C87.61 221.18 96.93 214.06 98.4 211.59C99.87 209.12 98.09 205.12 98.09 205.12ZM51.83 282.53C50.39 283.93 47.03 285 43.18 283.38C39.33 281.76 38.78 277.12 39.32 274.17C39.86 271.22 43.07 266.36 46.25 266.45C49.43 266.54 52.97 267.71 54.5 270.59C56.03 273.47 54.76 277.59 54.76 277.59C53.78 280 53.27 281.12 51.83 282.53Z" fill="white" stroke="black" stroke-linejoin="round"/>
<path d="M84 273.63C81.39 271.31 76.23 271.71 76.23 271.71C75.8983 271.692 75.5739 271.606 75.2765 271.458C74.9792 271.31 74.7153 271.102 74.5009 270.849C74.2865 270.595 74.1261 270.3 74.0297 269.982C73.9332 269.664 73.9027 269.33 73.94 269C74.15 266.52 80.62 228.11 80.62 228.11L81.62 223.11L94.35 199L96.07 194.5C96.07 194.5 95.33 193.84 94.92 193.89L91.85 197.21C91.85 197.21 74.9 218.88 74.51 220.51C74.12 222.14 73.72 225.15 73.72 225.15L71.79 238.15C71.79 238.15 75.19 240.75 75.26 242.45C75.33 243.99 70.26 275.86 69.26 282.23C69.1715 282.591 69.1113 282.959 69.08 283.33C68.89 286.61 70.6 292.24 75.46 292.13C80.32 292.02 83.73 289.4 85.74 284.91C87.75 280.42 86.6 276 84 273.63ZM84.33 284.63C82.71 288.25 79.95 290.35 76.01 290.44C72.07 290.53 70.67 285.97 70.82 283.33C70.9112 281.863 71.2954 280.43 71.9498 279.114C72.6042 277.799 73.5155 276.628 74.63 275.67C75.7234 274.66 77.1423 274.074 78.63 274.02C80.1769 274.085 81.6683 274.615 82.91 275.54C85 277.43 86 281 84.32 284.65L84.33 284.63Z" fill="white" stroke="black" stroke-linejoin="round"/>
<path d="M76.52 220.65L81.65 223.09" stroke="black" stroke-linejoin="round"/>
<path d="M79.14 229.76C78.9937 230.07 78.7604 230.331 78.4685 230.511C78.1766 230.691 77.8387 230.783 77.4959 230.774C77.153 230.766 76.82 230.658 76.5372 230.464C76.2545 230.27 76.0343 229.998 75.9033 229.681C75.7723 229.364 75.7362 229.016 75.7995 228.679C75.8627 228.342 76.0225 228.03 76.2594 227.782C76.4963 227.534 76.8002 227.36 77.1341 227.282C77.4679 227.203 77.8174 227.224 78.14 227.34C78.3647 227.433 78.5688 227.57 78.7407 227.742C78.9126 227.914 79.0489 228.118 79.1418 228.343C79.2347 228.567 79.2823 228.808 79.282 229.051C79.2817 229.295 79.2334 229.535 79.14 229.76Z" fill="white" stroke="black" stroke-linejoin="round"/>
<path d="M79.14 229.76L75.83 228.57" stroke="black" stroke-linejoin="round"/>
<path d="M83.36 219.3C83.2824 218.713 83.0436 218.159 82.67 217.7C82.04 216.89 81.11 216.21 81.74 214.92C82.37 213.63 92.39 197.77 92.39 197.77L93.57 198.7" fill="white"/>
<path d="M83.36 219.3C83.2824 218.713 83.0436 218.159 82.67 217.7C82.04 216.89 81.11 216.21 81.74 214.92C82.37 213.63 92.39 197.77 92.39 197.77L93.57 198.7" stroke="black" stroke-linejoin="round"/>
<path d="M169.35 59.71C166.07 51.71 160.43 46.38 156.75 47.88C156.214 48.0981 155.737 48.4409 155.36 48.88L94.82 92.41L106.7 121.51L168.63 77C172.31 75.48 172.63 67.75 169.35 59.71Z" fill="white" stroke="black" stroke-linejoin="round"/>
<path d="M164.68 63C161.4 55 155.75 49.66 152.07 51.16C151.529 51.3979 151.053 51.7613 150.68 52.22L90.14 95.73L102 124.84L164 80.31C167.63 78.81 168 71.07 164.68 63Z" fill="white" stroke="black" stroke-linejoin="round"/>
<path d="M107.92 105.22C103.54 94.48 96 87.4 91.08 89.41C90.3515 89.7165 89.7119 90.2014 89.22 90.82L71 103.76L86.88 142.66L107 128.31C111.88 126.3 112.31 116 107.92 105.22Z" fill="white" stroke="black" stroke-linejoin="round"/>
<path d="M87.83 119.57C92.21 130.32 91.83 140.65 86.83 142.66C81.83 144.67 74.4 137.59 70 126.85C65.6 116.11 66 105.77 71 103.76C76 101.75 83.44 108.83 87.83 119.57Z" fill="white" stroke="black" stroke-linejoin="round"/>
<path d="M85.8456 140.149C90.1304 138.399 90.5068 129.396 86.6864 120.039C82.866 110.682 76.2955 104.515 72.0107 106.264C67.726 108.014 67.3495 117.017 71.1699 126.374C74.9903 135.731 81.5609 141.898 85.8456 140.149Z" fill="white" stroke="black" stroke-linejoin="round"/>
<path d="M115.461 96.9312L112.107 92.2727L105.704 96.8825L109.058 101.541L115.461 96.9312Z" fill="white" stroke="black" stroke-linejoin="round"/>
<path d="M432.332 105.89L421.793 71.7811L361.181 90.509L371.72 124.618L432.332 105.89Z" fill="white" stroke="black" stroke-linejoin="round"/>
<path d="M422.75 90.9L372.02 106.58" stroke="black" stroke-linejoin="round"/>
<path d="M418.076 89.0982L418.481 88.4555C419.156 87.3858 418.836 85.9717 417.766 85.2968L410.476 80.697C409.407 80.0222 407.992 80.3421 407.318 81.4118L406.912 82.0545C406.237 83.1241 406.557 84.5383 407.627 85.2132L414.917 89.813C415.987 90.4879 417.401 90.1678 418.076 89.0982Z" fill="white" stroke="black" stroke-linejoin="round"/>
<path d="M405.967 92.8066L406.373 92.1639C407.048 91.0944 406.728 89.6802 405.659 89.0051L398.369 84.4041C397.3 83.729 395.885 84.0488 395.21 85.1183L394.805 85.761C394.13 86.8305 394.449 88.2447 395.519 88.9198L402.808 93.5208C403.878 94.1959 405.292 93.8761 405.967 92.8066Z" fill="white" stroke="black" stroke-linejoin="round"/>
<path d="M393.891 96.5404L394.296 95.8977C394.971 94.8282 394.652 93.414 393.582 92.7389L386.293 88.1379C385.223 87.4628 383.809 87.7826 383.134 88.8521L382.728 89.4947C382.053 90.5642 382.373 91.9785 383.443 92.6536L390.732 97.2546C391.801 97.9296 393.216 97.6099 393.891 96.5404Z" fill="white" stroke="black" stroke-linejoin="round"/>
<path d="M381.832 100.283L382.237 99.6398C382.912 98.5702 382.592 97.156 381.522 96.4811L374.232 91.8813C373.163 91.2065 371.748 91.5265 371.074 92.5961L370.668 93.2388C369.993 94.3085 370.313 95.7226 371.383 96.3975L378.673 100.997C379.743 101.672 381.157 101.352 381.832 100.283Z" fill="white" stroke="black" stroke-linejoin="round"/>
<path d="M422.973 104.952L423.379 104.309C424.054 103.239 423.734 101.825 422.665 101.15L415.375 96.5491C414.306 95.874 412.892 96.1938 412.217 97.2633L411.811 97.906C411.136 98.9755 411.456 100.39 412.525 101.065L419.814 105.666C420.884 106.341 422.298 106.021 422.973 104.952Z" fill="white" stroke="black" stroke-linejoin="round"/>
<path d="M410.867 108.655L411.273 108.013C411.948 106.943 411.628 105.529 410.558 104.854L403.269 100.253C402.199 99.5778 400.785 99.8976 400.11 100.967L399.704 101.61C399.029 102.679 399.349 104.094 400.419 104.769L407.708 109.37C408.778 110.045 410.192 109.725 410.867 108.655Z" fill="white" stroke="black" stroke-linejoin="round"/>
<path d="M398.782 112.384L399.188 111.741C399.863 110.672 399.543 109.257 398.473 108.582L391.184 103.981C390.115 103.306 388.7 103.626 388.025 104.696L387.62 105.338C386.945 106.408 387.264 107.822 388.334 108.497L395.623 113.098C396.693 113.773 398.107 113.453 398.782 112.384Z" fill="white" stroke="black" stroke-linejoin="round"/>
<path d="M386.706 116.118L387.111 115.475C387.786 114.405 387.467 112.991 386.397 112.316L379.108 107.715C378.038 107.04 376.624 107.36 375.949 108.429L375.543 109.072C374.868 110.142 375.188 111.556 376.257 112.231L383.547 116.832C384.616 117.507 386.031 117.187 386.706 116.118Z" fill="white" stroke="black" stroke-linejoin="round"/>
<path d="M398.14 202L391.73 207.88L383.59 196.41L387.43 192.89L398.14 202Z" fill="white" stroke="black" stroke-linejoin="round"/>
<path d="M395 201.65L392.14 204.28C391.481 204.889 390.949 205.621 390.573 206.436C390.198 207.251 389.987 208.132 389.953 209.028C389.918 209.925 390.061 210.819 390.373 211.66C390.685 212.501 391.16 213.273 391.77 213.93L436.53 262.2L441.38 270.92L460.23 252L451.51 247.16L404.31 201.72C403.056 200.531 401.397 199.862 399.669 199.849C397.941 199.836 396.272 200.48 395 201.65Z" fill="white" stroke="black" stroke-linejoin="round"/>
<path d="M429.42 254.57L438.27 244.19L404.46 211.32L396.3 218.86L429.42 254.57Z" fill="white" stroke="black" stroke-linejoin="round"/>
<path d="M427.16 393.26H402.71V441.5H427.16V393.26Z" fill="white" stroke="#263238" stroke-linejoin="round"/>
<path d="M422.63 408.09H407.23V426.67H422.63V408.09Z" fill="white" stroke="#263238" stroke-linejoin="round"/>
<path d="M421.72 380.69H408.14V393.08H421.72V380.69Z" fill="white" stroke="#263238" stroke-linejoin="round"/>
<path d="M417.08 361.08H412.78L411.35 380.77H418.52L417.08 361.08Z" fill="white" stroke="#263238" stroke-linejoin="round"/>
<path d="M421.72 386.66H408.14V393.08H421.72V386.66Z" fill="white" stroke="#263238" stroke-linejoin="round"/>
<path d="M386.12 408.5H349.67V441.5H386.12V408.5Z" fill="white" stroke="#263238" stroke-linejoin="round"/>
<path d="M386.12 422.14H349.67V441.5H386.12V422.14Z" fill="white" stroke="#263238" stroke-linejoin="round"/>
<path d="M379.14 425.61H349.67V438.04H379.14V425.61Z" fill="white" stroke="#263238" stroke-linejoin="round"/>
<path d="M126.53 384.52H90.08V441.5H126.53V384.52Z" fill="white" stroke="#263238" stroke-linejoin="round"/>
<path d="M108.08 385.07V441.2" stroke="#263238" stroke-linejoin="round"/>
<path d="M102.49 389.88H92.88V405.08H102.49V389.88Z" stroke="#263238" stroke-linejoin="round"/>
<path d="M100.84 392.5H94.54V402.46H100.84V392.5Z" stroke="#263238" stroke-linejoin="round"/>
<path d="M122.96 389.88H113.35V405.08H122.96V389.88Z" stroke="#263238" stroke-linejoin="round"/>
<path d="M121.31 392.5H115.01V402.46H121.31V392.5Z" stroke="#263238" stroke-linejoin="round"/>
<path d="M113.37 393.68H102.47V400.68H113.37V393.68Z" stroke="#263238" stroke-linejoin="round"/>
<path d="M102.49 415.78H92.88V430.98H102.49V415.78Z" stroke="#263238" stroke-linejoin="round"/>
<path d="M100.84 418.4H94.54V428.36H100.84V418.4Z" stroke="#263238" stroke-linejoin="round"/>
<path d="M122.96 415.78H113.35V430.98H122.96V415.78Z" stroke="#263238" stroke-linejoin="round"/>
<path d="M121.31 418.4H115.01V428.36H121.31V418.4Z" stroke="#263238" stroke-linejoin="round"/>
<path d="M113.37 419.58H102.47V426.58H113.37V419.58Z" stroke="#263238" stroke-linejoin="round"/>
<path d="M316.64 315.87H173.58V441.51H316.64V315.87Z" fill="#263238" stroke="#263238" stroke-linejoin="round"/>
<path d="M316.64 354.06H173.58V441.5H316.64V354.06Z" fill="#FC1A2E" stroke="#263238" stroke-linejoin="round"/>
<path d="M268.42 388.46H254.57V374.82H235.65V388.46H221.8V407.1H235.65V420.75H254.57V407.1H268.42V388.46Z" fill="white" stroke="#263238" stroke-linejoin="round"/>
<path d="M316.43 309.17H173.86V321.82H316.43V309.17Z" fill="#FC1A2E" stroke="#263238" stroke-linejoin="round"/>
<path d="M41.38 441.5H459.48" stroke="#263238" stroke-linejoin="round"/>
</g>
<defs>
<clipPath id="clip0_8_3580">
<rect width="500" height="500" fill="white"/>
</clipPath>
</defs>
</svg>
