<svg width="63" height="57" viewBox="0 0 63 57" fill="none" xmlns="http://www.w3.org/2000/svg">
<path d="M0.153539 18.876C1.13407 10.7633 7.6938 3.20315 15.5282 3.20315C20.1465 3.20315 24.5491 5.71981 27.7064 9.24926C28.8292 10.4358 29.8619 11.7116 30.7951 13.0652C31.4589 11.5465 32.2324 10.0828 33.1091 8.68659C35.5408 4.59447 39.3747 1.20825 43.8949 0.256829C51.5822 -1.3391 59.4461 4.71723 61.9268 12.4718C64.4076 20.2264 62.3386 28.9221 58.2695 35.8992C54.2003 42.8762 47.1895 52.0119 34.2759 56.5337C25.3825 55.347 13.4593 47.1116 8.15463 41.0962C2.84997 35.0808 -0.807379 26.9886 0.153539 18.876Z" fill="#FC1A2E"/>
<path d="M2.97751 33.4337H3.23246L3.98746 33.3825L6.92905 33.1268L17.5776 32.1037L17.3913 31.981L21.8233 44.0527L22.0979 44.7791L22.2744 44.022C23.6177 38.1601 25.1375 31.6025 26.7358 24.6868L28.1772 18.3951L27.7261 18.4974L35.8547 30.16L35.9332 30.2623H36.0214L54.7397 28.2162L60.0346 27.6024L61.4368 27.4183L61.9172 27.3262C61.7542 27.3104 61.59 27.3104 61.427 27.3262L60.0248 27.4387L54.7103 27.9195L35.9822 29.761L36.1881 29.8633L28.0987 18.1701L27.7751 17.7097L27.6477 18.2621C27.177 20.3082 26.6672 22.4259 26.1965 24.5742C24.6179 31.4899 23.1176 38.0578 21.7743 43.9197H22.2253L17.6953 31.8787L17.6463 31.7457H17.509L6.87022 32.9324L3.97768 33.2905L3.23246 33.3927L2.97751 33.4337Z" fill="#FAFAFA"/>
</svg>
