<svg width="46" height="87" viewBox="0 0 46 87" fill="none" xmlns="http://www.w3.org/2000/svg">
<path d="M42.2364 70.1916L28.3861 74.472L30.7451 82.7809C31.0321 83.7918 31.6923 84.6424 32.5804 85.1455C33.4685 85.6486 34.5118 85.763 35.4807 85.4636L42.0487 83.4337C43.0176 83.1343 43.8329 82.4455 44.3151 81.5189C44.7973 80.5923 44.9069 79.5038 44.6199 78.4928L42.261 70.184L42.2364 70.1916Z" fill="#FC1A2E"/>
<path opacity="0.3" d="M42.2363 70.1917L28.3861 74.4721L30.7475 82.7895C31.0332 83.7959 31.6904 84.6427 32.5745 85.1436C33.4586 85.6444 34.4972 85.7583 35.4618 85.4602L42.0298 83.4303C42.5074 83.2827 42.9525 83.0384 43.3396 82.7113C43.7268 82.3843 44.0483 81.9808 44.286 81.5241C44.5237 81.0673 44.6728 80.5662 44.7249 80.0493C44.777 79.5325 44.731 79.0099 44.5895 78.5116L42.2281 70.1942L42.2363 70.1917Z" fill="black"/>
<path d="M30.5512 82.7796C32.928 82.2941 35.2731 81.6525 37.5725 80.8589C39.9002 80.2132 42.1878 79.4196 44.4226 78.4825C42.0465 78.9751 39.7016 79.6195 37.4013 80.4122C35.0746 81.0576 32.7871 81.8481 30.5512 82.7796Z" fill="#263238"/>
<path d="M40.0728 79.7511C40.0143 79.5228 39.913 79.3089 39.7747 79.1217C39.6365 78.9345 39.464 78.7778 39.2673 78.6607C39.0706 78.5435 38.8536 78.4683 38.6288 78.4392C38.404 78.4102 38.176 78.4279 37.9578 78.4915L35.1836 79.3848C34.9685 79.4559 34.7689 79.5706 34.5965 79.7223C34.424 79.8741 34.2819 80.0599 34.1785 80.2691C34.0751 80.4783 34.0123 80.7067 33.9937 80.9413C33.9752 81.1759 34.0012 81.412 34.0704 81.6361L40.0728 79.7511Z" fill="#263238"/>
<path d="M29.0013 0L44.414 66.4757C44.7666 67.8786 44.5892 69.3693 43.9183 70.6396C43.2474 71.91 42.1343 72.8627 40.8091 73.301L30.7138 76.4278C29.4102 76.8029 28.0192 76.6551 26.8147 76.0135C25.6103 75.372 24.6797 74.2832 24.2063 72.9615L-9.15527e-05 8.95157L29.0013 0Z" fill="#FC1A2E"/>
<path d="M1.99506 14.2224C1.99506 14.3474 8.38275 12.4892 16.1833 10.0771C23.9838 7.66503 30.2858 5.61028 30.2516 5.48521C30.2173 5.36014 23.8639 7.21835 16.0548 9.63045C8.24574 12.0425 1.96081 14.0973 1.99506 14.2224Z" fill="#263238"/>
<path d="M28.0251 6.24457C27.9818 5.28691 27.791 4.34276 27.46 3.44837C27.2668 2.50719 26.9346 1.60305 26.4753 0.768311C26.513 1.72586 26.7011 2.67047 27.0319 3.56451C27.2212 4.50825 27.5567 5.41347 28.0251 6.24457Z" fill="#263238"/>
<path d="M25.7219 6.95047C25.4999 5.05374 24.9761 3.20894 24.1721 1.49207C24.2155 2.44973 24.4063 3.39388 24.7372 4.28827C24.9302 5.22387 25.2625 6.12215 25.7219 6.95047Z" fill="#263238"/>
<path d="M23.4272 7.66514C23.3839 6.70747 23.1931 5.76332 22.8621 4.86892C22.6733 3.92638 22.3409 3.02153 21.8774 2.18884C21.9151 3.1464 22.1032 4.09101 22.434 4.98506C22.6233 5.92881 22.9588 6.83404 23.4272 7.66514Z" fill="#263238"/>
<path d="M21.1238 8.37092C20.9017 6.47413 20.3779 4.62928 19.574 2.91235C19.8068 4.8068 20.3301 6.64985 21.1238 8.37092Z" fill="#263238"/>
<path d="M18.8291 9.08567C18.7858 8.12798 18.5949 7.18382 18.264 6.2894C18.0752 5.34683 17.7427 4.44196 17.2793 3.60925C17.317 4.56683 17.505 5.51145 17.8358 6.40553C18.0251 7.34929 18.3606 8.25455 18.8291 9.08567Z" fill="#263238"/>
<path d="M16.5256 9.79133C16.3036 7.89458 15.7798 6.04978 14.9758 4.33289C15.2086 6.22729 15.7319 8.0703 16.5256 9.79133Z" fill="#263238"/>
<path d="M14.231 10.506C14.1876 9.54836 13.9968 8.60419 13.6658 7.70978C13.4771 6.76723 13.1446 5.86236 12.6811 5.02966C12.7189 5.98723 12.9069 6.93186 13.2377 7.82593C13.427 8.76968 13.7625 9.67493 14.231 10.506Z" fill="#263238"/>
<path d="M11.9363 11.2118C11.8878 10.2548 11.6971 9.31151 11.3712 8.41557C11.1838 7.47123 10.8482 6.56567 10.3779 5.73547C10.4264 6.69246 10.617 7.63578 10.943 8.53172C11.1304 9.47606 11.466 10.3816 11.9363 11.2118Z" fill="#263238"/>
<path d="M9.63281 11.9265C9.5957 10.9688 9.40766 10.0241 9.07625 9.13019C8.88242 8.18785 8.5472 7.28334 8.083 6.45007C8.12634 7.40776 8.31716 8.35193 8.64813 9.24634C8.83691 10.1889 9.16936 11.0938 9.63281 11.9265Z" fill="#263238"/>
<path d="M7.33813 12.6323C7.10533 10.7379 6.58205 8.89486 5.78832 7.17383C6.01037 9.07058 6.53417 10.9154 7.33813 12.6323Z" fill="#263238"/>
<path d="M5.03467 13.3469C4.99755 12.3893 4.80951 11.4445 4.4781 10.5506C4.28881 9.60686 3.95334 8.70161 3.48486 7.87048C3.5282 8.82818 3.71901 9.77235 4.04997 10.6668C4.23875 11.6093 4.57121 12.5142 5.03467 13.3469Z" fill="#263238"/>
<path d="M2.73999 14.0528C2.50719 12.1584 1.9839 10.3154 1.19018 8.59436C1.41223 10.4911 1.93602 12.3359 2.73999 14.0528Z" fill="#263238"/>
<path d="M25.2767 34.752L24.1893 30.9463L20.5845 32.063L21.5948 35.6275L18.6493 36.5298L19.7111 40.273L22.9734 39.2725L23.8982 42.5332L26.9122 41.5952L25.9189 38.0932L29.4724 36.9944L28.5305 33.68L25.2767 34.752Z" fill="white"/>
<path d="M16.5599 39.0493C16.6113 39.0493 16.3715 38.3346 16.3116 37.0213C16.2401 35.1689 16.7513 33.3429 17.7672 31.8219C18.4588 30.7803 19.3811 29.9283 20.4559 29.3383C21.6938 28.6755 23.085 28.3877 24.4717 28.5075C26.0043 28.6544 27.4596 29.2767 28.6502 30.2942C29.931 31.3811 30.8672 32.8463 31.3363 34.4978C31.8054 36.1493 31.7854 37.9101 31.2789 39.5496C30.8134 41.0759 29.9183 42.4207 28.7102 43.4089C27.6079 44.2935 26.2916 44.841 24.9084 44.9902C23.6992 45.1076 22.4806 44.9207 21.3549 44.4453C19.7032 43.7385 18.3216 42.4822 17.4247 40.8718C16.7825 39.7372 16.6199 39.0135 16.5685 39.0314C16.5857 39.209 16.626 39.3833 16.6884 39.5496C16.834 40.0403 17.0292 40.5134 17.2706 40.9611C18.1487 42.6446 19.5455 43.9698 21.2351 44.7222C22.4895 45.2821 23.8639 45.4845 25.2178 45.3087C26.5718 45.1329 27.8567 44.5852 28.9414 43.7216C30.2266 42.6897 31.1819 41.2755 31.6814 39.6657C32.2254 37.9442 32.2547 36.0907 31.7653 34.3515C31.2759 32.6122 30.291 31.0694 28.9414 29.9279C27.6832 28.8569 26.1419 28.2117 24.5231 28.0787C23.0633 27.9547 21.5998 28.2645 20.3017 28.972C19.1849 29.6049 18.2304 30.5088 17.5189 31.6075C16.5027 33.1848 16.0232 35.0723 16.1575 36.9677C16.1918 37.4813 16.275 37.99 16.4058 38.4865C16.4285 38.6813 16.4805 38.8713 16.5599 39.0493Z" fill="white"/>
</svg>
