<?xml version="1.0" encoding="UTF-8" standalone="no"?>
<!DOCTYPE svg PUBLIC "-//W3C//DTD SVG 1.1//EN" "http://www.w3.org/Graphics/SVG/1.1/DTD/svg11.dtd">
<svg width="100%" height="100%" viewBox="0 0 1536 768" version="1.1" xmlns="http://www.w3.org/2000/svg" xmlns:xlink="http://www.w3.org/1999/xlink" xml:space="preserve" xmlns:serif="http://www.serif.com/" style="fill-rule:evenodd;clip-rule:evenodd;stroke-linecap:round;stroke-linejoin:round;stroke-miterlimit:1.5;">
    <g id="Layer1">
        <g transform="matrix(2.66085,0,0,2.66085,-1248.32,-809.208)">
            <path d="M794.999,439.73C794.999,439.73 769.608,470.856 757.947,475.672C747.908,479.818 733.885,463.502 736.242,455.29C739.998,442.206 775.423,411.426 796.49,400.874C829.053,384.566 871.685,414.528 869.856,454.997C869.176,470.041 862.298,487.338 851.041,497.202L794.999,439.73ZM768,420.221C751.977,397.41 719.335,394.742 701.57,401.817C681.306,409.887 669.688,431.192 667.574,450.767C665.781,467.376 680.034,493.985 697.632,506.864C695.061,522.39 711.099,529.19 717.063,528.662C714.788,540.755 732.648,549.852 736.443,548.227C732.583,556.668 750.756,569.95 756.343,568.679C755.197,574.818 766.35,587.6 773.194,586.763C779.688,585.969 794.559,572.118 797.523,561.628C807.061,561.03 818.473,545.938 817.885,541.138C828.074,542.198 836.577,529.706 837.096,521.501C848.598,518.756 855.403,512.16 856.331,502.627L794.999,439.73C794.999,439.73 767.565,473.188 757.772,475.781C748.195,478.317 734.538,464.55 736.242,455.29C737.947,446.03 768,420.221 768,420.221ZM717.063,528.662L738.786,507.687M736.443,548.227L757.772,527.069L736.443,548.227ZM756.343,568.679L777.003,546.308M797.523,561.628C793.542,554.045 784.576,545.282 777.003,546.308C773.487,534.998 766.329,529.361 757.772,527.069C753.825,517.162 747.764,510.329 738.786,507.687C733.432,496.541 725.327,488.226 719.594,489.424C716.264,490.121 701.756,500.389 697.632,506.864M817.885,541.138L785.434,507.687M837.096,521.501L804.742,489.424" style="fill:none;stroke:black;stroke-width:10.43px;"/>
        </g>
        <g transform="matrix(24.9846,0,0,24.9378,-22708.6,-11814.8)">
            <text x="917.807px" y="482.148px" style="font-family:'Archivo-Bold', 'Archivo', sans-serif;font-weight:700;font-size:12px;">J<tspan x="923.826px 932.509px 943.183px 945.866px 952.545px " y="482.148px 482.148px 482.148px 482.148px 482.148px ">OWITA</tspan></text>
        </g>
    </g>
</svg>
