<svg width="497" height="497" viewBox="0 0 497 497" fill="none" xmlns="http://www.w3.org/2000/svg">
<path d="M323.676 45.0481C323.676 45.0481 247.556 17.9715 172.837 61.0714C98.1178 104.171 60.4054 189.715 28.0308 258.241C-4.34377 326.768 14.2838 396.467 71.3295 428.215C128.375 459.964 167.161 413.146 247.178 410.87C327.195 408.594 348.715 420.025 415.164 374.827C481.613 329.63 493.561 222.865 441.187 143.872C388.813 64.8784 323.676 45.0481 323.676 45.0481Z" fill="#C53F3F"/>
<path d="M323.676 45.0481C323.676 45.0481 247.556 17.9715 172.837 61.0714C98.1178 104.171 60.4054 189.715 28.0308 258.241C-4.34377 326.768 14.2838 396.467 71.3295 428.215C128.375 459.964 167.161 413.146 247.178 410.87C327.195 408.594 348.715 420.025 415.164 374.827C481.613 329.63 493.561 222.865 441.187 143.872C388.813 64.8784 323.676 45.0481 323.676 45.0481Z" fill="#F7FFFE"/>
<path d="M17.6236 455.66H478.84" stroke="#263238" stroke-linecap="round" stroke-linejoin="round"/>
<path d="M366.19 34.2632H275.338V375.712H366.19V34.2632Z" stroke="#263238" stroke-linecap="round" stroke-linejoin="round"/>
<path d="M481.593 34.2632H273.032C272.665 34.2632 272.314 34.1176 272.055 33.8585C271.796 33.5994 271.65 33.2479 271.65 32.8815C271.65 32.5151 271.796 32.1636 272.055 31.9045C272.314 31.6454 272.665 31.4998 273.032 31.4998H481.593C481.96 31.4998 482.313 31.6451 482.573 31.9039C482.834 32.1627 482.982 32.5142 482.985 32.8815C482.982 33.2489 482.834 33.6003 482.573 33.8591C482.313 34.1179 481.96 34.2632 481.593 34.2632Z" fill="#263238" stroke="#263238" stroke-linecap="round" stroke-linejoin="round"/>
<path d="M366.05 291.739H477.418" stroke="#263238" stroke-linecap="round" stroke-linejoin="round"/>
<path d="M366.05 285.109H477.418" stroke="#263238" stroke-linecap="round" stroke-linejoin="round"/>
<path d="M366.05 156.555H477.418" stroke="#263238" stroke-linecap="round" stroke-linejoin="round"/>
<path d="M366.05 162.39H477.418" stroke="#263238" stroke-linecap="round" stroke-linejoin="round"/>
<path d="M281.928 34.7701V60.9918" stroke="#263238" stroke-linecap="round" stroke-linejoin="round"/>
<path d="M286.183 38.6566V207.885" stroke="#263238" stroke-linecap="round" stroke-linejoin="round"/>
<path d="M296.5 34.452V54.839" stroke="#263238" stroke-linecap="round" stroke-linejoin="round"/>
<path d="M296.5 59.6897V71.0213" stroke="#263238" stroke-linecap="round" stroke-linejoin="round"/>
<path d="M356.886 64.2223V69.083" stroke="#263238" stroke-linecap="round" stroke-linejoin="round"/>
<path d="M356.886 34.7701V59.6897" stroke="#263238" stroke-linecap="round" stroke-linejoin="round"/>
<path d="M307.723 89.1419V93.0284" stroke="#263238" stroke-linecap="round" stroke-linejoin="round"/>
<path d="M307.723 38.9847V84.6093" stroke="#263238" stroke-linecap="round" stroke-linejoin="round"/>
<path d="M314.402 38.6566V52.9007" stroke="#263238" stroke-linecap="round" stroke-linejoin="round"/>
<path d="M348.993 38.6566V52.9007" stroke="#263238" stroke-linecap="round" stroke-linejoin="round"/>
<path d="M322.901 34.452V156.197" stroke="#263238" stroke-linecap="round" stroke-linejoin="round"/>
<path d="M334.123 35.0981V41.5691" stroke="#263238" stroke-linecap="round" stroke-linejoin="round"/>
<path d="M340.803 35.0981V121.407" stroke="#263238" stroke-linecap="round" stroke-linejoin="round"/>
<path d="M330.485 40.2769V58.3975" stroke="#263238" stroke-linecap="round" stroke-linejoin="round"/>
<path d="M387.561 138.822L385.215 141.744" stroke="#263238" stroke-linecap="round" stroke-linejoin="round"/>
<path d="M436.654 80.186L391.348 134.101" stroke="#263238" stroke-linecap="round" stroke-linejoin="round"/>
<path d="M426.496 111.427L409.081 132.073" stroke="#263238" stroke-linecap="round" stroke-linejoin="round"/>
<path d="M387.561 267.376L385.215 270.308" stroke="#263238" stroke-linecap="round" stroke-linejoin="round"/>
<path d="M438.374 204.148L391.348 262.655" stroke="#263238" stroke-linecap="round" stroke-linejoin="round"/>
<path d="M426.496 239.991L409.081 260.627" stroke="#263238" stroke-linecap="round" stroke-linejoin="round"/>
<path d="M445.262 162.439V283.34" stroke="#263238" stroke-linecap="round" stroke-linejoin="round"/>
<path d="M445.262 33.6966V156.316" stroke="#263238" stroke-linecap="round" stroke-linejoin="round"/>
<path d="M451.286 162.589V283.34" stroke="#263238" stroke-linecap="round" stroke-linejoin="round"/>
<path d="M451.286 33.6966V156.257" stroke="#263238" stroke-linecap="round" stroke-linejoin="round"/>
<path d="M239.673 133.325H34.7005V138.395H239.673V133.325Z" stroke="#263238" stroke-linecap="round" stroke-linejoin="round"/>
<path d="M259.971 181.017H14.413V186.087H259.971V181.017Z" stroke="#263238" stroke-linecap="round" stroke-linejoin="round"/>
<path d="M55.336 76.369V133.196H103.376V76.369H55.336ZM101.448 130.92H57.2544V78.6353H101.448V130.92Z" fill="#263238" stroke="#263238" stroke-linecap="round" stroke-linejoin="round"/>
<path d="M136.854 141.784V180.55H169.656V141.784H136.854ZM168.304 179H138.166V143.325H168.314L168.304 179Z" fill="#263238" stroke="#263238" stroke-linecap="round" stroke-linejoin="round"/>
<path d="M113.515 99.4V133.196H142.142V99.4H113.515ZM138.703 129.22H116.914V103.376H138.703V129.22Z" fill="#263238" stroke="#263238" stroke-linecap="round" stroke-linejoin="round"/>
<path d="M29.6311 146.714V180.51H58.2186V146.714H29.6311ZM54.8191 176.534H33.0306V150.74H54.8191V176.534Z" fill="#263238" stroke="#263238" stroke-linecap="round" stroke-linejoin="round"/>
<path d="M66.1606 158.533V180.54H84.7683V158.533H66.1606ZM82.5517 177.926H68.3773V161.157H82.5517V177.926Z" fill="#263238" stroke="#263238" stroke-linecap="round" stroke-linejoin="round"/>
<path d="M107.422 158.533V180.54H126.029V158.533H107.422ZM123.813 177.926H109.638V161.157H123.813V177.926Z" fill="#263238" stroke="#263238" stroke-linecap="round" stroke-linejoin="round"/>
<path d="M178.86 118.057H189.695C190.373 118.057 191.022 118.327 191.501 118.806C191.98 119.285 192.25 119.934 192.25 120.612V133.196H176.346V120.622C176.343 119.949 176.605 119.303 177.076 118.823C177.547 118.343 178.188 118.068 178.86 118.057V118.057Z" stroke="#263238" stroke-linecap="round" stroke-linejoin="round"/>
<path d="M189.089 114.489H179.467V117.948H189.089V114.489Z" stroke="#263238" stroke-linecap="round" stroke-linejoin="round"/>
<path d="M186.236 114.38C187.674 110.771 189.368 107.27 191.305 103.903C193.681 100.175 199.426 97.1337 203.144 97.1337C206.861 97.1337 213.968 101.189 218.71 106.607" stroke="#263238" stroke-linecap="round" stroke-linejoin="round"/>
<path d="M199.426 98.1476C199.426 98.1476 201.414 91.3884 207.547 88.6748C213.68 85.9611 219.724 86.9849 220.738 85.9711" stroke="#263238" stroke-linecap="round" stroke-linejoin="round"/>
<path d="M183.055 114.31C183.043 111.545 182.14 108.858 180.481 106.646C177.777 103.267 171.356 101.905 167.29 104.658C164.714 106.431 162.433 108.598 160.531 111.08" stroke="#263238" stroke-linecap="round" stroke-linejoin="round"/>
<path d="M172.37 103.565C172.37 103.565 167.986 107.958 166.992 112.322C166.43 115.355 166.546 118.474 167.33 121.457" stroke="#263238" stroke-linecap="round" stroke-linejoin="round"/>
<path d="M191.305 103.903C194.804 97.3325 194.029 89.629 196.663 82.8002C199.386 75.7527 205.529 71.9457 212.955 71.4288" stroke="#263238" stroke-linecap="round" stroke-linejoin="round"/>
<path d="M161.108 110.235C161.108 110.235 158.324 110.235 157.4 112.451C156.844 113.862 156.652 115.39 156.843 116.894C157.627 116.719 158.357 116.356 158.969 115.836C159.582 115.317 160.06 114.657 160.362 113.912C161.475 111.328 161.108 110.235 161.108 110.235Z" fill="#C53F3F"/>
<path d="M166.197 105.175C166.197 105.175 165.123 102.611 162.718 102.621C161.201 102.649 159.717 103.063 158.404 103.823C158.867 104.477 159.481 105.009 160.194 105.374C160.907 105.74 161.698 105.927 162.499 105.921C165.312 105.95 166.197 105.175 166.197 105.175Z" fill="#C53F3F"/>
<path d="M166.157 116C166.157 116 163.762 114.588 161.833 116C160.634 116.928 159.689 118.145 159.09 119.538C159.852 119.788 160.663 119.85 161.454 119.719C162.245 119.587 162.992 119.266 163.632 118.783C165.909 117.143 166.157 116 166.157 116Z" fill="#C53F3F"/>
<path d="M167.191 120.572C167.191 120.572 165.094 122.401 165.849 124.677C166.357 126.108 167.219 127.387 168.354 128.395C168.829 127.751 169.141 127.001 169.263 126.21C169.386 125.419 169.316 124.61 169.06 123.852C168.195 121.169 167.191 120.572 167.191 120.572Z" fill="#C53F3F"/>
<path d="M167.081 110.881C167.081 110.881 166.376 113.565 168.284 115.026C169.506 115.922 170.936 116.493 172.439 116.686C172.468 115.884 172.302 115.088 171.956 114.364C171.609 113.64 171.093 113.011 170.451 112.531C168.244 110.801 167.081 110.881 167.081 110.881Z" fill="#C53F3F"/>
<path d="M169.586 102.929C169.586 102.929 170.421 100.285 168.592 98.7241C167.416 97.7691 166.018 97.1264 164.527 96.8554C164.457 97.6522 164.58 98.4542 164.887 99.1931C165.193 99.932 165.673 100.586 166.286 101.1C168.413 102.949 169.586 102.929 169.586 102.929Z" fill="#C53F3F"/>
<path d="M174.566 103.197C174.566 103.197 176.624 101.338 175.829 99.062C175.291 97.6545 174.409 96.4039 173.264 95.424C172.799 96.0756 172.499 96.8297 172.388 97.6223C172.277 98.4149 172.36 99.2225 172.628 99.9765C173.542 102.621 174.566 103.197 174.566 103.197Z" fill="#C53F3F"/>
<path d="M202.706 92.0842C202.706 92.0842 204.764 90.2254 203.969 87.959C203.437 86.5369 202.555 85.272 201.404 84.2812C200.94 84.9348 200.64 85.6911 200.531 86.4856C200.422 87.2801 200.507 88.0891 200.778 88.8437C201.683 91.5076 202.706 92.0842 202.706 92.0842Z" fill="#C53F3F"/>
<path d="M210.857 87.8298C210.857 87.8298 212.915 85.9711 212.12 83.6948C211.586 82.2765 210.704 81.0152 209.555 80.0269C209.09 80.6785 208.79 81.4326 208.679 82.2252C208.568 83.0178 208.651 83.8255 208.919 84.5795C209.833 87.2533 210.857 87.8298 210.857 87.8298Z" fill="#C53F3F"/>
<path d="M217.686 86.5277C217.686 86.5277 219.744 84.6689 218.948 82.4026C218.413 80.9823 217.532 79.7181 216.384 78.7248C215.919 79.3784 215.619 80.1347 215.51 80.9291C215.401 81.7236 215.486 82.5327 215.758 83.2873C216.692 85.9512 217.686 86.5277 217.686 86.5277Z" fill="#C53F3F"/>
<path d="M171.594 110.553C171.594 110.553 174.377 110.463 175.232 108.217C175.745 106.788 175.885 105.252 175.64 103.754C174.865 103.953 174.149 104.336 173.554 104.87C172.958 105.405 172.501 106.076 172.22 106.825C171.197 109.459 171.594 110.553 171.594 110.553Z" fill="#C53F3F"/>
<path d="M216.404 92.7402C216.404 92.7402 217.02 90.0365 215.062 88.635C213.814 87.7733 212.367 87.2431 210.857 87.0943C210.851 87.8954 211.038 88.6862 211.403 89.3993C211.769 90.1123 212.301 90.7265 212.955 91.1896C215.231 92.8495 216.404 92.7402 216.404 92.7402Z" fill="#C53F3F"/>
<path d="M223.064 92.5613C223.064 92.5613 223.69 89.8477 221.732 88.4461C220.482 87.5864 219.036 87.0564 217.527 86.9054C217.526 87.7109 217.721 88.5046 218.095 89.218C218.469 89.9314 219.011 90.5432 219.674 91.0007C221.901 92.6706 223.064 92.5613 223.064 92.5613Z" fill="#C53F3F"/>
<path d="M164.219 113.694C164.219 113.694 166.674 112.402 166.455 110.006C166.288 108.497 165.745 107.055 164.875 105.811C164.264 106.33 163.788 106.989 163.487 107.731C163.186 108.474 163.068 109.278 163.145 110.076C163.374 112.889 164.219 113.694 164.219 113.694Z" fill="#C53F3F"/>
<path d="M192.548 109.628C192.548 109.628 195.003 108.326 194.784 105.931C194.617 104.422 194.074 102.98 193.204 101.736C192.593 102.255 192.117 102.913 191.816 103.656C191.515 104.398 191.397 105.203 191.474 106C191.703 108.813 192.548 109.628 192.548 109.628Z" fill="#C53F3F"/>
<path d="M187.22 100.99C187.22 100.99 185.232 102.978 186.097 105.165C186.677 106.567 187.604 107.799 188.79 108.744C189.231 108.075 189.503 107.311 189.584 106.515C189.666 105.719 189.554 104.915 189.258 104.171C188.254 101.537 187.22 100.99 187.22 100.99Z" fill="#C53F3F"/>
<path d="M199.406 105.553C199.406 105.553 201.862 104.251 201.643 101.855C201.476 100.348 200.929 98.908 200.052 97.6704C199.445 98.1892 198.972 98.8467 198.672 99.5873C198.373 100.328 198.256 101.13 198.333 101.925C198.551 104.738 199.406 105.553 199.406 105.553Z" fill="#C53F3F"/>
<path d="M207.746 105.563C207.746 105.563 209.794 103.684 208.969 101.418C208.42 100.003 207.524 98.7484 206.364 97.7698C205.895 98.4308 205.594 99.1967 205.488 100.001C205.383 100.805 205.475 101.622 205.758 102.382C206.672 104.996 207.746 105.563 207.746 105.563Z" fill="#C53F3F"/>
<path d="M214.177 109.082C214.177 109.082 216.225 107.203 215.4 104.937C214.851 103.522 213.956 102.267 212.795 101.289C212.339 101.946 212.048 102.705 211.948 103.499C211.847 104.294 211.94 105.1 212.219 105.851C213.153 108.515 214.177 109.082 214.177 109.082Z" fill="#C53F3F"/>
<path d="M222.477 101.1C222.477 101.1 220.728 98.9527 218.422 99.6386C216.974 100.099 215.667 100.92 214.624 102.024C215.254 102.519 215.995 102.854 216.782 103.001C217.57 103.149 218.381 103.103 219.147 102.869C221.851 102.094 222.477 101.1 222.477 101.1Z" fill="#C53F3F"/>
<path d="M213.76 76.9555C213.76 76.9555 213.76 74.1822 211.523 73.2578C210.111 72.7079 208.583 72.5232 207.08 72.721C207.257 73.5031 207.621 74.2306 208.14 74.8416C208.659 75.4526 209.319 75.9289 210.062 76.2299C212.646 77.3332 213.76 76.9555 213.76 76.9555Z" fill="#C53F3F"/>
<path d="M210.42 65.6835C210.42 65.6835 207.666 66.0613 207.05 68.3872C206.689 69.8624 206.71 71.4051 207.11 72.8701C207.861 72.5909 208.534 72.1341 209.07 71.5387C209.607 70.9433 209.991 70.227 210.191 69.4508C210.937 66.7372 210.42 65.6835 210.42 65.6835Z" fill="#C53F3F"/>
<path d="M206.166 80.6631C206.166 80.6631 206.166 77.8799 203.939 76.9654C202.525 76.4079 200.993 76.2197 199.486 76.4187C199.663 77.2008 200.027 77.9283 200.546 78.5393C201.065 79.1503 201.725 79.6266 202.468 79.9275C205.062 81.0309 206.166 80.6631 206.166 80.6631Z" fill="#C53F3F"/>
<path d="M202.826 69.3812C202.826 69.3812 200.072 69.7689 199.456 72.0948C199.101 73.5673 199.122 75.1054 199.516 76.5678C200.266 76.2895 200.938 75.8343 201.474 75.2407C202.011 74.6471 202.396 73.9328 202.597 73.1584C203.343 70.4349 202.826 69.3812 202.826 69.3812Z" fill="#C53F3F"/>
<path d="M203.333 85.2653C203.333 85.2653 201.613 83.0885 199.297 83.7445C197.846 84.18 196.529 84.9769 195.47 86.0605C196.091 86.5658 196.824 86.9137 197.608 87.0746C198.392 87.2355 199.203 87.2048 199.973 86.985C202.696 86.2494 203.333 85.2653 203.333 85.2653Z" fill="#C53F3F"/>
<path d="M193.731 78.526C193.731 78.526 191.802 80.514 192.737 82.7306C193.366 84.1116 194.334 85.3116 195.55 86.2196C195.967 85.5357 196.214 84.7609 196.267 83.9612C196.321 83.1616 196.181 82.3609 195.858 81.6273C194.824 78.9832 193.731 78.526 193.731 78.526Z" fill="#C53F3F"/>
<path d="M201.295 94.7083C201.295 94.7083 199.575 92.5315 197.259 93.1875C195.81 93.6266 194.494 94.423 193.432 95.5035C194.053 96.0088 194.787 96.3567 195.571 96.5176C196.354 96.6785 197.166 96.6478 197.935 96.4279C200.659 95.6924 201.295 94.7083 201.295 94.7083Z" fill="#C53F3F"/>
<path d="M191.693 87.9193C191.693 87.9193 189.765 89.9073 190.699 92.1239C191.328 93.5049 192.296 94.7049 193.512 95.6129C193.93 94.929 194.176 94.1542 194.23 93.3546C194.283 92.5549 194.143 91.7542 193.82 91.0206C192.756 88.466 191.693 87.9193 191.693 87.9193Z" fill="#C53F3F"/>
<path d="M214.704 97.0243C214.704 97.0243 212.945 94.8773 210.639 95.5632C209.191 96.0231 207.884 96.8441 206.841 97.9488C207.471 98.4437 208.212 98.779 208.999 98.9261C209.787 99.0732 210.598 99.0278 211.364 98.7937C214.078 98.0183 214.704 97.0243 214.704 97.0243Z" fill="#C53F3F"/>
<path d="M210.261 92.442C210.261 92.442 208.501 90.285 206.195 90.9808C204.75 91.4407 203.444 92.2578 202.398 93.3565C203.027 93.8531 203.767 94.1902 204.555 94.339C205.342 94.4879 206.154 94.4441 206.921 94.2113C209.635 93.436 210.261 92.442 210.261 92.442Z" fill="#C53F3F"/>
<path d="M227.626 85.1759C227.626 85.1759 225.867 83.0288 223.561 83.7147C222.113 84.1746 220.806 84.9956 219.763 86.1003C220.393 86.5952 221.134 86.9305 221.921 87.0776C222.709 87.2247 223.52 87.1793 224.286 86.9452C227.04 86.1699 227.626 85.1759 227.626 85.1759Z" fill="#C53F3F"/>
<path d="M220.072 70.574C220.072 70.574 218.312 68.417 216.006 69.1029C214.563 69.5671 213.261 70.3876 212.219 71.4885C212.847 71.9835 213.585 72.3196 214.371 72.4685C215.156 72.6173 215.966 72.5744 216.732 72.3433C219.445 71.568 220.072 70.574 220.072 70.574Z" fill="#C53F3F"/>
<path d="M220.101 114.31C220.101 114.31 222.149 112.431 221.324 110.175C220.78 108.758 219.883 107.502 218.72 106.527C218.263 107.185 217.972 107.943 217.872 108.738C217.772 109.532 217.865 110.339 218.143 111.089C219.078 113.694 220.101 114.31 220.101 114.31Z" fill="#C53F3F"/>
<path d="M193.959 180.54H204.555C208.144 178.105 210.589 173.264 210.589 167.688C210.628 164.329 209.674 161.033 207.845 158.215H190.669C188.841 161.033 187.886 164.329 187.926 167.688C187.926 173.264 190.371 178.105 193.959 180.54Z" stroke="#263238" stroke-linecap="round" stroke-linejoin="round"/>
<path d="M228.183 143.812H221.414V181.017H228.183V143.812Z" stroke="#263238" stroke-linecap="round" stroke-linejoin="round"/>
<path d="M235.618 143.812H228.849V181.017H235.618V143.812Z" stroke="#263238" stroke-linecap="round" stroke-linejoin="round"/>
<path d="M243.063 143.812H236.294V181.017H243.063V143.812Z" stroke="#263238" stroke-linecap="round" stroke-linejoin="round"/>
<path d="M57.5824 351.975C54.8951 346.329 54.2896 339.914 55.8727 333.865C58.4969 323.547 59.4511 325.277 56.7176 319.332C53.9841 313.388 51.6184 312.176 53.2486 307.076C54.8787 301.977 57.6818 294.005 56.6679 289.184C55.6541 284.363 53.4474 282.375 54.4414 277.157C55.4354 271.938 58.5068 269.424 57.0059 263.728C55.505 258.032 52.8808 258.301 53.8748 253.072C54.8688 247.844 56.2604 247.446 55.8628 242.725C55.4652 238.003 56.5586 235.767 56.5586 235.767C56.5586 235.767 58.3577 243.152 59.5406 247.238C60.7235 251.323 60.8924 253.679 60.3259 256.661C59.7593 259.643 66.5185 264.812 66.7173 267.167C66.9161 269.523 68.3574 272.137 66.1109 277.107C63.8645 282.077 63.2979 285.059 64.5901 288.409C65.8823 291.759 67.2839 291.242 66.0016 297.961C64.7193 304.681 60.8328 304.701 63.7154 309.889C66.598 315.078 68.3276 316.181 66.9956 319.829C65.6636 323.477 63.5564 327.682 64.3714 330.157C64.8457 331.387 65.4243 332.574 66.101 333.706C67.7543 336.638 68.3076 340.064 67.6616 343.367L67.2739 345.405L68.5363 355.693L62.4033 360.713C62.4033 360.713 59.5605 358.546 57.5824 351.975Z" fill="#C6D1CF"/>
<path d="M50.5051 352.87C48.73 350.896 47.3665 348.588 46.4943 346.081C45.6221 343.574 45.2589 340.917 45.4258 338.268C46.062 329.382 47.3343 330.654 43.5273 326.211C39.7202 321.768 37.1756 321.141 37.8118 316.698C38.4479 312.255 39.7202 305.277 37.8118 301.47C35.9033 297.663 33.3686 296.391 33.3686 291.948C33.3686 287.505 35.9132 284.99 33.3686 280.527C30.8239 276.064 28.2892 276.72 28.2892 272.276C28.2892 267.833 29.5616 264.026 28.2892 260.219C27.0169 256.412 27.8519 257.237 27.8519 257.237C27.8519 257.237 30.8339 263.43 32.7324 266.601C34.631 269.772 35.2771 271.68 35.2771 274.215C35.2771 276.749 42.8911 279.93 43.5273 281.829C44.1634 283.727 46.062 285.646 44.7896 290.079C43.5173 294.512 43.5273 297.037 45.4258 299.602C47.3243 302.166 48.5967 301.51 48.5967 307.216C48.5967 312.921 44.7896 313.557 48.5967 317.374C52.4037 321.191 54.3122 321.807 53.676 324.988C53.0398 328.169 51.7775 331.946 53.0398 333.865C53.5185 334.53 54.0504 335.155 54.6302 335.733C57.2694 338.453 58.7485 342.092 58.7553 345.882L61.9262 354.132L56.8469 359.212C56.8469 359.212 53.676 357.939 50.5051 352.87Z" fill="#C6D1CF"/>
<path d="M86.6768 352.87C88.4492 350.895 89.8104 348.586 90.6808 346.079C91.5511 343.572 91.9133 340.917 91.7462 338.268C91.12 329.382 89.8477 330.654 93.6547 326.211C97.4617 321.768 99.9964 321.142 99.3702 316.698C98.744 312.255 97.4617 305.277 99.3702 301.47C101.279 297.663 103.803 296.391 103.803 291.948C103.803 287.505 101.269 284.99 103.803 280.527C106.338 276.064 108.883 276.72 108.883 272.277C108.883 267.833 107.61 264.026 108.883 260.219C110.155 256.412 108.634 258.589 108.634 258.589C108.634 258.589 106.348 263.39 104.44 266.541C102.531 269.692 101.905 271.62 101.905 274.155C101.905 276.69 94.2908 279.871 93.6547 281.769C93.0185 283.668 91.12 285.586 92.3824 290.019C93.6447 294.453 93.6547 296.977 91.7462 299.542C89.8377 302.106 88.5753 301.45 88.5753 307.156C88.5753 312.862 92.3824 313.498 88.5753 317.315C84.7683 321.132 82.8698 321.748 83.5059 324.929C84.1421 328.109 85.4045 331.887 84.1322 333.805C83.6668 334.463 83.1446 335.078 82.5716 335.644C79.9081 338.398 78.4214 342.081 78.4266 345.912L75.2557 354.162L80.3251 359.242C80.3251 359.242 83.496 357.939 86.6768 352.87Z" fill="#C6D1CF"/>
<path d="M75.4844 354.46C76.6379 352.657 77.4201 350.641 77.7853 348.532C78.1506 346.422 78.0915 344.261 77.6115 342.175C75.9416 335.217 75.0967 336.36 77.542 332.324C79.9872 328.288 81.9255 327.443 80.8321 323.994C79.7387 320.545 77.8501 315.148 78.8441 311.867C79.8381 308.587 81.7168 307.235 81.1303 303.697C80.5438 300.158 78.1483 298.478 79.6294 294.602C81.1104 290.725 83.168 290.904 82.6114 287.375C82.0547 283.847 80.514 280.974 81.0309 277.773C81.5478 274.573 80.4246 275.408 80.4246 275.408C79.9098 278.12 79.209 280.793 78.3272 283.409C77.2239 286.182 76.9754 287.783 77.3332 289.801C77.6911 291.818 72.0253 295.357 71.7668 296.948C71.5084 298.538 70.246 300.317 71.8463 303.687C73.4467 307.056 73.7747 309.074 72.5918 311.351C71.409 313.627 70.3156 313.279 71.0611 317.831C71.8066 322.384 74.9277 322.384 72.403 325.913C69.8782 329.441 68.427 330.207 69.3613 332.642C70.2957 335.077 71.7966 337.95 71.0313 339.6C69.9017 341.483 68.6077 343.263 67.1646 344.918L67.9996 349.967L66.5583 356.925L71.2698 360.295C71.2698 360.295 73.6256 358.923 75.4844 354.46Z" fill="#C6D1CF"/>
<path d="M94.102 349.292L92.611 386.507H88.4759V415.204H46.5987V386.507H42.7321L41.2411 349.292H94.102Z" fill="#263238" stroke="#263238" stroke-miterlimit="10"/>
<path d="M41.5094 356.1L41.7281 361.488H93.6149L93.8236 356.1H41.5094Z" fill="white" stroke="#263238" stroke-miterlimit="10"/>
<path d="M93.2173 371.289L93.3565 367.86H41.9866L42.1257 371.289H93.2173Z" fill="white" stroke="#263238" stroke-miterlimit="10"/>
<path d="M42.7321 386.497H40.8832V455.67H46.5987V415.204" stroke="#263238" stroke-miterlimit="10"/>
<path d="M92.611 386.497H94.1815V455.67H88.476V415.204" stroke="#263238" stroke-miterlimit="10"/>
<path d="M136.118 314.104C136.118 314.104 124.866 249.991 124.866 235.578C124.866 221.165 139.677 198.303 174.03 189.357C208.382 180.411 252.218 186.375 265.249 192.836C278.28 199.297 285.974 213.213 288.936 236.075C291.898 258.937 297.822 350.882 297.822 350.882L141.456 353.367L136.118 314.104Z" fill="#666666" stroke="#263238" stroke-linecap="round" stroke-linejoin="round"/>
<path d="M322.285 437.668C318.945 441.305 314.961 444.295 310.536 446.485C303.578 449.785 300.248 453.443 300.596 456.027C300.943 458.612 305.009 459.009 311.977 459.337C318.945 459.665 343.556 458.602 347.602 458.602C351.647 458.602 354.938 457.498 354.938 454.188C354.938 450.878 354.202 442.439 354.202 442.439L322.285 437.668Z" fill="white" stroke="#263238" stroke-linecap="round" stroke-linejoin="round"/>
<path d="M336.966 455.66C323.984 455.66 306.54 454.914 300.755 454.666C300.608 455.107 300.56 455.575 300.615 456.037C300.983 458.612 305.029 459.019 311.997 459.347C318.965 459.675 343.576 458.612 347.622 458.612C351.26 458.612 354.301 457.707 354.858 455.103C350.962 455.371 345.017 455.66 336.966 455.66Z" fill="white" stroke="#263238" stroke-linecap="round" stroke-linejoin="round"/>
<path d="M357.164 276.481C357.164 276.481 343.576 332.294 343.576 336.698C343.576 341.101 356.429 361.299 356.796 377.084C357.164 392.869 351.29 423.722 352.393 427.022C353.496 430.323 355.375 432.529 354.957 435.471C354.54 438.414 353.496 446.117 353.496 446.117C353.496 446.117 348.347 446.485 337.702 444.278C331.643 443.08 325.731 441.234 320.068 438.772C320.068 438.772 319.332 431.058 319.332 429.597C319.332 428.136 320.804 424.448 321.171 421.516C321.539 418.583 320.068 389.936 317.136 374.887C314.203 359.838 308.687 340.366 308.687 330.088C308.687 319.81 308.319 283.459 308.319 283.459C315.419 278.569 322.909 274.27 330.714 270.607C343.934 264.364 353.118 267.674 353.118 267.674L357.164 276.481Z" fill="#FC1A2E" stroke="#263238" stroke-linecap="round" stroke-linejoin="round"/>
<path d="M335.614 268.648C333.945 269.21 332.311 269.874 330.724 270.636C324.034 273.804 317.562 277.414 311.351 281.441L313.756 286.62C313.756 286.62 339.749 294.97 352.582 293.359L353.128 293.28C355.395 283.777 357.164 276.511 357.164 276.511L354.659 271.064C353.622 270.41 352.488 269.923 351.299 269.623C349.888 269.424 342.771 269.016 335.614 268.648Z" fill="#263238" stroke="#263238" stroke-linecap="round" stroke-linejoin="round"/>
<path d="M362.671 437.668C359.317 441.307 355.32 444.296 350.882 446.485C343.924 449.785 340.604 453.443 340.942 456.027C341.28 458.612 345.345 459.009 352.323 459.337C359.301 459.665 383.903 458.602 387.938 458.602C391.974 458.602 395.284 457.498 395.284 454.188C395.284 450.878 394.548 442.439 394.548 442.439L362.671 437.668Z" fill="white" stroke="#263238" stroke-linecap="round" stroke-linejoin="round"/>
<path d="M377.352 455.66C364.371 455.66 346.926 454.914 341.141 454.666C340.994 455.107 340.947 455.575 341.002 456.037C341.369 458.612 345.405 459.019 352.383 459.347C359.361 459.675 383.962 458.612 387.998 458.612C391.646 458.612 394.678 457.707 395.244 455.103C391.348 455.371 385.404 455.66 377.352 455.66Z" fill="white" stroke="#263238" stroke-linecap="round" stroke-linejoin="round"/>
<path d="M397.6 276.481C397.6 276.481 384.012 332.294 384.012 336.698C384.012 341.101 396.864 361.299 397.232 377.084C397.6 392.869 391.725 423.722 392.819 427.022C393.912 430.323 395.801 432.529 395.393 435.471C394.986 438.414 393.922 446.117 393.922 446.117C393.922 446.117 388.783 446.485 378.137 444.278C372.083 443.08 366.174 441.234 360.514 438.772C360.514 438.772 359.778 431.058 359.778 429.597C359.778 428.136 361.249 424.448 361.617 421.516C361.985 418.583 360.514 389.936 357.572 374.887C354.629 359.838 349.133 340.366 349.133 330.088C349.133 319.81 348.765 283.459 348.765 283.459C355.863 278.566 363.354 274.267 371.16 270.607C384.38 264.364 393.554 267.674 393.554 267.674L397.6 276.481Z" fill="#FC1A2E" stroke="#263238" stroke-linecap="round" stroke-linejoin="round"/>
<path d="M385.404 266.839C380.437 267.141 375.58 268.422 371.11 270.607C363.304 274.267 355.814 278.566 348.715 283.459C348.715 283.459 348.715 287.654 348.814 293.588C351.15 294.075 357.601 295.029 369.907 294.294C383.485 293.479 391.984 290.835 394.28 290.039L394.996 287.057L395.254 274.384C395.254 274.384 389.151 269.374 385.404 266.839Z" fill="#263238" stroke="#263238" stroke-linecap="round" stroke-linejoin="round"/>
<path d="M318.537 161.495C318.537 161.495 309.591 164.229 307.355 165.72C305.118 167.211 301.639 178.89 300.645 181.624C299.651 184.357 294.433 198.522 294.433 198.522L302.882 200.261C302.882 200.261 302.633 208.71 303.876 212.189C305.118 215.668 314.064 226.105 314.064 226.105L317.295 234.803L313.816 283.012C313.816 283.012 326.489 289.721 347.86 291.709C369.231 293.697 383.893 291.709 385.632 290.715C386.663 290.123 387.744 289.625 388.863 289.224L390.354 282.266L392.59 288.727C395.382 288.467 398.134 287.883 400.791 286.988C403.773 285.745 408.246 283.26 408.246 283.26C408.246 283.26 399.051 248.47 395.075 239.027C391.099 229.584 384.39 214.923 384.39 214.923C384.39 214.923 381.408 180.878 375.444 169.447C369.48 158.016 358.297 155.034 350.345 154.289C342.393 153.543 318.537 161.495 318.537 161.495Z" fill="#FC1A2E" stroke="#263238" stroke-linecap="round" stroke-linejoin="round"/>
<path d="M316.092 162.718C314.421 168.395 313.495 174.266 313.339 180.182L316.092 162.718Z" fill="white"/>
<path d="M316.092 162.718C314.421 168.395 313.495 174.266 313.339 180.182" stroke="#263238" stroke-width="2" stroke-linecap="round" stroke-linejoin="round"/>
<path d="M314.541 217.686C314.434 217.683 314.327 217.667 314.223 217.636C313.691 217.441 313.176 217.201 312.683 216.921C312.235 217.219 311.867 217.438 311.689 217.547C311.464 217.648 311.21 217.663 310.976 217.588C310.742 217.513 310.544 217.353 310.42 217.141C310.296 216.928 310.256 216.677 310.307 216.436C310.357 216.195 310.496 215.982 310.695 215.837L310.973 215.668C310.048 214.877 309.36 213.845 308.985 212.686C307.991 209.515 307.355 182.777 309.094 179.994C309.562 179.239 310.256 178.653 311.077 178.317C311.898 177.981 312.805 177.914 313.667 178.125C314.661 178.393 317.136 179.516 317.364 184.148C317.653 189.864 318 209.277 317.662 211.623C317.464 212.984 315.973 214.465 314.512 215.599C314.62 215.651 314.733 215.694 314.849 215.728C314.974 215.769 315.088 215.835 315.187 215.921C315.286 216.007 315.367 216.112 315.425 216.229C315.483 216.346 315.518 216.474 315.526 216.604C315.535 216.735 315.518 216.866 315.476 216.99C315.413 217.19 315.289 217.364 315.121 217.489C314.953 217.614 314.75 217.683 314.541 217.686ZM312.673 179.914C312.294 179.919 311.923 180.02 311.593 180.205C311.263 180.391 310.985 180.657 310.784 180.978C309.532 183.135 309.989 209.028 310.893 212.05C311.223 213.014 311.84 213.854 312.663 214.456C314.253 213.283 315.595 212.01 315.704 211.275C316.002 209.197 315.704 190.311 315.386 184.178C315.267 181.842 314.472 180.312 313.18 179.984C313.015 179.936 312.844 179.913 312.673 179.914Z" fill="white" stroke="#263238" stroke-linecap="round" stroke-linejoin="round"/>
<path d="M310.943 215.638L312.683 216.891C311.97 217.484 311.159 217.948 310.287 218.262C309.363 218.451 308.627 217.686 310.943 215.638Z" fill="#263238" stroke="#263238" stroke-linecap="round" stroke-linejoin="round"/>
<path d="M314.521 215.589L312.683 216.891C312.683 216.891 314.551 219.376 316.589 218.451C318.627 217.527 314.521 215.589 314.521 215.589Z" fill="#263238" stroke="#263238" stroke-linecap="round" stroke-linejoin="round"/>
<path d="M340.942 154.13C340.942 154.13 336.966 174.059 336.966 189.685" stroke="#263238" stroke-width="2" stroke-linecap="round" stroke-linejoin="round"/>
<path d="M341.518 193.363C341.518 197.259 339.252 200.42 336.459 200.42C333.666 200.42 331.4 197.259 331.4 193.363C331.4 189.466 333.666 186.315 336.459 186.315C339.252 186.315 341.518 189.476 341.518 193.363Z" fill="white" stroke="#263238" stroke-linecap="round" stroke-linejoin="round"/>
<path d="M337.841 192.448C337.841 194.923 336.399 196.931 334.62 196.931C332.841 196.931 331.4 194.943 331.4 192.448C331.4 189.953 332.841 187.965 334.62 187.965C336.399 187.965 337.841 189.973 337.841 192.448Z" fill="white" stroke="#263238" stroke-linecap="round" stroke-linejoin="round"/>
<path d="M386.954 180.381L379.42 187.836L375.195 180.133L386.954 180.381Z" fill="#263238" stroke="#263238" stroke-linecap="round" stroke-linejoin="round"/>
<path d="M354.152 186.673L357.134 212.845C357.134 212.845 314.064 221.135 309.422 220.797C303.884 220.202 298.288 221.119 293.23 223.451C286.6 226.433 283.29 228.093 283.618 229.743C283.946 231.393 286.928 236.701 286.928 236.701C286.928 236.701 292.564 237.039 292.892 236.045C293.11 235.289 293.224 234.506 293.23 233.719C293.23 233.719 299.194 234.057 301.838 232.725C303.536 231.849 305.099 230.735 306.48 229.415C306.48 229.415 341.27 232.069 354.52 232.397C367.77 232.725 383.018 231.731 384.678 229.415C386.338 227.099 378.714 179.715 378.714 179.715L354.152 186.673Z" fill="#ECC2B2" stroke="#263238" stroke-linecap="round" stroke-linejoin="round"/>
<path d="M357.134 212.845C357.134 212.845 370.514 208.054 378.008 210.957" stroke="#263238" stroke-linecap="round" stroke-linejoin="round"/>
<path d="M309.422 220.797L310.198 229.614L314.134 230.23L313.299 220.28L309.422 220.797Z" fill="white" stroke="#263238" stroke-linecap="round" stroke-linejoin="round"/>
<path d="M314.75 220.101C314.8 221.016 313.458 221.841 311.768 221.94C310.078 222.04 308.617 221.384 308.558 220.469C308.498 219.555 309.85 218.73 311.539 218.63C313.229 218.531 314.69 219.187 314.75 220.101Z" fill="white" stroke="#263238" stroke-linecap="round" stroke-linejoin="round"/>
<path d="M293.19 233.719L289.671 232.725" stroke="#263238" stroke-linecap="round" stroke-linejoin="round"/>
<path d="M351.498 171.763L353.158 190.649L386.954 180.381C386.954 180.381 375.732 160.829 369.39 155.859C363.049 150.889 350.176 155.193 348.516 156.525" fill="#FC1A2E"/>
<path d="M351.498 171.763L353.158 190.649L386.954 180.381C386.954 180.381 375.732 160.829 369.39 155.859C363.049 150.889 350.176 155.193 348.516 156.525" stroke="#263238" stroke-linecap="round" stroke-linejoin="round"/>
<path d="M286.978 109.062C286.978 109.062 274.801 120.493 279.771 125.96C284.741 131.427 291.699 134.906 292.693 141.118C293.687 147.331 295.675 151.058 292.942 156.525C290.208 161.992 288.22 163.235 288.22 163.235C288.22 163.235 299.9 169.199 307.355 168.702C314.81 168.205 325.495 159.756 325.495 159.756C325.495 159.756 342.89 159.507 350.594 152.798C358.297 146.088 358.049 134.657 354.818 126.705C351.588 118.753 340.405 109.34 334.978 103.376C329.551 97.412 318.825 93.436 307.643 94.6785C296.46 95.921 286.978 109.062 286.978 109.062Z" fill="#263238" stroke="#263238" stroke-linecap="round" stroke-linejoin="round"/>
<path d="M315.098 162.241C315.098 162.241 317.335 167.956 318.826 173.175C320.317 178.393 324.293 191.564 324.293 190.818C324.293 190.073 332.244 170.193 334.232 164.477C335.419 161.107 336.17 157.6 336.469 154.04L329.76 138.385C327.655 143.093 324.611 147.321 320.814 150.81C314.85 156.028 313.359 158.513 313.359 158.513L315.098 162.241Z" fill="#ECC2B2" stroke="#263238" stroke-linecap="round" stroke-linejoin="round"/>
<path d="M316.211 164.487C316.211 164.487 326.479 161.595 330.972 157.748C335.465 153.901 335.783 152.927 335.783 152.927L330.326 142.659L316.211 164.487Z" fill="#263238" stroke="#263238" stroke-linecap="round" stroke-linejoin="round"/>
<path d="M288.469 128.942C288.469 128.942 292.942 140.124 293.687 143.355C294.433 146.585 297.166 152.798 301.391 156.525C305.615 160.253 308.349 165.223 315.058 164.229C321.768 163.235 329.968 151.307 331.459 147.579C332.95 143.852 329.471 133.663 329.471 132.421C329.451 132.043 329.324 131.678 329.104 131.37C328.884 131.062 328.58 130.823 328.229 130.681C328.229 130.681 316.301 135.403 308.1 131.924C302.622 129.473 297.451 126.387 292.693 122.729L288.469 128.942Z" fill="#ECC2B2" stroke="#263238" stroke-linecap="round" stroke-linejoin="round"/>
<path d="M322.513 134.906C322.513 134.906 325.744 126.457 330.465 127.451C335.187 128.445 334.69 136.645 332.205 139.627C329.72 142.609 327.732 141.118 327.732 141.118" fill="#ECC2B2"/>
<path d="M322.513 134.906C322.513 134.906 325.744 126.457 330.465 127.451C335.187 128.445 334.69 136.645 332.205 139.627C329.72 142.609 327.732 141.118 327.732 141.118" stroke="#263238" stroke-linecap="round" stroke-linejoin="round"/>
<path d="M302.176 137.172C302.494 138.726 302.66 140.307 302.673 141.893C302.673 144.378 301.43 148.354 303.667 149.348C305.903 150.342 309.134 149.348 309.879 148.106" stroke="#263238" stroke-linecap="round" stroke-linejoin="round"/>
<path d="M306.361 153.076C306.361 153.076 313.07 154.567 316.798 146.864" stroke="#263238" stroke-linecap="round" stroke-linejoin="round"/>
<path d="M309.343 138.882C310.584 139.352 311.949 139.386 313.213 138.98C314.477 138.574 315.565 137.751 316.301 136.645" stroke="#263238" stroke-linecap="round" stroke-linejoin="round"/>
<path d="M295.924 140.621C295.924 140.621 299.154 142.112 301.142 139.876" stroke="#263238" stroke-linecap="round" stroke-linejoin="round"/>
<path d="M300.894 135.9C300.894 135.9 297.663 133.663 294.93 136.397" stroke="#263238" stroke-linecap="round" stroke-linejoin="round"/>
<path d="M305.367 133.415C305.367 133.415 306.858 130.93 311.579 131.427" stroke="#263238" stroke-linecap="round" stroke-linejoin="round"/>
<path d="M258.182 198.383C258.182 198.383 267.128 200.371 270.11 211.971C273.092 223.57 287.644 270.368 287.644 270.368C287.644 270.368 303.041 279.165 307.683 279.831C312.325 280.497 316.291 280.825 316.629 285.795C316.967 290.765 315.635 298.717 312.981 300.039C310.327 301.361 300.387 301.371 293.101 301.033C285.815 300.695 281.173 299.045 277.197 296.401C273.221 293.757 268.917 267.575 264.275 254.981C259.633 242.387 250.23 216.304 251.224 209.684C252.218 203.064 254.871 198.383 258.182 198.383Z" fill="#C6D1CF" stroke="#263238" stroke-linecap="round" stroke-linejoin="round"/>
<path d="M293.23 307.146L286.839 306.669C284.269 306.474 281.688 306.816 279.258 307.674C276.829 308.532 274.604 309.886 272.727 311.65C270.849 313.415 269.359 315.551 268.353 317.922C267.346 320.294 266.844 322.849 266.879 325.426L268.072 454.516C268.08 455.503 268.477 456.445 269.177 457.14C269.877 457.834 270.823 458.224 271.809 458.224H330.276L345.286 306.649L293.23 307.146Z" fill="#333333" stroke="#263238" stroke-linecap="round" stroke-linejoin="round"/>
<path d="M330.257 458.234C329.27 458.234 328.324 457.844 327.624 457.15C326.924 456.455 326.527 455.512 326.519 454.526L325.326 325.436C325.291 322.859 325.793 320.304 326.8 317.932C327.807 315.561 329.296 313.425 331.174 311.66C333.051 309.896 335.276 308.541 337.705 307.684C340.135 306.826 342.717 306.484 345.286 306.679L351.677 307.156C354.198 307.346 356.653 308.049 358.892 309.221C361.131 310.393 363.108 312.01 364.701 313.972C366.294 315.935 367.47 318.202 368.157 320.634C368.843 323.067 369.026 325.614 368.694 328.119L351.876 454.954C351.76 455.853 351.321 456.678 350.64 457.276C349.96 457.875 349.084 458.204 348.178 458.204L330.257 458.234Z" fill="#666666" stroke="#263238" stroke-linecap="round" stroke-linejoin="round"/>
<path d="M194.943 335.972H307.265C310.429 335.972 313.463 337.229 315.7 339.466C317.937 341.703 319.193 344.736 319.193 347.9V458.234H194.943V335.972Z" fill="#666666" stroke="#263238" stroke-linecap="round" stroke-linejoin="round"/>
<path d="M319.69 378.187H202.398" stroke="#263238" stroke-linecap="round" stroke-linejoin="round"/>
<path d="M271.65 288.389L276.948 294.025C288.34 294.568 299.557 297.031 310.128 301.311C326.688 308.269 347.9 316.559 349.222 326.161C350.544 335.763 332.99 389.777 330.008 403.037C327.026 416.297 326.688 420.929 326.688 420.929C326.688 420.929 329.67 423.573 329.014 425.899C328.358 428.225 324.7 439.477 324.7 439.477C319.471 440.686 314.152 441.464 308.796 441.803C303.355 441.899 297.917 441.452 292.564 440.471C292.564 440.471 291.57 429.209 292.564 426.555C293.558 423.901 297.206 420.929 297.534 418.941C297.862 416.953 299.194 385.473 299.194 373.217C299.194 360.961 306.152 341.409 306.152 341.409C306.152 341.409 273.35 340.077 263.738 339.083C254.126 338.089 230.936 315.893 230.27 304.959C229.604 294.025 255.746 282.097 271.65 288.389Z" fill="#263238" stroke="#263238" stroke-linecap="round" stroke-linejoin="round"/>
<path d="M325.038 435.501C325.038 435.501 322.056 429.875 318.408 432.519C314.76 435.163 314.104 438.821 312.116 438.821C310.128 438.821 292.564 435.501 292.564 435.501C292.564 435.501 287.922 453.731 289.582 455.719C291.242 457.707 306.48 459.357 313.11 460.351C319.74 461.345 334.312 464.993 343.924 464.993C353.536 464.993 351.876 458.035 349.55 455.719C347.224 453.403 330.664 444.447 328.348 441.465C326.948 439.657 325.831 437.646 325.038 435.501Z" fill="white" stroke="#263238" stroke-linecap="round" stroke-linejoin="round"/>
<path d="M351.26 460.749C347.308 461.584 343.281 462.007 339.242 462.011C330.624 462.011 323.666 458.701 312.732 456.713C304.134 455.143 293.478 452.558 289.334 451.524C289.105 453.602 289.115 455.202 289.542 455.719C291.202 457.707 306.44 459.357 313.07 460.351C319.7 461.345 334.272 464.993 343.884 464.993C349.053 464.993 350.961 462.975 351.26 460.749Z" fill="white" stroke="#263238" stroke-linecap="round" stroke-linejoin="round"/>
<path d="M203.392 195.619C203.392 195.619 183.512 203.243 176.226 208.213C168.94 213.183 173.572 232.069 173.572 242.665C173.572 253.261 171.584 281.769 171.256 287.395C170.928 293.021 178.214 300.655 183.184 303.637C188.154 306.619 230.568 308.269 241.83 308.269C253.092 308.269 277.286 300.983 275.298 279.443C273.31 257.903 266.352 241.343 265.358 237.695C264.364 234.047 264.026 222.129 264.364 218.809C264.702 215.489 267.346 205.559 262.376 200.917C257.406 196.275 236.532 190.977 226.92 191.315C217.308 191.653 203.392 195.619 203.392 195.619Z" fill="#C6D1CF" stroke="#263238" stroke-linecap="round" stroke-linejoin="round"/>
<path d="M205.997 217.457C206.48 218.815 207.182 220.084 208.074 221.215C210.866 224.695 213.852 228.013 217.02 231.155C224.246 238.391 235.618 243.212 235.618 243.212C235.618 243.212 239.405 223.242 240.091 214.287C240.777 205.331 235.956 198.104 228.034 195.401C220.111 192.697 205.659 195.739 203.591 201.255C202.08 205.36 204.645 213.65 205.997 217.457Z" fill="white" stroke="#263238" stroke-linecap="round" stroke-linejoin="round"/>
<path d="M207.08 189.486C206.389 189.518 205.711 189.694 205.092 190.003C203.602 190.757 202.452 192.046 201.871 193.611C200.142 197.746 198.77 202.229 198.77 202.229C199.763 207.376 201.145 212.44 202.905 217.378C204.636 222.068 205.924 226.91 206.752 231.841C206.752 231.841 219.147 222.537 221.553 220.479C223.821 218.765 226.244 217.264 228.789 215.996C228.789 215.996 237.049 220.131 240.836 222.537C244.623 224.942 247.725 227.02 247.725 227.02C247.293 220.202 245.901 213.479 243.59 207.05C239.802 196.713 238.083 193.611 236.015 191.554C233.948 189.496 218.103 183.632 207.08 189.486Z" fill="white" stroke="#263238" stroke-linecap="round" stroke-linejoin="round"/>
<path d="M235.578 140.154C235.578 140.154 238.023 137.023 239.435 139.498C240.217 140.899 241.164 142.2 242.258 143.375C242.258 143.375 245.071 144.786 245.429 147.251C245.671 148.766 245.788 150.299 245.776 151.834C245.776 152.887 248.947 153.593 248.947 155.362C248.947 157.132 247.188 157.827 246.84 159.587C246.492 161.346 248.003 162.907 246.482 165.223C244.961 167.539 246.621 166.694 244.961 167.549C243.301 168.403 241.552 169.457 241.552 169.457L233.441 142.619L235.578 140.154Z" fill="#C7C7C7" stroke="#7D7D7D" stroke-linecap="round" stroke-linejoin="round"/>
<path d="M208.939 128.007C208.939 128.007 199.555 130.751 195.639 138.574C191.723 146.396 191.335 152.271 193.293 158.921C195.251 165.571 202.677 184.347 205.032 189.824C207.388 195.301 208.163 205.48 212.855 211.692C217.547 217.905 228.898 223.431 228.898 223.431C228.898 223.431 237.496 211.692 239.067 205.828C240.637 199.963 237.496 188.224 237.496 188.224C237.496 188.224 246.104 177.658 244.932 167.489C243.759 157.32 237.496 144.051 235.578 140.154C233.66 136.258 226.543 124.101 208.939 128.007Z" fill="#ECC2B2" stroke="#263238" stroke-linecap="round" stroke-linejoin="round"/>
<path d="M215.698 143.683C215.698 143.683 222.586 140.243 227.059 141.277" stroke="#263238" stroke-linecap="round" stroke-linejoin="round"/>
<path d="M212.935 142.311C212.935 142.311 219.137 139.21 223.61 139.21" stroke="#263238" stroke-linecap="round" stroke-linejoin="round"/>
<path d="M237.496 188.264C237.496 188.264 232.218 191.554 227.397 191.554C222.576 191.554 213.621 187.767 210.867 185.003C210.867 185.003 219.028 194.347 227.696 196.683C236.363 199.019 238.699 195.351 238.699 195.351L237.496 188.264Z" fill="#263238" stroke="#263238" stroke-linecap="round" stroke-linejoin="round"/>
<path d="M195.341 167.986C195.606 167.829 195.862 167.657 196.106 167.469C197.309 166.584 199.476 164.656 199.217 162.35C198.87 159.179 199.217 157.38 197.458 154.945C195.699 152.509 192.876 147.192 192.876 147.192C190.789 147.022 188.701 147.516 186.912 148.603C184.447 150.362 185.142 151.774 184.447 154.239C183.751 156.704 181.972 154.945 180.918 158.473C179.864 162.002 181.266 164.109 182.677 164.815C184.089 165.521 183.035 167.638 183.035 170.779C183.089 171.918 183.542 173.001 184.314 173.839C185.087 174.676 186.129 175.216 187.26 175.362C188.323 175.362 188.671 176.773 190.083 178.184C191.494 179.596 196.047 178.015 196.047 178.015C196.047 178.015 198.184 176.773 198.532 175.362C198.879 173.95 195.341 167.986 195.341 167.986Z" fill="#C7C7C7" stroke="#7D7D7D" stroke-linecap="round" stroke-linejoin="round"/>
<path d="M198.382 167.529C198.382 167.529 193.681 161.267 190.55 164.785C187.419 168.304 192.896 176.912 196.027 178.085C199.158 179.258 203.074 176.097 203.074 176.097" fill="#ECC2B2"/>
<path d="M198.382 167.529C198.382 167.529 193.681 161.267 190.55 164.785C187.419 168.304 192.896 176.912 196.027 178.085C199.158 179.258 203.074 176.097 203.074 176.097" stroke="#263238" stroke-linecap="round" stroke-linejoin="round"/>
<path d="M226.94 148.742C226.94 148.742 226.542 152.271 227.328 153.444C228.113 154.617 232.805 156.575 232.019 160.094C231.234 163.612 226.542 166.744 224.197 163.612" stroke="#263238" stroke-linecap="round" stroke-linejoin="round"/>
<path d="M221.066 169.875C223.344 170.491 225.755 170.411 227.988 169.644C230.22 168.876 232.172 167.458 233.59 165.571" stroke="#263238" stroke-linecap="round" stroke-linejoin="round"/>
<path d="M209.336 153.692C209.225 153.69 209.115 153.674 209.008 153.643C208.876 153.605 208.752 153.54 208.646 153.452C208.54 153.364 208.453 153.255 208.391 153.131C208.33 153.008 208.294 152.873 208.288 152.735C208.281 152.597 208.303 152.459 208.352 152.331C210.102 147.082 216.752 146.188 217.03 146.158C217.301 146.124 217.575 146.199 217.792 146.366C218.008 146.534 218.149 146.781 218.183 147.052C218.217 147.324 218.142 147.598 217.974 147.814C217.807 148.03 217.56 148.171 217.288 148.205C217.229 148.205 211.652 148.971 210.33 152.987C210.267 153.198 210.134 153.382 209.954 153.51C209.774 153.637 209.557 153.702 209.336 153.692Z" fill="#C7C7C7" stroke="#7D7D7D" stroke-linecap="round" stroke-linejoin="round"/>
<path d="M234.763 147.182C234.628 147.184 234.494 147.158 234.369 147.107C234.245 147.056 234.132 146.98 234.037 146.883C233.277 146.143 232.31 145.652 231.265 145.475C230.219 145.297 229.144 145.442 228.183 145.889C227.937 146.012 227.654 146.032 227.394 145.945C227.134 145.859 226.919 145.672 226.796 145.427C226.673 145.182 226.653 144.898 226.74 144.638C226.827 144.378 227.013 144.163 227.258 144.041C228.605 143.395 230.117 143.18 231.59 143.425C233.063 143.671 234.425 144.365 235.489 145.412C235.589 145.505 235.67 145.618 235.725 145.744C235.78 145.87 235.809 146.006 235.809 146.143C235.809 146.28 235.78 146.416 235.725 146.542C235.67 146.667 235.589 146.78 235.489 146.873C235.395 146.972 235.282 147.05 235.158 147.103C235.033 147.156 234.898 147.182 234.763 147.182Z" fill="#C7C7C7" stroke="#7D7D7D" stroke-linecap="round" stroke-linejoin="round"/>
<path d="M220.29 158.135C220.059 159.579 219.519 160.955 218.707 162.172C217.896 163.388 216.832 164.415 215.589 165.183" stroke="#263238" stroke-linecap="round" stroke-linejoin="round"/>
<path d="M232.417 156.177C234.507 157.646 236.922 158.587 239.455 158.921" stroke="#263238" stroke-linecap="round" stroke-linejoin="round"/>
<path d="M217.686 156.863C218.034 158.106 217.746 159.269 217.04 159.467C216.334 159.666 215.499 158.811 215.151 157.569C214.803 156.326 215.092 155.153 215.797 154.965C216.503 154.776 217.348 155.621 217.686 156.863Z" fill="#263238"/>
<path d="M233.282 152.44C233.62 153.682 233.332 154.845 232.636 155.044C231.94 155.243 231.085 154.388 230.747 153.136C230.409 151.883 230.688 150.73 231.383 150.531C232.079 150.333 232.934 151.187 233.282 152.44Z" fill="#263238"/>
<path d="M217.855 153.921L212.845 157.261" stroke="#263238" stroke-linecap="round" stroke-linejoin="round"/>
<path d="M229.773 151.068L235.26 150.83" stroke="#263238" stroke-linecap="round" stroke-linejoin="round"/>
<path d="M335.614 291.66C335.614 291.66 342.97 294.96 344.322 295.914C345.673 296.868 349.391 302.673 349.699 304.482C350.007 306.291 349.639 307.037 348.506 306.381C347.373 305.725 344.163 301.878 341.678 299.254C339.193 296.63 336.022 294.979 335.246 293.419C334.471 291.858 334.382 291.361 335.614 291.66Z" fill="#ECC2B2" stroke="#263238" stroke-linecap="round" stroke-linejoin="round"/>
<path d="M313.577 283.787C313.577 283.787 325.694 287.763 329.948 289.025C333.132 290.012 336.06 291.685 338.527 293.926C339.739 295.069 346.429 302.653 347.155 304.86C347.88 307.066 348.884 312.971 347.642 313.518C346.399 314.064 345.127 312.613 344.57 311.361C343.934 310.185 343.181 309.076 342.324 308.051C342.324 308.051 343.825 312.832 343.566 315.237C343.308 317.643 342.572 319.104 340.584 319.442C338.596 319.78 336.37 316.46 334.829 313.378C333.892 311.513 332.686 309.795 331.251 308.279L326.499 306.072C327.316 308.464 328.389 310.76 329.7 312.921C331.519 315.635 333.676 316.271 332.891 317.752C332.105 319.233 328.487 319.521 326.787 317.464C325.088 315.406 322.354 313.18 320.823 310.416C319.293 307.653 315.744 300.188 315.744 300.188L306.043 298.498C306.043 298.498 300.367 296.789 299.999 290.805C299.631 284.821 310.953 282.226 313.577 283.787Z" fill="#ECC2B2" stroke="#263238" stroke-linecap="round" stroke-linejoin="round"/>
<path d="M333.407 303.22C333.407 303.22 337.751 308.856 339.183 311.301C340.614 313.746 340.594 319.462 340.594 319.462" stroke="#263238" stroke-linecap="round" stroke-linejoin="round"/>
<path d="M342.324 308.07L338.457 299.323" stroke="#263238" stroke-linecap="round" stroke-linejoin="round"/>
<path d="M215.698 304.293C215.698 304.293 237.894 301.649 249.156 305.625C260.418 309.601 271.362 323.517 271.362 335.107C271.362 346.697 269.036 410.323 269.702 411.983C270.368 413.643 274.006 413.971 274.006 417.281C274.006 420.591 271.362 437.827 271.362 437.827C271.362 437.827 255.786 443.453 250.488 443.453H245.18C245.18 443.453 237.566 423.245 237.894 419.935C238.222 416.625 240.21 413.971 240.21 412.311C240.21 410.651 230.608 375.861 230.608 365.593V342.731L212.05 338.755C212.05 338.755 203.77 315.227 215.698 304.293Z" fill="#263238" stroke="#263238" stroke-linecap="round" stroke-linejoin="round"/>
<path d="M284.9 452.737C284.9 452.737 274.96 441.137 270.984 434.845C267.008 428.553 259.722 424.905 255.418 428.215C251.114 431.525 251.104 439.815 251.104 439.815L243.818 438.483C243.818 438.483 246.472 447.429 247.794 452.399C249.116 457.369 251.104 460.689 259.722 462.011C268.34 463.333 282.584 464.327 286.56 460.351C290.536 456.375 284.9 452.737 284.9 452.737Z" fill="white" stroke="#263238" stroke-linecap="round" stroke-linejoin="round"/>
<path d="M286.56 460.351C287.199 459.831 287.652 459.118 287.851 458.318C288.05 457.519 287.984 456.677 287.664 455.918C285.811 456.969 283.892 457.899 281.918 458.701C274.632 461.683 264.692 461.017 256.412 458.363C253.351 457.485 250.537 455.906 248.192 453.751C249.554 457.976 251.919 460.808 259.722 462.011C268.38 463.333 282.584 464.327 286.56 460.351Z" fill="white" stroke="#263238" stroke-linecap="round" stroke-linejoin="round"/>
<path d="M297.922 285.715C297.922 285.715 297.266 293.578 297.047 295.973C296.828 298.369 298.14 301.222 299.035 301.649C299.93 302.077 300.347 301.222 300.347 299.254V295.973C300.317 295.317 297.922 285.715 297.922 285.715Z" fill="white" stroke="#263238" stroke-linecap="round" stroke-linejoin="round"/>
<path d="M310.983 269.583C310.983 266.163 315.535 258.957 315.535 258.957L317.295 234.803L316.102 230.121L310.794 229.743C308.697 236.781 301.331 261.551 300.357 265.408C299.225 270.649 298.464 275.964 298.081 281.312C298.081 283.201 298.081 291.928 298.846 295.347C299.611 298.767 304.909 302.166 304.909 302.166C304.909 302.166 312.066 302.166 313.199 301.411C314.333 300.655 311.46 298.13 311.46 298.13C311.033 298.13 309.77 288.767 312.454 285.864C314.621 283.548 320.804 286.242 320.804 286.242C320.804 286.242 319.283 282.067 317.384 278.29C315.486 274.513 310.983 272.992 310.983 269.583Z" fill="#ECC2B2" stroke="#263238" stroke-linecap="round" stroke-linejoin="round"/>
<path d="M312.116 302.087C312.116 302.087 306.44 299.035 305.784 297.723C305.128 296.411 304.919 286.371 304.919 286.371" stroke="#263238" stroke-linecap="round" stroke-linejoin="round"/>
<path d="M306.212 302.087C306.212 302.087 301.629 297.286 301.629 295.536C301.629 293.787 300.536 286.371 300.536 286.371" stroke="#263238" stroke-linecap="round" stroke-linejoin="round"/>
<path d="M197.647 307.146L159.766 306.699C158.79 306.619 157.809 306.619 156.833 306.699L150.432 307.176C147.912 307.366 145.457 308.069 143.218 309.241C140.979 310.413 139.003 312.03 137.411 313.993C135.819 315.955 134.644 318.222 133.959 320.655C133.273 323.087 133.091 325.634 133.425 328.139L150.323 455.004C150.441 455.903 150.882 456.729 151.564 457.327C152.247 457.925 153.123 458.254 154.03 458.254H201.245L197.647 307.146Z" fill="#333333" stroke="#263238" stroke-linecap="round" stroke-linejoin="round"/>
<path d="M219.078 458.234C220.063 458.231 221.007 457.841 221.707 457.147C222.406 456.453 222.805 455.512 222.815 454.526L224.008 325.436C224.041 322.86 223.538 320.305 222.531 317.934C221.524 315.563 220.034 313.428 218.157 311.664C216.28 309.899 214.056 308.545 211.627 307.687C209.198 306.829 206.617 306.486 204.048 306.679L197.647 307.156C195.127 307.346 192.672 308.049 190.433 309.221C188.194 310.393 186.218 312.01 184.626 313.973C183.034 315.935 181.859 318.202 181.174 320.635C180.488 323.067 180.306 325.614 180.64 328.119L197.538 454.984C197.656 455.883 198.097 456.709 198.779 457.307C199.462 457.905 200.338 458.235 201.245 458.234H219.078Z" fill="#666666" stroke="#263238" stroke-linecap="round" stroke-linejoin="round"/>
<path d="M185.5 204.565C185.5 204.565 171.584 204.893 166.286 212.845C160.988 220.797 156.674 247.973 155.68 254.931C154.686 261.889 150.382 286.401 152.042 291.043C153.702 295.685 158.006 296.341 165.958 296.679C173.91 297.017 177.548 292.703 179.208 287.733C180.868 282.763 185.172 236.373 185.172 236.373" fill="#C6D1CF"/>
<path d="M185.5 204.565C185.5 204.565 171.584 204.893 166.286 212.845C160.988 220.797 156.674 247.973 155.68 254.931C154.686 261.889 150.382 286.401 152.042 291.043C153.702 295.685 158.006 296.341 165.958 296.679C173.91 297.017 177.548 292.703 179.208 287.733C180.868 282.763 185.172 236.373 185.172 236.373" stroke="#263238" stroke-linecap="round" stroke-linejoin="round"/>
<path d="M166.614 274.473C168.602 275.139 186.494 279.443 187.826 283.091C188.247 284.021 188.378 285.057 188.201 286.063C188.023 287.069 187.546 287.997 186.832 288.727C186.832 288.727 180.868 302.971 175.56 304.293C170.252 305.615 158.334 301.977 152.37 299.323C146.406 296.669 152.37 276.461 153.036 275.467" fill="#C6D1CF"/>
<path d="M166.614 274.473C168.602 275.139 186.494 279.443 187.826 283.091C188.247 284.021 188.378 285.057 188.201 286.063C188.023 287.069 187.546 287.997 186.832 288.727C186.832 288.727 180.868 302.971 175.56 304.293C170.252 305.615 158.334 301.977 152.37 299.323C146.406 296.669 152.37 276.461 153.036 275.467" stroke="#263238" stroke-linecap="round" stroke-linejoin="round"/>
<path d="M190.848 292.703C190.848 292.703 192.17 290.715 190.51 289.721C188.85 288.727 186.206 285.745 183.224 285.745C180.242 285.745 174.944 288.389 173.612 294.025C172.28 299.661 173.284 303.637 175.6 304.293C177.916 304.949 182.896 306.281 185.212 306.281C187.528 306.281 189.188 301.311 189.516 300.317C189.844 299.323 190.848 292.703 190.848 292.703Z" fill="#C6D1CF" stroke="#263238" stroke-linecap="round" stroke-linejoin="round"/>
<path d="M212.338 294.691C212.338 294.691 217.974 301.649 220.628 302.971C223.282 304.293 225.598 305.953 223.61 307.941C221.622 309.929 216.98 308.935 214.992 306.281C213.004 303.627 212.338 294.691 212.338 294.691Z" fill="#ECC2B2" stroke="#263238" stroke-linecap="round" stroke-linejoin="round"/>
<path d="M193.124 292.703C193.124 292.703 208.7 290.377 211.016 290.377C213.332 290.377 216.98 306.947 217.308 309.601C217.636 312.255 218.968 313.905 217.308 315.227C216.586 315.934 215.662 316.4 214.664 316.559C213.752 317.337 212.751 318.005 211.682 318.547C210.688 318.875 207.04 318.209 207.04 318.209C207.04 318.209 206.712 319.541 204.058 319.203C201.404 318.865 192.458 307.613 192.458 307.613C192.458 307.613 185.838 305.953 183.184 303.637C180.53 301.321 181.524 297.335 183.184 294.691C184.844 292.047 188.482 291.371 188.482 291.371L193.124 292.703Z" fill="#ECC2B2" stroke="#263238" stroke-linecap="round" stroke-linejoin="round"/>
<path d="M207.706 298.001L215.986 315.893" stroke="#263238" stroke-linecap="round" stroke-linejoin="round"/>
<path d="M201.404 300.983L211.682 318.547" stroke="#263238" stroke-linecap="round" stroke-linejoin="round"/>
<path d="M207.04 318.209L197.428 304.293" stroke="#263238" stroke-linecap="round" stroke-linejoin="round"/>
</svg>
