<svg width="32" height="32" viewBox="0 0 32 32" fill="none" xmlns="http://www.w3.org/2000/svg">
<path d="M6.195 3.5C6.3 5.0575 6.5625 6.58 6.9825 8.0325L4.8825 10.1325C4.165 8.0325 3.71 5.81 3.5525 3.5H6.195ZM23.45 24.535C24.9375 24.955 26.46 25.2175 28 25.3225V27.93C25.69 27.7725 23.4675 27.3175 21.35 26.6175L23.45 24.535ZM7.875 0H1.75C0.7875 0 0 0.7875 0 1.75C0 18.1825 13.3175 31.5 29.75 31.5C30.7125 31.5 31.5 30.7125 31.5 29.75V23.6425C31.5 22.68 30.7125 21.8925 29.75 21.8925C27.58 21.8925 25.4625 21.5425 23.5025 20.895C23.3275 20.825 23.135 20.8075 22.96 20.8075C22.505 20.8075 22.0675 20.9825 21.7175 21.315L17.8675 25.165C12.915 22.6275 8.855 18.585 6.335 13.6325L10.185 9.7825C10.675 9.2925 10.815 8.61 10.6225 7.9975C9.975 6.0375 9.625 3.9375 9.625 1.75C9.625 0.7875 8.8375 0 7.875 0Z" fill="#5A5558"/>
</svg>
